<svg width="100" height="100" viewBox="0 0 100 100" fill="none" xmlns="http://www.w3.org/2000/svg">
<mask id="mask0_1_11851" style="mask-type:alpha" maskUnits="userSpaceOnUse" x="0" y="0" width="100" height="100">
<rect width="100" height="100" fill="white"/>
</mask>
<g mask="url(#mask0_1_11851)">
<path fill-rule="evenodd" clip-rule="evenodd" d="M48.034 0.257624C46.1772 0.86432 44.5298 2.2287 43.707 3.84115C43.1988 4.83753 42.8999 6.54687 42.898 8.4699L42.8964 10.0454L41.7399 10.9676C40.3239 12.0966 38.9759 13.9454 38.2646 15.734C37.7678 16.9826 37.7303 17.2771 37.7335 19.9096C37.7366 22.8353 37.8975 23.9408 38.7216 26.7028C39.2711 28.5444 41.0566 32.6397 41.9047 34.0041C42.2178 34.5076 42.4231 34.9706 42.3612 35.0327C42.2991 35.0946 41.8895 35.1473 41.4508 35.1497C39.2205 35.1614 35.0512 36.5545 32.3279 38.1978C30.7529 39.1481 30.7393 39.1635 24.0797 47.4994C20.4108 52.0916 17.1632 56.3131 16.8632 56.8806C14.9097 60.5719 16.822 65.6179 20.779 67.2141C21.8625 67.6513 22.1279 67.669 28.4017 67.7261L34.9019 67.7851L34.8476 70.4566L34.7933 73.1279L26.1011 75.677C20.9339 77.1924 16.9734 78.4599 16.3346 78.8025C14.9077 79.5682 12.874 81.6404 12.0813 83.1365C9.86255 87.3243 10.3687 92.4713 13.3322 95.8591L14.2163 96.8698H7.60336C0.350554 96.8698 0.279649 96.8807 0.0276733 98.0277C-0.114722 98.6756 0.314223 99.6817 0.814659 99.8737C1.35455 100.081 98.7523 100.015 99.1408 99.8071C99.3338 99.7038 99.6024 99.3522 99.7375 99.0258C100.025 98.3312 99.7356 97.3761 99.1408 97.0577C98.9359 96.9481 96.0515 96.8698 92.2181 96.8698H85.6466L86.5307 95.8591C90.868 90.9008 89.7208 82.9197 84.1373 79.2076C82.9462 78.4157 82.1856 78.1397 77.0615 76.6386C73.9037 75.7135 69.9137 74.5421 68.1948 74.0354L65.0695 73.1145L65.0152 70.44L64.9609 67.7655L71.0705 67.7632C77.651 67.7607 78.4628 67.6669 80.0752 66.7219C81.2302 66.0451 82.486 64.6303 83.1063 63.3071C83.5656 62.3273 83.6259 61.9603 83.6259 60.1477C83.6259 57.547 83.4386 57.1243 80.8487 53.8777C78.5114 50.9482 78.1075 50.705 77.0111 51.5674C76.6206 51.8744 76.4969 52.1454 76.4987 52.6905C76.5009 53.3 76.7714 53.7486 78.286 55.6551C80.3504 58.2531 80.5989 58.7514 80.5965 60.2879C80.594 61.8269 79.7992 63.2327 78.4997 63.9964L77.5707 64.5426L64.9514 64.5969C53.1003 64.6479 52.3063 64.6299 51.9086 64.3039C51.4859 63.9572 51.4851 63.9427 51.5384 56.534L51.5917 49.1115L52.2027 49.7416C53.4111 50.9872 54.3074 53.7103 54.5449 56.8561C54.6537 58.2981 54.7622 58.7292 55.1204 59.146L55.5618 59.6593L62.4642 59.7181C66.2607 59.7504 69.6575 59.7236 70.0126 59.6584C70.8943 59.4966 71.4178 58.9247 71.4178 58.1234C71.4178 57.5671 70.847 56.7372 67.6895 52.703C65.6391 50.0831 63.7778 47.7418 63.5536 47.5C62.9563 46.8562 61.8106 46.8941 61.2749 47.5752C60.5611 48.4825 60.708 48.9333 62.4027 51.0328L63.4805 52.368L63.2344 53.5721C63.099 54.2342 62.9 55.1935 62.792 55.7039L62.5955 56.6317H60.1833C57.4571 56.6317 57.6757 56.7772 57.4522 54.8144C56.9959 50.806 55.0303 47.3334 52.6102 46.2605C51.1671 45.6206 48.6958 45.6206 47.2527 46.2605C44.8325 47.3334 42.8669 50.806 42.4106 54.8144C42.1872 56.7772 42.4058 56.6317 39.6795 56.6317H37.2674L37.0709 55.7039C36.9629 55.1935 36.7638 54.2342 36.6285 53.5721L36.3824 52.368L37.4602 51.0328C39.1549 48.9333 39.3018 48.4825 38.588 47.5752C38.0522 46.8941 36.9066 46.8562 36.3093 47.5C36.0851 47.7418 34.2238 50.0831 32.1734 52.703C29.0159 56.7372 28.4451 57.5671 28.4451 58.1234C28.4451 58.9247 28.9686 59.4966 29.8503 59.6584C30.2054 59.7236 33.6022 59.7504 37.3987 59.7181L44.301 59.6593L44.7425 59.146C45.1007 58.7292 45.2091 58.2981 45.3179 56.8561C45.5584 53.6717 46.4335 51.0072 47.6517 49.7504L48.2711 49.1115L48.3245 56.534C48.3778 63.9427 48.377 63.9572 47.9543 64.3039C47.5566 64.6299 46.7626 64.6479 34.9115 64.5969L22.2922 64.5426L21.3632 63.9964C19.583 62.9501 18.7384 60.418 19.5343 58.5129C19.8424 57.7758 32.0712 42.3566 32.9883 41.5489C33.8046 40.8303 35.9643 39.7155 37.6797 39.1276C40.2165 38.258 42.2225 38.0777 49.3736 38.0765C58.7158 38.0749 61.1301 38.3925 64.5302 40.071C66.2236 40.907 66.8283 41.4008 68.496 43.3102C69.568 44.5372 70.1616 44.6355 71.0621 43.735C71.5402 43.2569 71.6276 43.0428 71.5197 42.6132C71.2996 41.7358 69.324 39.3391 68.213 38.6014C65.6944 36.9291 62.4703 35.704 59.6003 35.3286C58.6334 35.202 57.732 35.0676 57.597 35.0299C57.4315 34.9836 57.5638 34.6258 58.0037 33.9302C59.3503 31.8003 61.2151 26.986 61.8456 24.0115C62.2623 22.0459 62.3253 18.397 61.9669 17.0031C61.3512 14.6095 59.8638 12.2855 58.049 10.8812L57.02 10.0851L56.9055 7.80831C56.7627 4.96704 56.3348 3.71888 55.0044 2.26328C53.3003 0.398847 50.2703 -0.473107 48.034 0.257624ZM52.0668 3.78568C53.1036 4.5041 53.6103 5.52529 53.7669 7.21255L53.8996 8.63827L53.3962 8.51189C51.2366 7.96985 48.6262 7.96985 46.4667 8.51189L45.9633 8.63827L46.0817 7.22779C46.1655 6.22692 46.3438 5.57139 46.6954 4.97133C47.7476 3.17586 50.3561 2.60002 52.0668 3.78568ZM53.1544 11.7364C55.0587 12.3706 56.9225 13.7819 58.0087 15.4117C58.5578 16.2353 58.4447 16.3001 56.5731 16.2333C53.9009 16.138 52.7223 16.5605 48.5835 19.097C47.681 19.6502 46.6263 20.1907 46.2395 20.2981C45.0855 20.6187 43.4791 20.5175 42.1182 20.0381L40.8486 19.5912L40.8765 18.6273C40.9554 15.9087 43.1886 13.0959 46.2157 11.9028C48.3774 11.0508 50.9128 10.99 53.1544 11.7364ZM58.2687 19.5482L59.161 19.7731L59.0276 21.4166C58.8623 23.4519 58.3605 25.45 57.4282 27.7845C56.2303 30.7842 55.437 32.3088 54.6686 33.0884C52.0168 35.778 46.8554 35.4761 44.6849 32.5041C43.6086 31.0304 41.1416 24.7825 41.1416 23.5308C41.1416 23.0708 41.1427 23.0706 42.1671 23.3433C42.731 23.4933 43.8518 23.6154 44.6575 23.6144C46.5401 23.6121 48.042 23.088 50.6151 21.5351C52.8548 20.1835 53.7308 19.7166 54.4229 19.5061C55.1796 19.276 57.2782 19.2988 58.2687 19.5482ZM72.9091 46.4888C72.1608 47.0773 72.1907 48.1596 72.9763 48.9123C73.7516 49.6551 74.6321 49.6651 75.2576 48.9378C75.9022 48.1886 75.8408 47.5379 75.0509 46.748C74.2813 45.9784 73.6543 45.9026 72.9091 46.4888ZM33.9761 56.4852C33.8778 56.655 33.3284 56.6856 33.3284 56.5211C33.3284 56.4604 33.4301 56.2207 33.5544 55.9885C33.7749 55.5763 33.7837 55.5754 33.9206 55.9524C33.9978 56.1649 34.0226 56.4045 33.9761 56.4852ZM66.5345 56.4737C66.5345 56.6526 66.0706 56.6887 65.9046 56.5227C65.8448 56.4627 65.8436 56.2301 65.9024 56.0055C66.0048 55.614 66.02 55.6121 66.2718 55.9565C66.4163 56.1541 66.5345 56.3868 66.5345 56.4737ZM50.6528 67.2284C51.3661 67.6499 51.6097 67.6704 56.6215 67.7284L61.8466 67.7888V71.2496C61.8466 74.0515 61.904 74.7924 62.1478 75.1404C62.4978 75.6403 63.5546 75.9841 73.9571 78.9828C77.8783 80.1131 81.4667 81.2381 81.9314 81.4826C82.9464 82.0164 84.5084 83.6172 85.0477 84.6759C86.7885 88.0934 86.2123 91.9044 83.5656 94.4766C82.5268 95.4862 80.91 96.3431 79.4656 96.65C78.8962 96.7709 77.2023 96.8698 75.7012 96.8698H72.9718L73.0249 93.227L73.0781 89.5845L74.1129 89.2474C74.6821 89.0618 75.2728 88.7452 75.4254 88.5438C76.1196 87.6267 75.408 86.1221 74.2846 86.1321C73.9434 86.1352 69.1598 87.2671 63.6546 88.6475L53.6449 91.1573L52.9766 90.2272C51.6615 88.3965 49.8834 87.4939 47.5922 87.4939C45.8733 87.4939 44.7413 87.8797 42.9882 89.0626L41.5959 90.0021L33.8974 88.0699C29.6632 87.0071 25.9195 86.135 25.5782 86.1321C24.4549 86.1221 23.7433 87.6269 24.4375 88.5438C24.5901 88.7452 25.1807 89.0618 25.7499 89.2474L26.7848 89.5845L26.8379 93.227L26.8911 96.8698H24.1617C21.0548 96.8698 19.8264 96.6633 18.2645 95.8786C15.3297 94.4041 13.601 91.2864 13.8543 87.9248C14.037 85.5025 15.5461 82.9728 17.573 81.6906C17.9985 81.4215 20.9145 80.4565 24.3119 79.4607C27.6058 78.4952 31.7733 77.2707 33.5729 76.7398L36.8453 75.7741H45.5459H54.2465L54.7258 75.2945C55.246 74.7746 55.3491 73.9266 54.9549 73.4131C54.3908 72.6785 54.0402 72.6488 45.9401 72.6488H38.0163V70.2189V67.7888L43.2414 67.7284C48.2041 67.671 48.5008 67.6466 49.1501 67.2446C49.5261 67.0118 49.8508 66.8139 49.8715 66.8051C49.8922 66.7961 50.2438 66.9866 50.6528 67.2284ZM33.6702 91.244C35.5235 91.6999 37.0377 92.1193 37.0351 92.1762C37.0326 92.233 36.4087 92.6293 35.6485 93.0571C34.1048 93.9253 33.2571 94.7817 32.7051 96.0296L32.3334 96.8698H31.1706H30.0077V93.6468C30.0077 91.8742 30.0738 90.4219 30.1542 90.4196C30.2347 90.4172 31.8169 90.7881 33.6702 91.244ZM69.8551 93.6468V96.8698H52.8311H35.8071L36.1661 96.473C36.3636 96.2549 37.936 95.3628 39.6604 94.4906C41.385 93.6185 43.525 92.4195 44.4163 91.8263C45.7652 90.9286 46.2141 90.7333 47.096 90.6602C47.6787 90.6118 48.3776 90.6282 48.6491 90.6961C49.4185 90.8893 50.5294 91.982 50.9472 92.9565C51.4642 94.1633 51.8371 94.5268 52.5498 94.5201C52.8823 94.517 56.7582 93.6021 61.1629 92.4869C65.5676 91.3718 69.3254 90.4514 69.5133 90.4416C69.8258 90.4254 69.8551 90.7008 69.8551 93.6468Z" fill="black"/>
</g>
</svg>
