<svg width="100" height="100" viewBox="0 0 100 100" fill="none" xmlns="http://www.w3.org/2000/svg">
<mask id="mask0_1_12259" style="mask-type:alpha" maskUnits="userSpaceOnUse" x="0" y="0" width="100" height="100">
<rect width="100" height="100" fill="white"/>
</mask>
<g mask="url(#mask0_1_12259)">
<path fill-rule="evenodd" clip-rule="evenodd" d="M2.06509 3.32523C1.1601 3.80342 0.77138 4.2019 0.38149 5.05102C0.0726649 5.72356 0.0220729 6.36563 0.0183615 9.66387C0.0142595 13.2479 0.0402391 13.5286 0.418995 14.0101C0.932728 14.6633 1.93089 14.7139 2.47432 14.1142C2.8058 13.7485 2.85717 13.284 2.9441 9.86566L3.04177 6.0277H5.58113H8.12049L8.17069 19.2982C8.21035 29.7852 8.16933 32.6014 7.97536 32.7244C7.57043 32.9817 3.44572 32.9192 3.1785 32.6519C3.00563 32.4791 2.9441 30.7097 2.9441 25.9041V19.3904L2.46455 18.9111C1.8512 18.2975 1.10423 18.3002 0.486386 18.9181L0 19.4045L0.055866 26.4043L0.111732 33.404L0.59675 34.1115C0.863383 34.5006 1.43474 35.0214 1.86643 35.2689C2.59288 35.6853 2.87554 35.7187 5.6788 35.7187C8.50628 35.7187 8.75475 35.6888 9.43549 35.2653C9.83651 35.0161 10.3639 34.5326 10.6075 34.191C11.0408 33.5837 11.0527 33.4298 11.1482 27.2216L11.2459 20.8732L12.0575 20.814C12.8335 20.7576 12.8793 20.7855 13.0998 21.4539C13.2266 21.8384 13.5397 22.4013 13.7952 22.7053L14.2601 23.2577L14.3156 33.3948C14.3703 43.3554 14.3787 43.5458 14.7928 44.3135C16.0591 46.6602 19.0755 47.6502 21.8 46.6134C23.8001 45.8519 28.9423 42.7277 31.9387 40.4535L33.0981 39.5735L34.3349 41.6505C35.0151 42.7928 35.7454 44.1908 35.958 44.7573C36.3561 45.8187 36.8659 48.4495 36.7045 48.6109C36.6545 48.6609 36.3123 48.6154 35.9441 48.5099C33.847 47.9084 31.3809 48.5698 29.79 50.1609C28.3588 51.5921 28.0986 52.4516 27.3622 58.1823C26.5295 64.6624 26.5895 65.7594 28.0568 70.8791C28.3315 71.8369 28.4094 73.164 28.4833 78.1368L28.5735 84.2227L26.5029 87.7223C24.2941 91.4556 23.9634 92.3678 24.2544 93.926C24.4769 95.117 24.8518 95.785 25.7558 96.6017C27.1726 97.8817 27.6544 97.9661 33.152 97.897L38.0387 97.8354L38.9935 97.2448C40.1255 96.5445 40.9304 95.4539 41.2664 94.1653C41.4862 93.3222 41.4434 92.8495 40.833 89.3796L40.1555 85.5293V78.7902C40.1555 71.2811 40.3112 69.8575 41.1068 70.0866C43.9306 70.9 43.6946 70.8791 50.02 70.8791C56.3453 70.8791 56.1094 70.9 58.9331 70.0866C59.7287 69.8575 59.8844 71.2811 59.8844 78.7902V85.5293L59.2051 89.3721C58.5903 92.8487 58.5491 93.3048 58.7716 94.1579C59.1095 95.4535 59.9126 96.5433 61.0465 97.2448L62.0013 97.8354L66.888 97.897C72.3855 97.9661 72.8674 97.8817 74.2842 96.6017C75.1882 95.785 75.563 95.117 75.7855 93.926C76.076 92.3705 75.7451 91.4542 73.5573 87.7565L71.5069 84.2911V82.6491C71.5069 81.1852 71.4579 80.961 71.0549 80.5822C70.5011 80.0622 69.7456 80.0372 69.1502 80.5191C68.7962 80.8059 68.6857 81.1298 68.6167 82.0818L68.53 83.2829H65.7211H62.9121L62.9096 77.96C62.9069 72.3254 62.8115 71.4886 61.7358 67.6561C61.1639 65.6189 61.1858 62.9842 61.8132 58.28C62.0925 56.185 62.4125 54.1453 62.5242 53.7472C63.1377 51.5598 65.5642 50.59 67.5346 51.7446C68.8632 52.5232 69.0586 53.1085 69.7555 58.3964C70.4628 63.7634 70.449 65.5613 69.6789 68.2421C68.7648 71.4247 68.3841 74.337 68.7624 75.2507C68.983 75.7828 69.6649 76.2509 70.22 76.2509C70.3616 76.2509 70.6963 76.0788 70.9635 75.8686C71.3938 75.5301 71.4647 75.2861 71.5815 73.7396C71.654 72.7792 71.8495 71.4788 72.0161 70.8502C72.1828 70.2214 72.4914 69.0479 72.7022 68.2421C73.3831 65.6394 73.3782 63.6324 72.6777 58.1823C71.9413 52.4516 71.6811 51.5921 70.2499 50.1609C68.6591 48.5698 66.193 47.9084 64.0959 48.5099C63.7277 48.6154 63.3854 48.6609 63.3354 48.6109C63.1741 48.4495 63.6839 45.8187 64.082 44.7573C64.2945 44.1908 65.0249 42.7928 65.705 41.6505L66.9419 39.5735L68.1012 40.4538C71.0789 42.7152 76.552 46.024 78.3942 46.6765C81.0475 47.616 84.0289 46.5985 85.2359 44.3414C85.6646 43.54 85.6693 43.4347 85.7244 33.3948L85.7799 23.2577L86.2448 22.7053C86.5003 22.4013 86.8134 21.8384 86.9402 21.4539C87.1607 20.7855 87.2064 20.7576 87.9825 20.814L88.7941 20.8732L88.8918 27.2216C88.9873 33.4298 88.9992 33.5837 89.4325 34.191C89.676 34.5326 90.2034 35.0161 90.6045 35.2653C91.2852 35.6888 91.5337 35.7187 94.3612 35.7187C97.1644 35.7187 97.4471 35.6853 98.1735 35.2689C98.6052 35.0214 99.1766 34.5004 99.4432 34.1113L99.9282 33.4036L99.9868 19.8133C100.026 10.7285 99.9776 5.98903 99.8405 5.5169C99.5628 4.56073 98.9674 3.84717 98.0618 3.3852C97.4133 3.0543 96.908 3 94.4793 3C91.4475 3 90.8613 3.12306 89.9976 3.94035C88.8949 4.98363 88.8918 5.00492 88.8918 11.6827V17.8455H88.0385C87.1884 17.8455 87.1847 17.8424 87.0789 17.0522C86.9492 16.0861 86.326 15.1366 85.4083 14.5072C84.7479 14.0542 84.5745 14.0341 80.8004 13.9755C78.6435 13.9419 76.5878 13.9689 76.2321 14.0353C74.9677 14.2718 73.4603 16.0748 73.4603 17.3509V17.8455H67.1118H60.7634L60.7601 17.0153C60.7466 13.7491 58.916 10.3897 56.1887 8.62703C54.326 7.42318 52.8815 7.05497 50.02 7.05497C47.1212 7.05497 45.6527 7.43802 43.7946 8.6788C41.0529 10.5097 39.2931 13.7589 39.2798 17.0153L39.2765 17.8455H32.9281H26.5797V17.3509C26.5797 16.0748 25.0723 14.2718 23.8079 14.0353C23.4522 13.9689 21.3965 13.9419 19.2396 13.9755C15.4655 14.0341 15.292 14.0542 14.6316 14.5072C13.7139 15.1366 13.0908 16.0861 12.9611 17.0522C12.8552 17.8424 12.8515 17.8455 12.0014 17.8455H11.1482V11.6827C11.1482 5.00492 11.1451 4.98363 10.0424 3.94035C9.17569 3.12013 8.59008 2.99941 5.5196 3.00781C3.28965 3.01387 2.52061 3.08458 2.06509 3.32523ZM97.0484 19.1912C97.0849 28.7525 97.0382 32.4273 96.8781 32.6205C96.7169 32.8147 96.0891 32.8863 94.5485 32.8863C93.3888 32.8863 92.3008 32.833 92.1308 32.7678C91.8532 32.6613 91.8218 31.3032 91.8218 19.4199C91.8218 12.1437 91.8829 6.12947 91.9576 6.05466C92.0322 5.98004 93.197 5.94332 94.5458 5.9734L96.9982 6.0277L97.0484 19.1912ZM52.7574 10.2253C53.9447 10.5546 55.5452 11.6549 56.3121 12.6691C57.5752 14.3396 57.7357 15.0891 57.7357 19.315V23.0307L57.0929 24.3363C56.6223 25.2921 56.0725 25.9887 55.0419 26.9354C52.9801 28.8292 52.6105 28.9796 50.02 28.9796C47.4294 28.9796 47.0599 28.8292 44.9981 26.9354C43.9677 25.9889 43.4176 25.2919 42.9471 24.3365C42.3105 23.0436 42.3036 22.9998 42.2362 19.785C42.1831 17.2472 42.238 16.2676 42.4873 15.2942C43.4231 11.6413 46.3819 9.69239 50.606 9.94653C51.4117 9.99516 52.3798 10.1206 52.7574 10.2253ZM23.4153 17.1032C23.5602 17.2482 23.6497 17.9604 23.6497 18.9677C23.6497 20.4382 23.6026 20.6451 23.1701 21.0773C22.7035 21.5442 22.6122 21.5569 19.743 21.5569C16.8737 21.5569 16.7825 21.5442 16.3158 21.0773C15.8833 20.6451 15.8362 20.4382 15.8362 18.9677C15.8362 17.9604 15.9257 17.2482 16.0707 17.1032C16.4004 16.7735 23.0855 16.7735 23.4153 17.1032ZM83.9693 17.1032C84.1142 17.2482 84.2037 17.9604 84.2037 18.9677C84.2037 20.4382 84.1566 20.6451 83.7242 21.0773C83.2575 21.5442 83.1663 21.5569 80.297 21.5569C77.4277 21.5569 77.3365 21.5442 76.8698 21.0773C76.4374 20.6451 76.3903 20.4382 76.3903 18.9677C76.3903 17.9604 76.4798 17.2482 76.6247 17.1032C76.9544 16.7735 83.6396 16.7735 83.9693 17.1032ZM39.2765 21.5409C39.2765 21.9618 39.3252 22.4332 39.3847 22.5883C39.4756 22.8248 38.9486 22.8883 36.1129 22.9815C32.3396 23.1055 31.1636 23.3432 29.0214 24.4162C27.42 25.2181 25.0516 26.9773 24.2281 27.9764L23.6497 28.678V26.5108V24.3435L24.4152 23.8368C25.3024 23.2497 26.0953 22.2749 26.4027 21.393L26.618 20.7755H32.9473H39.2765V21.5409ZM73.6372 21.393C73.9447 22.2749 74.7375 23.2497 75.6248 23.8368L76.3903 24.3435V26.5108V28.678L75.8119 27.9764C74.9921 26.9817 72.6256 25.2218 71.0186 24.4115C68.8839 23.3352 67.7092 23.0977 63.9271 22.9776C61.0904 22.8875 60.5644 22.825 60.6552 22.5883C60.7148 22.4332 60.7634 21.9618 60.7634 21.5409V20.7755H67.0927H73.422L73.6372 21.393ZM20.7577 28.7038L20.8173 32.9209L21.3654 33.3919C21.9969 33.9347 22.9603 34.0113 23.5919 33.569C23.8227 33.4073 24.4128 32.6715 24.9031 31.9341C25.9589 30.3458 28.1209 28.2487 29.5572 27.4197C31.5334 26.2789 35.5679 25.431 35.9732 26.0711C36.4106 26.7616 36.0492 36.5329 35.5552 37.3757C35.4397 37.5732 35.3798 37.5896 35.3757 37.425C35.3657 37.0042 34.148 36.4036 33.3188 36.41C32.4027 36.4172 32.2288 36.5102 30.1745 38.0891C26.8926 40.6115 21.7315 43.6798 20.1723 44.0357C19.2085 44.2557 18.1053 43.9422 17.6048 43.3057C17.213 42.8078 17.2036 42.5797 17.2036 33.6413V24.4869H18.9509H20.6982L20.7577 28.7038ZM82.8364 33.6413C82.8364 42.5797 82.827 42.8078 82.4351 43.3057C81.9433 43.9312 80.8291 44.2559 79.9063 44.0426C78.2137 43.6513 73.4487 40.8224 69.8579 38.077C67.7775 36.4864 67.6424 36.4172 66.5954 36.4092C65.8603 36.4038 65.5742 36.5088 65.087 36.964C64.3691 37.6346 64.375 37.6455 64.0908 35.1327C63.8441 32.9514 63.8314 26.443 64.073 26.0611C64.2242 25.8218 64.5401 25.813 66.1697 26.0027C67.7846 26.1906 68.346 26.3563 69.7143 27.0487C71.6847 28.0457 73.8439 29.9891 75.1292 31.9226C75.6236 32.6664 76.2172 33.4073 76.4481 33.569C76.9337 33.9091 77.8123 33.9521 78.3544 33.6618C79.1984 33.2102 79.3203 32.5469 79.3203 28.4034V24.4869H81.0783H82.8364V33.6413ZM40.5884 26.299C40.6999 26.5438 41.0338 27.0321 41.3301 27.3843C41.8616 28.016 41.8694 28.0649 41.8969 30.8951C41.9386 35.1665 42.7922 37.6801 45.0067 40.0524C46.6331 41.7946 47.8617 42.3601 50.02 42.3601C52.1378 42.3601 53.3749 41.8021 54.9751 40.1243C57.1908 37.8016 58.3044 34.4191 58.1944 30.347L58.1338 28.1006L58.7853 27.2216C59.1435 26.7382 59.4809 26.2328 59.535 26.0984C59.5891 25.9642 59.921 25.8543 60.2728 25.8543H60.9125L61.0086 30.8842C61.1045 35.9064 61.2922 37.5824 62.0581 40.2544C62.349 41.2686 62.3468 41.2834 61.6598 43.0002C60.8664 44.9835 60.3737 47.1142 60.3708 48.5747L60.3687 49.5875L59.2476 50.1169C57.7836 50.8082 56.4881 51.9486 55.5802 53.3454C55.178 53.9644 54.7123 54.5809 54.5457 54.7151C54.3242 54.8936 53.1063 54.9593 50.02 54.9593C46.9337 54.9593 45.7158 54.8936 45.4943 54.7151C45.3276 54.5809 44.8619 53.9644 44.4598 53.3454C43.5518 51.9486 42.2564 50.8082 40.7923 50.1169L39.6713 49.5875L39.6691 48.5747C39.6662 47.1142 39.1736 44.9835 38.3801 43.0002C37.6931 41.2834 37.691 41.2686 37.9818 40.2544C38.738 37.6168 38.9304 35.8967 39.0304 30.8842L39.1308 25.8543H39.7584C40.2218 25.8543 40.4388 25.9707 40.5884 26.299ZM46.0156 31.3336C46.9241 31.7786 47.2034 31.812 50.02 31.812C53.1825 31.812 53.1032 31.828 55.1475 30.7802C55.4341 30.6333 55.288 32.6523 54.9032 34.1568C54.0921 37.3283 52.1245 39.5096 50.0626 39.5235C47.9293 39.5377 45.9646 37.3937 45.1337 34.1449C44.7514 32.6502 44.6068 30.6337 44.8924 30.7802C44.9729 30.8215 45.4784 31.0705 46.0156 31.3336ZM35.6294 51.5143C36.4008 51.8366 37.2171 52.7664 37.4917 53.6359C37.8639 54.813 38.7413 62.2617 38.7294 64.14C38.7198 65.6408 38.5776 66.5187 37.9863 68.7304L37.2554 71.4651L37.1765 77.374L37.0977 83.2829H34.3017H31.5059L31.4049 77.5694C31.3012 71.6974 31.2637 71.3706 30.3106 68.0468C29.5949 65.5504 29.5898 63.6668 30.2844 58.3964C30.712 55.1525 31.0148 53.5017 31.2768 52.9883C32.0186 51.5341 34.0392 50.8498 35.6294 51.5143ZM41.9489 54.8819C43.0283 56.5159 43.392 56.9109 44.2289 57.3584C45.0047 57.7733 45.2495 57.7916 50.02 57.7916C56.2467 57.7916 56.1443 57.8286 58.0911 54.8819C58.4386 54.3559 58.9017 53.807 59.1203 53.6619C59.5108 53.4024 59.5082 53.4679 58.965 57.5483C58.4784 61.2026 58.2842 64.7813 58.47 66.6679C58.5116 67.0886 58.3794 67.1912 57.3451 67.5416C56.2649 67.9077 55.6914 67.9387 50.02 67.9387C44.3486 67.9387 43.7751 67.9077 42.6949 67.5416C41.662 67.1918 41.5282 67.0881 41.5676 66.6679C41.7458 64.7671 41.5877 61.5743 41.1474 58.1823C40.8685 56.0336 40.5919 54.0637 40.5327 53.8045C40.4298 53.3532 40.4438 53.3458 40.8712 53.6296C41.1164 53.7923 41.6014 54.3559 41.9489 54.8819ZM37.499 87.2385C38.3245 91.3999 38.5473 93.2335 38.3 93.8305C37.8523 94.9115 37.4126 95.0031 32.6712 95.0031C28.6426 95.0031 28.3602 94.9792 27.8781 94.6001C27.1884 94.0575 26.951 93.1366 27.2866 92.3037C27.5417 91.6703 29.793 87.8178 30.5319 86.7501L30.9037 86.213H34.0995H37.2954L37.499 87.2385ZM70.5759 88.4593C72.6832 91.8879 73.0729 92.7454 72.8633 93.4918C72.7656 93.8395 72.4595 94.3217 72.1832 94.5636C71.6944 94.9908 71.5604 95.0031 67.3843 95.0031C62.626 95.0031 62.1878 94.912 61.7399 93.8305C61.4924 93.2333 61.7157 91.3982 62.542 87.2338L62.7465 86.2036L66.001 86.2571L69.2555 86.3106L70.5759 88.4593Z" fill="black"/>
</g>
</svg>
