<svg width="100" height="100" viewBox="0 0 100 100" fill="none" xmlns="http://www.w3.org/2000/svg">
<mask id="mask0_1_12266" style="mask-type:alpha" maskUnits="userSpaceOnUse" x="0" y="0" width="100" height="100">
<rect width="100" height="100" fill="white"/>
</mask>
<g mask="url(#mask0_1_12266)">
<path fill-rule="evenodd" clip-rule="evenodd" d="M76.4133 0.325106C76.1998 0.513019 71.8213 6.68818 66.6832 14.0475C61.5449 21.4067 56.8979 27.9003 56.3561 28.4777C55.3123 29.59 53.5428 30.887 52.441 31.3474C51.8367 31.6 51.7553 31.5927 51.5236 31.2665C51.183 30.7864 50.5266 30.4557 49.9145 30.4557C49.6385 30.4557 45.0002 32.6626 39.6072 35.3598C30.4092 39.96 29.7348 40.3325 28.7191 41.373C26.8756 43.2621 26.0313 45.5544 26.2268 48.1391C26.3121 49.2679 26.6713 50.4177 28.1516 54.2996C29.1918 57.0276 30.158 59.2607 30.4066 59.5119C30.6459 59.7536 31.0693 59.9514 31.3477 59.9514C31.9414 59.9514 32.8125 59.1568 32.8125 58.6149C32.8125 58.4075 32.0156 56.184 31.0416 53.6739C29.0795 48.618 28.86 47.5984 29.3623 45.8732C29.6947 44.731 30.8158 43.0256 31.0629 43.2863C31.1459 43.3738 34.4393 51.8401 38.3814 62.1001L45.5492 80.7547L48.2141 83.4587C49.6797 84.946 52.7049 87.9126 54.9367 90.0513L58.9945 93.9399H60.9334C63.1082 93.9399 63.7643 93.7348 64.0305 92.9714C64.248 92.3471 63.8902 91.3308 63.3846 91.1368C63.2027 91.0669 62.2916 91.0099 61.3598 91.0099H59.6654L53.957 85.2963L48.2484 79.5827L44.9262 70.9559L41.6041 62.3289L42.3756 60.6507C43.4246 58.369 44.2275 55.9582 44.7557 53.5053C45.1305 51.7637 45.1984 50.8501 45.2059 47.4499C45.2154 43.1691 45.0621 42.0225 43.9979 38.4139C43.7203 37.4727 43.5289 36.6697 43.5729 36.6291C43.6166 36.5885 44.9963 35.8837 46.6387 35.0631L49.625 33.5707L49.9102 34.2534C50.3529 35.3131 50.2682 36.8506 49.6883 38.2777C49.2619 39.3271 49.1924 39.7599 49.252 40.9974C49.3408 42.8509 49.8965 44.0546 51.2982 45.4303C53.2322 47.3282 55.2344 47.6728 58.4961 46.6686C59.543 46.3463 60.6305 46.0845 60.9127 46.0869C61.8859 46.0951 62.9939 46.8274 64.79 48.6497L66.5916 50.4776L66.0596 52.5287L65.5273 54.5797L63.4113 54.6774C61.0578 54.786 60.7422 54.96 60.7422 56.1494C60.7422 57.1527 61.2824 57.4695 63.1609 57.5681L64.7875 57.6535L64.4008 59.1931L64.0143 60.7328H61.9875C60.2213 60.7328 59.9107 60.783 59.5703 61.1234C59.0768 61.6171 59.0689 62.5062 59.5531 63.104C59.8832 63.5118 60.1209 63.5732 61.6105 63.6343C63.0627 63.6939 63.2818 63.7478 63.202 64.025C63.151 64.2017 63.0107 64.742 62.8906 65.2255C62.7705 65.709 62.6273 66.2584 62.5728 66.4464C62.4867 66.7435 62.2094 66.7882 60.4502 66.7882C58.4969 66.7882 58.4127 66.806 58.0221 67.3029C56.9352 68.6847 57.9279 69.7182 60.3418 69.7182C61.0992 69.7182 61.7168 69.7841 61.7143 69.8647C61.7119 69.9454 61.5527 70.6265 61.3607 71.3786L61.0117 72.7459L58.9299 72.8436C56.7016 72.9481 56.3842 73.0845 56.151 74.0369C56.058 74.4168 56.1496 74.6905 56.5111 75.1113C56.974 75.6504 57.0865 75.6805 58.9992 75.7736L61.0023 75.8713L61.2578 77.141C61.8107 79.8874 63.4064 84.0606 64.0576 84.4632C64.5658 84.7771 64.1447 84.9544 62.8906 84.9544C61.7838 84.9544 61.449 85.0289 61.1328 85.3451C60.5512 85.9268 60.6119 86.9723 61.2568 87.4795C61.7469 87.8651 62.009 87.8845 66.7518 87.8845C70.0041 87.8845 71.998 87.9642 72.4986 88.1142C73.3822 88.3791 74.8787 89.6226 75.3045 90.4463L75.5959 91.0099H72.0969C68.9693 91.0099 68.55 91.0487 68.1467 91.3753C67.5195 91.8832 67.5195 93.0666 68.1467 93.5744C68.551 93.9018 68.9715 93.9399 72.1896 93.9399H75.7812V95.0977C75.7812 96.1159 75.7191 96.3044 75.2666 96.6603C74.7629 97.0567 74.5613 97.0653 65.7441 97.0653H56.7363L49.3883 89.6913L42.04 82.3174L38.4863 73.0389C36.5316 67.9358 34.7934 63.6066 34.6234 63.4186C34.1607 62.9067 32.9154 62.9616 32.5307 63.511C32.3635 63.7497 32.2266 64.1594 32.2266 64.4213C32.2266 64.6831 33.8658 69.1686 35.8695 74.3887L39.5125 83.8801L45.977 90.4239L52.4414 96.9676L32.6486 97.0653L12.8561 97.1629L12.4826 97.6241C11.9744 98.2519 12.0139 98.9409 12.5912 99.5181L13.0729 100L44.3783 99.9488C79.1469 99.892 76.1244 100.014 77.4988 98.6082C78.5666 97.5161 78.7574 96.6937 78.6797 93.5207C78.617 90.9649 78.5645 90.6174 78.0855 89.5931C76.8516 86.9535 74.4812 85.317 71.3822 84.9648C69.2406 84.7214 67.8898 84.0983 66.7838 82.8436C65.4463 81.3263 64.5314 79.1201 63.9475 76.0038L63.6377 74.3502L66.6152 62.414L69.5928 50.4776L70.9365 47.6453L72.2803 44.8129L78.0348 39.0431C84.2756 32.7853 84.3186 32.7255 83.3096 31.7166C82.3004 30.7071 82.2459 30.7463 75.9195 37.0483L70.0855 42.8595L68.9166 45.1774L67.7477 47.4954L66.0281 45.8126C63.2428 43.0867 61.5473 42.6343 58.183 43.7196C55.4551 44.5994 54.5072 44.5328 53.2541 43.3729C52.0178 42.2284 51.8389 40.8964 52.6367 38.7762C53.0117 37.7798 53.1256 37.1061 53.1271 35.8718L53.1293 34.2647L54.6264 33.4834C57.7131 31.8725 58.2883 31.1671 69.0252 15.8289C79.4449 0.943736 79.2723 1.23459 78.1963 0.3882C77.5674 -0.106586 76.9287 -0.129245 76.4133 0.325106ZM91.6699 21.3388C85.6924 27.2375 85.4688 27.485 85.4688 28.2007C85.4688 28.741 85.5918 29.043 85.9201 29.3089C86.8385 30.0525 87.118 29.8796 90.9805 26.1774C97.3375 20.0841 100 17.2996 100 16.7441C100 15.9457 99.3002 15.2195 98.5309 15.2195C97.9275 15.2195 97.3416 15.742 91.6699 21.3388ZM41.1912 39.2946C42.323 42.7265 42.6963 47.8132 42.0977 51.6496C41.7975 53.5729 40.6936 57.4927 40.2658 58.1543C40.1588 58.32 39.2309 56.1437 37.601 51.9036C36.2256 48.326 34.767 44.5394 34.3598 43.4891L33.6191 41.5793L37.0732 39.8369C38.973 38.8786 40.5861 38.0898 40.6578 38.0841C40.7297 38.0785 40.9697 38.6233 41.1912 39.2946ZM0.404883 67.3029C-0.104688 67.9506 -0.111719 68.6298 0.385742 69.1273C0.957422 69.6991 1.3873 69.7512 4.96777 69.6829C8.13359 69.6225 8.25039 69.6057 8.61152 69.1594C9.1166 68.5347 9.08398 67.7313 8.53242 67.2129C8.10156 66.8083 7.90859 66.7882 4.44492 66.7882H0.80957L0.404883 67.3029ZM12.5143 67.3029C12.0512 67.8916 12.0211 68.1387 12.3301 68.8168C12.7266 69.6872 13.1768 69.7376 19.9986 69.6772L26.4021 69.6206L26.7752 69.1594C27.2592 68.5614 27.2514 67.6725 26.7578 67.1789C26.3822 66.8032 26.1068 66.7882 19.6432 66.7882H12.9189L12.5143 67.3029ZM12.9617 82.0512C12.5451 82.2594 12.1094 82.9856 12.1094 83.4722C12.1094 83.6138 12.2916 83.9613 12.5143 84.2444L12.9189 84.7591H16.6158C20.0521 84.7591 20.34 84.7316 20.7031 84.3684C21.1965 83.875 21.2045 82.9858 20.7207 82.3879C20.3566 81.9377 20.2658 81.9258 16.8633 81.8847C14.6988 81.8586 13.2209 81.9217 12.9617 82.0512ZM24.7896 82.4C24.1146 83.0751 24.0725 83.5437 24.6236 84.2444L25.0283 84.7591H30.2734H35.5186L35.9232 84.2444C36.3852 83.6572 36.4162 83.4082 36.1113 82.7387C35.7314 81.9051 35.2332 81.8291 30.1516 81.8291H25.3605L24.7896 82.4ZM0.479492 97.5448C0.21582 97.8085 0 98.2519 0 98.5303C0 98.8086 0.21582 99.2521 0.479492 99.5158C0.953125 99.9897 1.00117 99.9953 4.49219 99.9953C7.9832 99.9953 8.03125 99.9897 8.50488 99.5158C8.76855 99.2521 8.98438 98.8086 8.98438 98.5303C8.98438 98.2519 8.76855 97.8085 8.50488 97.5448C8.03125 97.0709 7.9832 97.0653 4.49219 97.0653C1.00117 97.0653 0.953125 97.0709 0.479492 97.5448Z" fill="black"/>
</g>
</svg>
