<svg width="100" height="100" viewBox="0 0 100 100" fill="none" xmlns="http://www.w3.org/2000/svg">
<mask id="mask0_1_12282" style="mask-type:alpha" maskUnits="userSpaceOnUse" x="0" y="0" width="100" height="100">
<rect width="100" height="100" fill="white"/>
</mask>
<g mask="url(#mask0_1_12282)">
<path fill-rule="evenodd" clip-rule="evenodd" d="M48.1566 0.187371C45.9446 0.70666 43.7717 2.54781 42.6998 4.81077C42.1331 6.00701 42.0784 6.2899 42.086 7.98023C42.0919 9.25228 42.1942 10.0621 42.4117 10.554L42.7289 11.2718L41.388 12.2692C35.3322 16.7726 33.6862 24.9959 37.5343 31.5221C38.655 33.4227 40.9242 35.6089 42.9085 36.6994L44.508 37.5786L44.5139 39.3625L44.5195 41.1466L43.6658 41.3615C40.6656 42.117 36.673 44.3549 34.4428 46.5311C33.0595 47.8809 32.9321 48.2963 33.6465 49.127C34.3525 49.9479 35.1556 49.854 36.2004 48.8285L37.0463 47.9984L37.4979 48.6495C39.4493 51.4636 42.389 53.5384 45.8005 54.5092C47.804 55.0795 51.3786 55.1229 53.3105 54.6003C56.8882 53.6326 59.4942 51.7535 62.0348 48.3096L62.4565 47.7377L64.0002 49.3007C67.3445 52.6868 69.173 56.5244 69.7211 61.3084C69.9378 63.1992 69.9788 68.6623 69.7901 70.4695L69.6645 71.6704H68.5203C67.1407 71.6704 66.5945 72.082 66.5945 73.1214C66.5945 73.6122 66.732 73.8994 67.1093 74.1959C67.5926 74.5763 67.8721 74.6009 71.7001 74.6009H75.7761V76.7162V78.8314L73.8714 79.0743C72.8238 79.2079 70.7807 79.5746 69.3312 79.8895C67.8817 80.2043 66.6254 80.462 66.539 80.462C66.0878 80.462 64.44 78.5757 63.9338 77.4795L63.3712 76.2616L63.2626 67.8607C63.2028 63.2402 63.1367 59.4335 63.116 59.4011C63.0951 59.3686 62.7753 59.2156 62.4053 59.0611C61.7001 58.7665 61.2555 58.8345 60.6851 59.3245C60.3698 59.5952 60.3432 60.2429 60.3432 67.6546C60.3432 74.2748 60.3965 75.8962 60.6454 76.8555C61.0594 78.4503 61.7265 79.8532 62.4782 80.7093C63.0707 81.3841 63.1362 81.8296 62.6427 81.8296C62.1102 81.8296 56.6158 84.1761 53.496 85.7359L50.0676 87.4501L48.3192 86.4993C46.0099 85.243 42.2859 83.5658 39.1473 82.3682C37.7505 81.8352 36.5749 81.3677 36.5346 81.3294C36.4944 81.2913 36.697 80.9799 36.9849 80.6378C37.6697 79.8239 38.3423 78.4802 38.7882 77.0346C39.1125 75.9835 39.1473 75.0786 39.1473 67.6972V59.5235L38.6861 59.1498C38.0883 58.6653 37.1992 58.6729 36.7054 59.1668C36.3287 59.5435 36.3147 59.8191 36.3131 66.835C36.3117 74.3067 36.1963 75.887 35.5401 77.4179C35.1293 78.3764 33.7544 79.9896 33.1976 80.1662C33.0071 80.2266 31.5428 80.015 29.9434 79.6957C28.344 79.3765 26.3981 79.0553 25.6191 78.9819L24.2027 78.8486V76.7248V74.6009H28.0971C30.239 74.6009 32.2181 74.5148 32.4949 74.4095C33.4238 74.0562 33.6346 72.7301 32.8817 71.9771C32.6629 71.7583 32.1929 71.6704 31.2419 71.6704H29.9086L29.7738 68.8864C29.5406 64.0668 30.1007 59.175 31.2243 56.2187C31.4453 55.6375 31.626 54.9793 31.626 54.7562C31.6264 53.8059 30.0372 53.136 29.2274 53.7453C28.7801 54.0819 28.037 56.1538 27.5404 58.4494C27.0399 60.7626 26.6949 65.5575 26.7787 69.0325L26.84 71.5727L25.8275 71.6313L24.815 71.6899L24.9261 70.6131C25.2209 67.7562 22.4055 65.4178 19.6127 66.1999C18.4488 66.5257 17.2775 67.5663 16.8684 68.6375C16.5474 69.4778 16.5431 71.0898 16.859 72.1588C16.9536 72.479 16.8022 72.6297 16.0205 72.9928C13.62 74.1082 11.9164 76.8475 11.9001 79.6174C11.8964 80.2697 11.9988 80.5149 12.4102 80.8384C12.6933 81.0612 13.1778 81.2434 13.4868 81.2434H14.0488L13.1649 82.3289C9.76942 86.4979 9.50257 91.8623 12.4938 95.8146L13.4427 97.0683H7.19017H0.937869L0.458471 97.5479C-0.152986 98.1592 -0.152791 98.9081 0.458862 99.5198L0.939041 100L33.99 99.9506L67.0407 99.9011L67.4259 99.3852C67.7637 98.9327 67.7825 98.7827 67.5779 98.1628C67.4496 97.774 67.1815 97.3688 66.9825 97.2621C66.7533 97.1396 61.9029 97.0683 53.7877 97.0683C42.1835 97.0683 40.9795 97.0392 41.2083 96.7635C41.6588 96.2206 48.6433 91.6769 51.4058 90.1296C60.5913 84.9846 70.4854 81.8256 77.5343 81.7876C80.3838 81.7723 81.8237 82.1367 83.5137 83.3007C87.1631 85.8143 87.7437 90.9972 84.7564 94.3914C82.9421 96.4527 81.2056 97.0683 77.2057 97.0683C74.6691 97.0683 74.3723 97.1046 74.018 97.459C73.4999 97.9772 73.4999 99.09 74.018 99.6081C74.4005 99.9906 74.6691 99.9988 86.7247 99.9988H99.041L99.5204 99.5192C99.7841 99.2555 100 98.812 100 98.5336C100 98.2552 99.7841 97.8117 99.5204 97.5479L99.041 97.0683H92.7692H86.4974L87.2692 96.1403C88.8295 94.2646 89.5265 92.1985 89.5265 89.4489C89.5265 86.6042 88.623 84.1171 86.9084 82.2412C86.4802 81.7727 86.1299 81.3566 86.1299 81.3165C86.1299 81.2763 86.3399 81.2434 86.5966 81.2434C86.8533 81.2434 87.271 81.0749 87.5245 80.8689C87.9287 80.5405 87.9818 80.3414 87.9549 79.2571C87.8912 76.6986 86.3815 74.3333 84.0033 73.0657L82.8331 72.4419L83.1345 71.72C83.5594 70.7031 83.3975 69.2097 82.7411 68.0895C82.0779 66.9577 80.8559 66.2096 79.4482 66.0739C78.5767 65.9897 78.244 66.0612 77.3401 66.5265C75.7498 67.3455 75.1196 68.3526 75.025 70.2266L74.9512 71.6886L73.9089 71.6307L72.8669 71.5727L72.7747 66.0047C72.7083 61.9946 72.5966 60.0284 72.375 58.9771C71.1943 53.3729 68.0542 48.4047 63.5927 45.0819C61.7273 43.6924 58.4492 42.0058 56.5826 41.475L55.264 41.1001V39.3297V37.5594L55.9532 37.3101C57.1648 36.8719 59.4959 35.1683 60.7691 33.7904C62.2301 32.2091 63.4685 29.9742 64.0826 27.8101C64.6519 25.8045 64.6953 22.4072 64.1764 20.4838C63.6914 18.6858 62.4841 16.2852 61.3825 14.9279C60.5225 13.8686 58.5563 12.0744 57.7296 11.5946C57.4123 11.4103 57.4117 11.3261 57.7202 10.1293C58.8446 5.76573 56.3248 1.38693 52.0485 0.273333C50.7757 -0.0580122 49.3375 -0.0898573 48.1566 0.187371ZM52.2417 3.44377C53.9073 4.30164 55.0567 6.1172 55.0643 7.90228C55.07 9.19836 54.732 10.1918 54.337 10.0402C53.7682 9.82197 50.7107 9.34781 49.915 9.35465C49.1479 9.3611 46.6581 9.77176 45.755 10.0408C45.3896 10.1496 45.3006 10.0617 45.121 9.4156C44.4019 6.82541 45.8087 4.1262 48.3774 3.16733C49.3596 2.80082 51.2571 2.9364 52.2417 3.44377ZM53.6582 12.9625C55.2468 13.4668 56.8282 14.4045 58.0448 15.5639L58.7745 16.2592L58.257 17.1504C56.9616 19.3821 54.8387 21.6443 52.8398 22.923C49.2707 25.2063 43.9737 25.7982 39.4741 24.4166L38.3659 24.0765L38.429 23.1104C38.7787 17.7639 43.0425 13.2413 48.5243 12.4028C49.6968 12.2232 52.1838 12.4946 53.6582 12.9625ZM61.1459 20.5327C61.8144 22.5872 61.7814 25.4431 61.0637 27.6148C59.839 31.3211 56.9171 34.0955 53.0174 35.2545C51.4435 35.7222 48.5354 35.7222 46.9615 35.2545C43.7135 34.2892 41.0585 32.0946 39.6158 29.1828C39.1616 28.2661 38.8275 27.4788 38.8732 27.4331C38.9189 27.3874 39.5706 27.4905 40.3216 27.6622C41.2505 27.8748 42.6549 27.9764 44.7149 27.9795C47.2619 27.9836 48.0066 27.9137 49.4032 27.5388C51.4866 26.9796 53.5798 26.0192 55.1351 24.9087C56.5715 23.8832 59.0419 21.3382 59.8566 20.0446C60.1779 19.5343 60.4958 19.1168 60.563 19.1166C60.63 19.1164 60.8923 19.7537 61.1459 20.5327ZM52.3337 40.6277C52.3337 43.287 52.4032 43.381 54.8524 44.0332C55.8618 44.3018 57.4266 44.868 58.3297 45.2913L59.972 46.0609L59.6313 46.6064C57.7251 49.6568 54.2325 51.7496 50.5253 52.063C46.6065 52.3944 42.214 50.3315 40.0069 47.1231L39.4292 46.2836L40.5582 45.7165C42.0169 44.9832 44.1265 44.2303 45.5412 43.938C47.2344 43.5881 47.4498 43.2128 47.4498 40.6146V38.5261L49.8918 38.5345L52.3337 38.5427V40.6277ZM21.5391 69.3402C22.1416 69.8142 22.2019 70.4675 21.7003 71.087C20.9939 71.9593 19.5143 71.408 19.5143 70.2725C19.5143 69.6401 20.1183 68.9352 20.66 68.9352C20.8604 68.9352 21.256 69.1175 21.5391 69.3402ZM80.0126 69.36C80.8708 70.1664 80.358 71.5239 79.1948 71.5239C78.067 71.5239 77.5103 70.1315 78.3157 69.326C78.824 68.8176 79.4484 68.8301 80.0126 69.36ZM21.2724 76.4569V78.3129H18.1468C16.4277 78.3129 15.0211 78.2647 15.0211 78.2055C15.0211 77.6336 16.4224 76.056 17.3654 75.5664C18.1808 75.1431 19.9642 74.6226 20.6375 74.6115L21.2724 74.6009V76.4569ZM81.7022 75.1919C82.9788 75.6702 84.0771 76.571 84.5766 77.5504L84.9658 78.3129H81.836H78.7064V76.4317V74.5505L79.6998 74.6824C80.246 74.7549 81.147 74.9842 81.7022 75.1919ZM26.84 82.148C32.2959 82.898 39.386 85.2678 45.5897 88.4146L47.1482 89.2051L46.4688 89.6193C45.864 89.9882 45.4953 90.0337 43.1099 90.0343C38.435 90.0356 34.3363 90.8308 31.1378 92.357C29.1251 93.3174 27.7492 94.4214 26.7015 95.9168L25.8633 97.1132L22.4446 97.0146C20.0321 96.945 18.7809 96.8257 18.1935 96.6094C15.285 95.538 13.4225 92.7286 13.3817 89.3512C13.3422 86.1097 15.0813 83.5703 18.1372 82.4065C20.2357 81.6074 22.4342 81.5422 26.84 82.148ZM41.0911 93.1383C40.9891 93.2332 39.7754 94.1563 38.3942 95.1896L35.8829 97.0683H32.7778C30.9585 97.0683 29.6726 96.9919 29.6726 96.8837C29.6726 96.7821 30.1679 96.3445 30.7731 95.9111C32.5633 94.6289 35.6266 93.6175 39.0496 93.1781C40.8557 92.9462 41.3067 92.9374 41.0911 93.1383Z" fill="black"/>
</g>
</svg>
