<svg width="24" height="24" viewBox="0 0 24 24" fill="none" xmlns="http://www.w3.org/2000/svg">
<mask id="mask0_1_12881" style="mask-type:alpha" maskUnits="userSpaceOnUse" x="0" y="0" width="24" height="24">
<rect width="24" height="24" fill="white"/>
</mask>
<g mask="url(#mask0_1_12881)">
<path d="M13.4256 2.40002C14.551 2.40188 15.1213 2.40783 15.6141 2.4225L15.8082 2.42885C16.0324 2.43682 16.2536 2.44682 16.5203 2.45932C17.5844 2.50848 18.3103 2.67682 18.9478 2.92432C19.6069 3.17848 20.1636 3.52182 20.7194 4.07765C21.2744 4.63348 21.6178 5.19182 21.8728 5.84932C22.1194 6.48598 22.2878 7.21265 22.3378 8.27682C22.3497 8.54348 22.3593 8.76468 22.3672 8.98893L22.3735 9.18301C22.3881 9.67576 22.3948 10.2461 22.3969 11.3715L22.3977 12.1172C22.3978 12.2083 22.3978 12.3023 22.3978 12.3993L22.3977 12.6814L22.3971 13.4271C22.3952 14.5525 22.3893 15.1228 22.3746 15.6156L22.3682 15.8097C22.3603 16.0339 22.3503 16.2551 22.3378 16.5218C22.2886 17.5859 22.1194 18.3118 21.8728 18.9493C21.6186 19.6084 21.2744 20.1651 20.7194 20.7209C20.1636 21.2759 19.6044 21.6193 18.9478 21.8743C18.3103 22.1209 17.5844 22.2893 16.5203 22.3393C16.2536 22.3512 16.0324 22.3608 15.8082 22.3687L15.6141 22.375C15.1213 22.3896 14.551 22.3963 13.4256 22.3984L12.6799 22.3992C12.5888 22.3993 12.4948 22.3993 12.3978 22.3993L12.1157 22.3992L11.37 22.3986C10.2446 22.3967 9.67418 22.3908 9.18143 22.3761L8.98735 22.3697C8.7631 22.3618 8.5419 22.3518 8.27524 22.3393C7.21107 22.2901 6.48607 22.1209 5.84774 21.8743C5.1894 21.6201 4.6319 21.2759 4.07607 20.7209C3.52024 20.1651 3.17774 19.6059 2.92274 18.9493C2.67524 18.3118 2.50774 17.5859 2.45774 16.5218C2.44586 16.2551 2.43617 16.0339 2.42832 15.8097L2.42203 15.6156C2.4074 15.1228 2.40073 14.5525 2.39857 13.4271L2.39844 11.3715C2.4003 10.2461 2.40625 9.67576 2.42092 9.18301L2.42727 8.98893C2.43524 8.76468 2.44524 8.54348 2.45774 8.27682C2.5069 7.21182 2.67524 6.48682 2.92274 5.84932C3.1769 5.19098 3.52024 4.63348 4.07607 4.07765C4.6319 3.52182 5.19024 3.17932 5.84774 2.92432C6.48524 2.67682 7.21024 2.50932 8.27524 2.45932C8.5419 2.44744 8.7631 2.43775 8.98735 2.4299L9.18143 2.42361C9.67418 2.40898 10.2446 2.40231 11.37 2.40015L13.4256 2.40002ZM12.3978 7.39932C9.63484 7.39932 7.39774 9.63886 7.39774 12.3993C7.39774 15.1622 9.63727 17.3993 12.3978 17.3993C15.1607 17.3993 17.3978 15.1597 17.3978 12.3993C17.3978 9.63643 15.1582 7.39932 12.3978 7.39932ZM12.3978 9.39932C14.0547 9.39932 15.3978 10.7419 15.3978 12.3993C15.3978 14.0562 14.0551 15.3993 12.3978 15.3993C10.7409 15.3993 9.39774 14.0566 9.39774 12.3993C9.39774 10.7424 10.7404 9.39932 12.3978 9.39932ZM17.6478 5.89932C16.9585 5.89932 16.3978 6.45922 16.3978 7.14847C16.3978 7.83771 16.9577 8.39848 17.6478 8.39848C18.337 8.39848 18.8978 7.83858 18.8978 7.14847C18.8978 6.45922 18.3361 5.89845 17.6478 5.89932Z" fill="white"/>
</g>
</svg>
