<svg width="20" height="20" viewBox="0 0 20 20" fill="none" xmlns="http://www.w3.org/2000/svg">
<mask id="mask0_1_13108" style="mask-type:alpha" maskUnits="userSpaceOnUse" x="0" y="0" width="20" height="20">
<rect width="20" height="20" fill="white"/>
</mask>
<g mask="url(#mask0_1_13108)">
<path d="M10.0013 7.49984C8.62015 7.49984 7.5013 8.61909 7.5013 9.99984C7.5013 11.3809 8.62057 12.4998 10.0013 12.4998C11.3824 12.4998 12.5013 11.3806 12.5013 9.99984C12.5013 8.61875 11.3821 7.49984 10.0013 7.49984ZM10.0013 5.83317C12.3017 5.83317 14.168 7.69742 14.168 9.99984C14.168 12.3003 12.3037 14.1665 10.0013 14.1665C7.70091 14.1665 5.83464 12.3023 5.83464 9.99984C5.83464 7.69945 7.69889 5.83317 10.0013 5.83317ZM15.418 5.62413C15.418 6.19922 14.9507 6.66581 14.3763 6.66581C13.8012 6.66581 13.3347 6.1985 13.3347 5.62413C13.3347 5.04975 13.8019 4.58317 14.3763 4.58317C14.9499 4.58245 15.418 5.04975 15.418 5.62413ZM10.0013 3.33317C7.93924 3.33317 7.60314 3.33863 6.64404 3.38134C5.99061 3.41201 5.55259 3.4999 5.14562 3.6579C4.78395 3.79816 4.52306 3.96565 4.24509 4.24363C3.96604 4.52267 3.79885 4.78286 3.65915 5.1447C3.50079 5.5526 3.41293 5.98993 3.3828 6.64246C3.33968 7.5625 3.33464 7.88405 3.33464 9.99984C3.33464 12.0619 3.34009 12.398 3.38279 13.357C3.41349 14.0102 3.50149 14.4488 3.6591 14.8548C3.79974 15.217 3.96757 15.4785 4.2442 15.7552C4.52434 16.0349 4.78531 16.2027 5.14371 16.341C5.55564 16.5003 5.99339 16.5883 6.64392 16.6183C7.56397 16.6614 7.88551 16.6665 10.0013 16.6665C12.0634 16.6665 12.3995 16.661 13.3585 16.6183C14.0102 16.5878 14.4492 16.4995 14.8563 16.342C15.2175 16.2018 15.4798 16.0333 15.7567 15.7569C16.0368 15.4763 16.2042 15.216 16.3427 14.8568C16.5016 14.4463 16.5897 14.008 16.6198 13.3573C16.6629 12.4372 16.668 12.1156 16.668 9.99984C16.668 7.93777 16.6625 7.60168 16.6198 6.64265C16.5892 5.99072 16.5009 5.55108 16.3432 5.14415C16.2033 4.78349 16.0352 4.5218 15.7575 4.24363C15.478 3.96413 15.2185 3.79728 14.8564 3.65769C14.4488 3.49945 14.0108 3.41147 13.3587 3.38135C12.4387 3.33821 12.1171 3.33317 10.0013 3.33317ZM10.0013 1.6665C12.2652 1.6665 12.5478 1.67484 13.4367 1.7165C14.3235 1.75748 14.9284 1.89775 15.4597 2.104C16.0089 2.31581 16.4728 2.60192 16.936 3.06511C17.3985 3.52831 17.6847 3.99359 17.8972 4.5415C18.1027 5.07206 18.243 5.67761 18.2847 6.56442C18.3242 7.45331 18.3347 7.73595 18.3347 9.99984C18.3347 12.2638 18.3263 12.5463 18.2847 13.4353C18.2437 14.3221 18.1027 14.9269 17.8972 15.4582C17.6853 16.0075 17.3985 16.4713 16.936 16.9346C16.4728 17.3971 16.0068 17.6832 15.4597 17.8957C14.9284 18.1013 14.3235 18.2415 13.4367 18.2832C12.5478 18.3228 12.2652 18.3332 10.0013 18.3332C7.73741 18.3332 7.45477 18.3248 6.56589 18.2832C5.67908 18.2422 5.07491 18.1013 4.54297 17.8957C3.99435 17.6838 3.52977 17.3971 3.06658 16.9346C2.60339 16.4713 2.31797 16.0054 2.10547 15.4582C1.89922 14.9269 1.75964 14.3221 1.71797 13.4353C1.67839 12.5463 1.66797 12.2638 1.66797 9.99984C1.66797 7.73595 1.6763 7.45331 1.71797 6.56442C1.75894 5.67692 1.89922 5.07275 2.10547 4.5415C2.31727 3.9929 2.60339 3.52831 3.06658 3.06511C3.52977 2.60192 3.99505 2.3165 4.54297 2.104C5.07422 1.89775 5.67839 1.75817 6.56589 1.7165C7.45477 1.67692 7.73741 1.6665 10.0013 1.6665Z" fill="white"/>
</g>
</svg>
