<svg width="20" height="20" viewBox="0 0 20 20" fill="none" xmlns="http://www.w3.org/2000/svg">
<mask id="mask0_1_13416" style="mask-type:alpha" maskUnits="userSpaceOnUse" x="0" y="0" width="20" height="20">
<rect width="20" height="20" fill="white"/>
</mask>
<g mask="url(#mask0_1_13416)">
<path d="M11.1893 2C12.1271 2.00155 12.6024 2.00651 13.013 2.01873L13.1748 2.02403C13.3616 2.03067 13.5459 2.039 13.7682 2.04942C14.6549 2.09038 15.2599 2.23067 15.7911 2.43692C16.3404 2.64872 16.8043 2.93483 17.2674 3.39803C17.7299 3.86122 18.0161 4.3265 18.2286 4.87442C18.4341 5.40497 18.5744 6.01053 18.6161 6.89733C18.626 7.11955 18.634 7.30388 18.6406 7.49076L18.6459 7.65249C18.658 8.06312 18.6636 8.53843 18.6653 9.47627L18.666 10.0977C18.6661 10.1736 18.6661 10.2519 18.6661 10.3328L18.666 10.5679L18.6655 11.1893C18.6639 12.1271 18.659 12.6024 18.6468 13.013L18.6414 13.1748C18.6348 13.3616 18.6265 13.5459 18.6161 13.7682C18.5751 14.6549 18.4341 15.2599 18.2286 15.7911C18.0168 16.3404 17.7299 16.8043 17.2674 17.2674C16.8043 17.7299 16.3383 18.0161 15.7911 18.2286C15.2599 18.4341 14.6549 18.5744 13.7682 18.6161C13.5459 18.626 13.3616 18.634 13.1748 18.6406L13.013 18.6459C12.6024 18.658 12.1271 18.6636 11.1893 18.6653L10.5679 18.666C10.4919 18.6661 10.4136 18.6661 10.3328 18.6661L10.0977 18.666L9.47627 18.6655C8.53843 18.6639 8.06312 18.659 7.65249 18.6468L7.49076 18.6414C7.30388 18.6348 7.11955 18.6265 6.89733 18.6161C6.01053 18.5751 5.40636 18.4341 4.87442 18.2286C4.3258 18.0168 3.86122 17.7299 3.39803 17.2674C2.93483 16.8043 2.64942 16.3383 2.43692 15.7911C2.23067 15.2599 2.09108 14.6549 2.04942 13.7682C2.03952 13.5459 2.03144 13.3616 2.0249 13.1748L2.01966 13.013C2.00747 12.6024 2.00191 12.1271 2.00011 11.1893L2 9.47627C2.00155 8.53843 2.00651 8.06312 2.01873 7.65249L2.02403 7.49076C2.03067 7.30388 2.039 7.11955 2.04942 6.89733C2.09038 6.00983 2.23067 5.40567 2.43692 4.87442C2.64872 4.3258 2.93483 3.86122 3.39803 3.39803C3.86122 2.93483 4.3265 2.64942 4.87442 2.43692C5.40567 2.23067 6.00983 2.09108 6.89733 2.04942C7.11955 2.03952 7.30388 2.03144 7.49076 2.0249L7.65249 2.01966C8.06312 2.00747 8.53843 2.00191 9.47627 2.00011L11.1893 2ZM10.3328 6.16608C8.03033 6.16608 6.16608 8.03236 6.16608 10.3328C6.16608 12.6352 8.03236 14.4994 10.3328 14.4994C12.6352 14.4994 14.4994 12.6331 14.4994 10.3328C14.4994 8.03033 12.6331 6.16608 10.3328 6.16608ZM10.3328 7.83275C11.7135 7.83275 12.8328 8.9516 12.8328 10.3328C12.8328 11.7135 11.7139 12.8328 10.3328 12.8328C8.95202 12.8328 7.83275 11.7139 7.83275 10.3328C7.83275 8.95202 8.9516 7.83275 10.3328 7.83275ZM14.7078 4.91608C14.1333 4.91608 13.6661 5.38267 13.6661 5.95704C13.6661 6.53141 14.1327 6.99872 14.7078 6.99872C15.2821 6.99872 15.7494 6.53213 15.7494 5.95704C15.7494 5.38267 15.2814 4.91536 14.7078 4.91608Z" fill="#181818"/>
</g>
</svg>
