<svg width="24" height="24" viewBox="0 0 24 24" fill="none" xmlns="http://www.w3.org/2000/svg">
<mask id="mask0_1_12878" style="mask-type:alpha" maskUnits="userSpaceOnUse" x="0" y="0" width="24" height="24">
<rect width="24" height="24" fill="white"/>
</mask>
<g mask="url(#mask0_1_12878)">
<path d="M6.39849 4.40093C6.39812 5.21524 5.90409 5.94802 5.14935 6.25373C4.39461 6.55945 3.52988 6.37705 2.96291 5.79255C2.39594 5.20804 2.23996 4.33815 2.56851 3.59307C2.89707 2.84799 3.64455 2.3765 4.45849 2.40093C5.53956 2.43338 6.39898 3.31937 6.39849 4.40093ZM6.45849 7.88093H2.45849V20.4009H6.45849V7.88093ZM12.7785 7.88093H8.79849V20.4009H12.7385V13.8309C12.7385 10.1709 17.5085 9.8309 17.5085 13.8309V20.4009H21.4585V12.4709C21.4585 6.30093 14.3985 6.53093 12.7385 9.5609L12.7785 7.88093Z" fill="white"/>
</g>
</svg>
