<svg width="24" height="24" viewBox="0 0 24 24" fill="none" xmlns="http://www.w3.org/2000/svg">
<mask id="mask0_1_12884" style="mask-type:alpha" maskUnits="userSpaceOnUse" x="0" y="0" width="24" height="24">
<rect width="24" height="24" fill="white"/>
</mask>
<g mask="url(#mask0_1_12884)">
<path d="M22.7828 5.56169C22.0194 5.89939 21.2098 6.12119 20.3809 6.21975C21.2542 5.69696 21.9077 4.87454 22.2196 3.90569C21.399 4.39325 20.5008 4.73641 19.5641 4.92025C18.7734 4.0767 17.6683 3.59867 16.5121 3.59998C14.2029 3.59998 12.33 5.47225 12.33 7.78247C12.33 8.11022 12.3676 8.42806 12.4379 8.73473C8.96079 8.55968 5.88039 6.89569 3.8171 4.36505C3.44561 5.00331 3.25037 5.72882 3.25136 6.46731C3.25136 7.91823 3.98992 9.19888 5.11181 9.94864C4.44769 9.92764 3.7982 9.74828 3.2175 9.42537C3.21686 9.44294 3.21686 9.46051 3.21686 9.47712C3.21686 11.504 4.65851 13.1948 6.57231 13.5787C6.21312 13.6759 5.84264 13.725 5.47054 13.7247C5.20029 13.7247 4.93803 13.6998 4.68311 13.6509C5.21563 15.3121 6.75918 16.5215 8.58992 16.5547C7.10845 17.7174 5.27901 18.3482 3.39575 18.3455C3.06244 18.3458 2.72941 18.3261 2.39844 18.2867C4.31036 19.5158 6.53584 20.1681 8.80874 20.1657C16.5019 20.1657 20.7083 13.7931 20.7083 8.26675C20.7083 8.08594 20.7039 7.9045 20.6959 7.72561C21.5146 7.13409 22.2213 6.40131 22.7828 5.56169Z" fill="white"/>
</g>
</svg>
