<svg width="20" height="20" viewBox="0 0 20 20" fill="none" xmlns="http://www.w3.org/2000/svg">
<mask id="mask0_1_13419" style="mask-type:alpha" maskUnits="userSpaceOnUse" x="0" y="0" width="20" height="20">
<rect width="20" height="20" fill="white"/>
</mask>
<g mask="url(#mask0_1_13419)">
<path d="M18.987 4.63476C18.3508 4.91618 17.6762 5.10101 16.9854 5.18314C17.7132 4.74749 18.2577 4.06214 18.5177 3.25476C17.8338 3.66106 17.0853 3.94703 16.3047 4.10023C15.6458 3.39727 14.7249 2.99891 13.7614 3C11.8371 3 10.2763 4.56023 10.2763 6.48541C10.2763 6.75854 10.3077 7.0234 10.3662 7.27896C7.46863 7.13309 4.90163 5.74643 3.18222 3.63756C2.87264 4.16944 2.70994 4.77404 2.71077 5.38944C2.71077 6.59854 3.32623 7.66575 4.26114 8.29055C3.70771 8.27305 3.16647 8.12359 2.68255 7.85449C2.68202 7.86913 2.68202 7.88378 2.68202 7.89762C2.68202 9.58672 3.88339 10.9957 5.47823 11.3156C5.1789 11.3966 4.87017 11.4376 4.56008 11.4373C4.33488 11.4373 4.11633 11.4166 3.90389 11.3758C4.34766 12.7601 5.63395 13.768 7.15957 13.7956C5.92501 14.7646 4.40048 15.2902 2.83109 15.288C2.55333 15.2882 2.27581 15.2718 2 15.239C3.59327 16.2632 5.44783 16.8068 7.34192 16.8048C13.7529 16.8048 17.2582 11.4943 17.2582 6.88898C17.2582 6.7383 17.2546 6.5871 17.2479 6.43803C17.9302 5.94509 18.5191 5.33444 18.987 4.63476Z" fill="#181818"/>
</g>
</svg>
