<svg width="100" height="100" viewBox="0 0 100 100" fill="none" xmlns="http://www.w3.org/2000/svg">
<mask id="mask0_1_13571" style="mask-type:alpha" maskUnits="userSpaceOnUse" x="0" y="0" width="100" height="100">
<rect width="100" height="100" fill="white"/>
</mask>
<g mask="url(#mask0_1_13571)">
<path fill-rule="evenodd" clip-rule="evenodd" d="M91.9444 0.23239C90.6265 0.654105 89.2506 2.23139 88.7103 3.93993C88.6087 4.26144 87.7442 4.28176 74.1827 4.28176C58.49 4.28176 58.5742 4.27648 56.5234 5.39279C56.0058 5.67426 55.2082 6.27587 54.7508 6.72943C54.2933 7.18298 51.4161 11.081 48.3569 15.3915C43.0158 22.9171 42.7699 23.2287 42.1702 23.2287C41.7833 23.2287 41.317 23.4211 40.9447 23.7344L40.3437 24.2401L40.3373 28.9594L40.3308 33.6788L38.6281 34.496C36.5352 35.5006 35.194 36.6615 33.9127 38.5772C32.4512 40.7624 32.0973 42.0598 31.9916 45.6206C31.9072 48.4654 31.8869 48.5849 31.4599 48.7795C30.6083 49.1676 29.5354 50.2861 29.0832 51.257C28.7126 52.0528 28.6277 52.5626 28.6269 53.993C28.6265 54.9599 28.7171 56.0783 28.8283 56.4786C29.1375 57.5919 30.1684 58.7954 31.3355 59.405L32.3797 59.9506H48.6292H64.8784L65.9103 59.4362C67.1005 58.8432 68.1404 57.5634 68.4596 56.2993C68.7604 55.1083 68.7127 52.7337 68.368 51.7217C67.9828 50.591 67.0706 49.4934 66.1082 49.0025L65.3458 48.6134L65.3425 46.3224C65.3382 43.4634 64.9849 41.7388 63.9893 39.7189C62.7872 37.2799 60.6116 35.2461 58.1233 34.2353L57.0443 33.797L56.9467 29.0501C56.893 26.4391 56.7769 24.1915 56.6886 24.0551C56.5824 23.8908 57.6325 22.2274 59.8018 19.1231L63.0751 14.4389H75.8911H88.7068L88.9621 15.145C89.2971 16.071 90.4151 17.2918 91.409 17.8167C92.4907 18.388 97.1044 18.5709 97.865 18.0726C98.7127 17.5171 98.776 16.8104 98.7106 8.61064L98.6494 0.92698L98.1013 0.455651C97.5812 0.00854258 97.4275 -0.0145062 95.0737 0.00444068C93.7099 0.0153791 92.3018 0.117927 91.9444 0.23239ZM95.2312 9.16498V15.0249H94.4436C93.2447 15.0249 92.3919 14.5895 92.1323 13.8447C91.9942 13.4487 91.9106 11.6693 91.9106 9.12963C91.9106 3.73347 92.0696 3.3473 94.3034 3.31742L95.2312 3.30511V9.16498ZM88.59 9.35504V10.9124L75.3564 10.9665L62.1229 11.0206L61.4209 11.4572C60.9232 11.7668 59.5654 13.5423 56.7535 17.5612L52.7877 23.2287H49.8625C47.5508 23.2287 46.9771 23.1775 47.1277 22.9845C47.2324 22.8503 49.4732 19.7079 52.107 16.0015C54.741 12.2951 57.0627 9.11361 57.2666 8.93157C57.4705 8.74952 58.0313 8.42176 58.5128 8.20338C59.3678 7.81565 59.7313 7.80608 73.9891 7.80198L88.59 7.79768V9.35504ZM53.6261 29.9675V33.1905H48.6452H43.6643V29.9675V26.7446H48.6452H53.6261V29.9675ZM55.677 36.9718C58.4077 37.7014 60.4116 39.5398 61.4105 42.2319C61.7566 43.1645 61.8299 43.7878 61.8299 45.7966V48.2308H48.5475H35.2651L35.2685 46.424C35.2728 44.2113 35.6611 42.2848 36.3627 40.9956C37.347 39.1873 39.6923 37.3824 41.6614 36.9185C42.9076 36.6247 54.5435 36.6691 55.677 36.9718ZM18.1725 40.4862C16.3434 41.338 15.3416 42.9387 15.3416 45.0094C15.3416 45.9691 15.4592 46.458 15.8871 47.2772C18.2063 51.7164 24.8385 50.3675 25.2629 45.3702C25.5848 41.5802 21.6472 38.8681 18.1725 40.4862ZM21.3272 43.8105C22.383 44.7186 21.897 46.3045 20.4762 46.5887C19.9496 46.694 19.7552 46.6191 19.256 46.1201C18.6233 45.4874 18.5297 45.0239 18.8798 44.2557C19.3112 43.3089 20.494 43.0938 21.3272 43.8105ZM85.7577 51.7426C83.0192 52.3276 81.1245 54.1655 80.4559 56.8853C80.1615 58.083 80.1574 58.3467 80.4139 59.5413L80.6987 60.8676L79.8965 61.7536C78.9974 62.7465 78.6272 63.7392 78.6302 65.1494C78.6337 66.9705 79.9836 68.9322 81.7392 69.6676C82.7969 70.1106 84.6748 70.0459 85.7411 69.5297C87.3319 68.7597 88.59 66.9193 88.59 65.3625C88.59 64.9477 88.7687 64.7806 89.6389 64.3822C91.1263 63.7013 92.1967 62.6527 92.9341 61.1538C93.4955 60.0131 93.5701 59.6745 93.564 58.2938C93.5584 57.0034 93.4619 56.5212 93.0157 55.5556C91.7606 52.8392 88.5415 51.148 85.7577 51.7426ZM64.7747 52.2509C65.189 52.6919 65.2482 52.9382 65.2482 54.221C65.2482 55.5853 65.2101 55.7199 64.7001 56.1586L64.152 56.63H48.6192H33.0864L32.5155 56.059C32.0086 55.5521 31.9445 55.3535 31.9445 54.2913C31.9445 53.0943 32.2956 52.0686 32.7706 51.8774C32.9071 51.8225 40.0573 51.7706 48.66 51.7622L64.301 51.7467L64.7747 52.2509ZM6.52813 53.6233C4.62817 54.2821 2.74383 56.2272 2.2264 58.0643C2.10061 58.5108 1.99865 59.4556 2.00001 60.1638C2.00294 61.7636 2.68347 63.3753 3.87595 64.606C4.68774 65.444 6.26229 66.3964 6.83558 66.3964C6.99888 66.3964 7.25222 66.682 7.39852 67.0312C8.3947 69.4086 11.324 70.6067 13.8123 69.6549C14.8316 69.265 16.1885 67.9264 16.6261 66.8793C16.9857 66.0188 16.9829 64.0331 16.6212 63.1672C16.4655 62.7947 16.1102 62.191 15.8315 61.8255C15.4107 61.2739 15.3148 60.917 15.2672 59.7255C15.1959 57.9428 14.7093 56.786 13.4752 55.4668C12.188 54.0905 10.8039 53.4541 8.92287 53.3738C7.91282 53.3308 7.13912 53.4113 6.52813 53.6233ZM88.7326 55.5846C89.9313 56.4796 90.3974 57.6845 90.1028 59.1267C89.6659 61.2647 86.8734 62.292 85.0891 60.9709C83.0475 59.4595 83.3063 56.3766 85.5624 55.3322C86.3685 54.9591 88.0769 55.0951 88.7326 55.5846ZM10.4767 57.3093C11.1902 57.7748 11.8257 58.8153 11.8257 59.5189C11.8257 59.8119 11.6485 59.9404 11.1023 60.0427C10.7045 60.1174 10.061 60.3406 9.67274 60.5387C8.9799 60.8922 7.65987 62.1929 7.49638 62.6834C7.36043 63.0914 6.60177 62.7248 6.02946 61.9742C5.66068 61.4907 5.48195 60.9836 5.42081 60.2476C5.18837 57.4443 8.09409 55.7557 10.4767 57.3093ZM13.1974 64.0048C13.728 64.6793 13.6907 65.5258 13.1041 66.1122C11.8676 67.3488 9.77392 65.9259 10.4964 64.34C10.981 63.2762 12.4782 63.0905 13.1974 64.0048ZM47.8639 63.5071C47.1429 63.9206 46.9974 64.3142 46.9911 65.8686C46.9855 67.2687 47.0267 67.4305 47.5017 67.8708C48.2125 68.5294 49.0171 68.4962 49.7345 67.7788C50.2592 67.2541 50.3055 67.0945 50.3055 65.8104C50.3055 64.5263 50.2592 64.3667 49.7345 63.8421C49.1351 63.2426 48.5178 63.1321 47.8639 63.5071ZM39.2606 63.946C38.9969 64.2097 38.7803 64.5832 38.7793 64.7762C38.7783 64.9689 38.6434 66.2659 38.4795 67.658C38.0863 70.9986 38.3414 71.6703 40.0038 71.6703C41.169 71.6703 41.5168 71.0654 41.8214 68.5101C42.2198 65.1649 42.1915 64.5152 41.6221 63.946C40.9699 63.2936 39.9128 63.2936 39.2606 63.946ZM55.4471 63.906C54.8359 64.5849 54.817 64.79 55.1141 67.4862C55.4649 70.6688 55.4948 70.795 56.0093 71.2742C56.8592 72.066 58.3511 71.6361 58.7542 70.4829C58.8537 70.1985 58.4294 65.6876 58.2099 64.6927C57.9511 63.521 56.2339 63.0321 55.4471 63.906ZM64.5811 63.7802C63.6914 64.1544 63.4742 64.7883 63.742 66.2286C63.8637 66.883 64.1031 67.6319 64.2741 67.8926C64.9145 68.8701 66.2559 68.8726 66.9835 67.8979C67.3524 67.4037 67.3624 67.2781 67.1364 65.9604C66.7856 63.9142 65.9525 63.2036 64.5811 63.7802ZM30.921 64.0474C30.3882 64.4666 29.9913 65.7001 29.9913 66.9373C29.9913 67.7133 30.4511 68.3386 31.223 68.6116C31.7348 68.7927 32.8896 68.2489 33.106 67.725C33.4794 66.8209 33.6984 65.2391 33.5164 64.7605C33.1161 63.7073 31.8096 63.3485 30.921 64.0474ZM84.0246 64.2745C84.7092 64.6117 85.2694 64.9676 85.2694 65.0656C85.2694 65.4313 84.6867 66.3534 84.3816 66.4704C83.8775 66.6638 83.0499 66.5997 82.7131 66.3413C81.9517 65.7569 81.7947 64.6113 82.3791 63.9071C82.6479 63.5831 82.5969 63.5718 84.0246 64.2745ZM29.6608 71.8723C29.4254 71.9645 29.1043 72.2424 28.947 72.4899C28.6533 72.953 27.2567 79.309 27.2567 80.1835C27.2567 80.9424 28.0731 81.6321 28.9716 81.6321C30.218 81.6321 30.4378 81.2162 31.2412 77.3348C31.6303 75.4548 31.9477 73.6798 31.9467 73.3904C31.9426 72.3522 30.6415 71.4882 29.6608 71.8723ZM47.4644 72.1498C46.9863 72.6278 46.9849 72.6413 46.9849 76.6512C46.9849 80.6611 46.9863 80.6746 47.4644 81.1525C47.7953 81.4836 48.161 81.6321 48.6452 81.6321C49.1294 81.6321 49.4951 81.4836 49.826 81.1525C50.3037 80.675 50.3055 80.6588 50.3055 76.6885C50.3055 72.7298 50.3024 72.7007 49.8265 72.1871C49.1845 71.4945 48.1362 71.4779 47.4644 72.1498ZM66.5178 71.8088C66.0576 71.9781 65.5109 72.511 65.3404 72.9567C65.2405 73.2175 65.4544 74.6831 65.9347 77.0309C66.7799 81.1631 67.02 81.637 68.2609 81.6258C69.0362 81.619 69.461 81.3654 69.8165 80.6982C70.014 80.3277 69.9335 79.6532 69.3395 76.694C68.9465 74.7368 68.5051 72.903 68.3586 72.6192C68.2121 72.3356 67.8128 72.0059 67.4712 71.8867C67.1296 71.7678 66.8413 71.6773 66.8305 71.6857C66.8196 71.6941 66.6789 71.7496 66.5178 71.8088ZM38.0992 75.4304C37.4833 75.9628 37.1124 77.9488 37.4483 78.9129C37.8374 80.029 39.4491 80.364 40.2376 79.4928C40.6494 79.0377 40.9918 76.7424 40.7447 76.0927C40.331 75.0042 38.9825 74.6666 38.0992 75.4304ZM56.7142 75.5839C56.1362 76.1621 56.1247 76.2095 56.2572 77.4884C56.3318 78.2097 56.5222 79.0016 56.68 79.2483C57.2766 80.1792 58.488 80.2861 59.2955 79.4786C59.7696 79.0045 59.8307 77.0942 59.4049 76.0746C58.892 74.8473 57.6731 74.625 56.7142 75.5839ZM10.8467 80.0675C8.2316 80.5173 6.14099 82.4894 5.46066 85.148C4.69497 88.1406 6.16326 91.161 9.13285 92.702C10.0292 93.167 10.3972 93.2387 11.9233 93.246C14.0352 93.2557 15.0144 92.8797 16.5044 91.4858C17.9674 90.1174 18.544 88.7749 18.5553 86.7106C18.5631 85.2882 18.486 84.8824 18.0162 83.8784C16.7499 81.1719 13.7369 79.5704 10.8467 80.0675ZM26.9097 83.7078C26.2394 84.379 25.7595 86.3434 26.0675 87.1538C26.4277 88.101 27.5637 88.5409 28.4394 88.0721C29.0127 87.7654 29.409 86.8282 29.5338 85.4844C29.6701 84.0168 29.3242 83.4434 28.1934 83.2623C27.5748 83.1633 27.3889 83.2279 26.9097 83.7078ZM37.7068 83.3793C36.744 83.7735 36.6192 84.1651 36.1849 88.1557L35.7691 91.9767L36.1639 92.5055C36.9098 93.5048 38.2152 93.513 38.8643 92.5223C39.2075 91.9984 40.0505 85.172 39.8638 84.4282C39.7997 84.1727 39.4639 83.7912 39.1176 83.5801C38.4303 83.1609 38.2894 83.1408 37.7068 83.3793ZM48.2096 83.3465C47.3705 83.4807 46.9849 84.2743 46.9849 85.8668C46.9849 87.1433 47.0415 87.371 47.4644 87.7937C47.7953 88.1248 48.161 88.2733 48.6452 88.2733C49.1294 88.2733 49.4951 88.1248 49.826 87.7937C50.2479 87.372 50.3055 87.1423 50.3055 85.884C50.3055 84.9353 50.2078 84.3141 50.0156 84.0397C49.6836 83.5656 48.847 83.2445 48.2096 83.3465ZM58.1788 83.392C57.9434 83.4867 57.595 83.802 57.4047 84.0924C57.0725 84.5997 57.0756 84.771 57.486 88.4395C57.8801 91.9626 57.951 92.2965 58.4013 92.7467C59.0961 93.4413 60.1594 93.4188 60.781 92.6963C61.3422 92.0439 61.3418 92.0662 60.8439 87.851C60.4249 84.3046 60.228 83.7094 59.3654 83.3812C58.7929 83.1637 58.7445 83.164 58.1788 83.392ZM68.3068 83.5074C67.5929 84.0077 67.469 84.6075 67.7771 86.077C68.1711 87.9566 68.9776 88.5909 70.3228 88.0795C71.1424 87.7678 71.3907 86.9089 71.1033 85.3801C70.9207 84.4081 70.734 83.9838 70.3392 83.6442C69.7288 83.1193 68.9371 83.066 68.3068 83.5074ZM87.7604 83.4143C86.7031 83.5723 85.8392 84.0542 84.9375 84.9886C84.054 85.9043 83.6458 86.9868 83.6521 88.3967C83.6587 89.9072 84.4041 91.3915 85.6194 92.314C88.7281 94.674 93.2078 92.682 93.6125 88.7598C93.9459 85.5289 91.0865 82.9169 87.7604 83.4143ZM13.1314 83.5984C15.4973 84.4948 15.9246 87.9877 13.8358 89.3564C11.6545 90.7856 8.70039 89.2655 8.70039 86.7141C8.70039 84.3413 10.9385 82.7675 13.1314 83.5984ZM89.6379 87.1155C90.0184 87.4148 90.1526 87.6982 90.1526 88.2026C90.1526 89.1226 89.8862 89.5591 89.1728 89.8078C87.5715 90.366 86.3113 88.3856 87.5069 87.1902C88.0999 86.5969 88.9414 86.5675 89.6379 87.1155ZM25.2157 91.838C24.7894 92.2125 24.6285 92.7098 24.129 95.1957C23.8066 96.8009 23.594 98.2761 23.6569 98.4741C23.8636 99.125 24.5613 99.6024 25.3061 99.6024C26.4941 99.6024 26.8027 99.0738 27.4615 95.91C27.7786 94.3876 28.038 93.0202 28.038 92.8713C28.038 92.7223 27.8104 92.3301 27.5323 91.9996C26.9008 91.2491 25.9606 91.1835 25.2157 91.838ZM69.7319 91.8781C69.136 92.4738 69.1366 92.7252 69.7415 95.7177C70.464 99.2926 70.6471 99.6024 72.0378 99.6024C72.4898 99.6024 72.8443 99.449 73.1537 99.1197C73.5625 98.6845 73.5952 98.5163 73.4846 97.4106C73.2551 95.1137 72.4705 92.1414 71.9911 91.7533C71.3545 91.2378 70.3146 91.2952 69.7319 91.8781ZM47.5859 92.0996L46.9849 92.6053V95.8196C46.9849 98.972 46.9941 99.0433 47.4644 99.5135C48.1262 100.175 49.1083 100.16 49.7906 99.4781C50.3039 98.9648 50.3055 98.9533 50.3055 95.8495V92.7358L49.7345 92.1648C49.0265 91.4567 48.3735 91.4368 47.5859 92.0996ZM35.8543 95.2633C35.4093 95.6237 35.0938 96.7681 35.0784 98.0776C35.0593 99.6971 36.8131 100.487 37.9357 99.3644C38.3722 98.9279 38.4607 98.639 38.541 97.3879C38.6293 96.0118 38.6045 95.8921 38.131 95.4186C37.5259 94.8135 36.4965 94.7433 35.8543 95.2633ZM59.0047 95.3344C58.4917 95.738 58.4734 95.8143 58.5396 97.2729C58.597 98.5398 58.6841 98.8718 59.0658 99.2779C59.6795 99.9313 60.3358 100.069 61.0587 99.6947C61.8403 99.2906 62.0668 98.6271 61.9067 97.2115C61.6734 95.1492 60.338 94.2857 59.0047 95.3344Z" fill="black"/>
</g>
</svg>
