<svg width="100" height="100" viewBox="0 0 100 100" fill="none" xmlns="http://www.w3.org/2000/svg">
<mask id="mask0_1_13580" style="mask-type:alpha" maskUnits="userSpaceOnUse" x="0" y="0" width="100" height="100">
<rect width="100" height="100" fill="white"/>
</mask>
<g mask="url(#mask0_1_13580)">
<path fill-rule="evenodd" clip-rule="evenodd" d="M2.05099 7.27679C1.32298 7.60182 0.482275 8.48374 0.207833 9.21018C0.0634829 9.59225 0 22.0775 0 50.1151V90.4701L0.469188 91.2708C0.731323 91.7181 1.28177 92.2644 1.71658 92.5088L2.49478 92.9461H33.4432H64.3914L64.8163 92.4941C65.38 91.8939 65.3683 90.9852 64.7895 90.4414L64.3381 90.0173L33.6829 89.9679L3.02765 89.9185L2.97823 52.7565L2.929 15.5946H4.1971H5.465L5.51598 50.6165C5.56423 83.6975 5.58611 85.6675 5.91153 86.1642C6.71493 87.3903 6.63895 87.3792 14.1532 87.3792C20.6224 87.3792 21.0291 87.3583 21.5619 86.9975C22.7247 86.2101 22.6585 88.4189 22.6585 50.4676V15.5946H23.9282H25.1978V50.4807C25.1978 88.7965 25.1168 86.1968 26.3378 87.0258C26.8318 87.3612 28.104 87.3821 51.47 87.4385C65.0065 87.4712 76.6317 87.4423 77.3039 87.3741C78.4262 87.2602 78.7573 87.1004 81.375 85.4102C82.9421 84.3982 84.295 83.5702 84.3811 83.5702C84.664 83.5702 85.8131 85.5395 85.632 85.7136C85.5361 85.8056 84.0182 86.8113 82.2588 87.9486L79.0599 90.0161H74.5284C70.0443 90.0161 69.9926 90.0208 69.5722 90.4681C69.0081 91.0688 69.0202 91.9771 69.5996 92.5215C70.0381 92.9334 70.1942 92.9461 74.7823 92.9461C78.5778 92.9461 79.6535 92.8873 80.225 92.6484C80.6167 92.4848 82.3655 91.43 84.1112 90.3045C85.8569 89.179 87.326 88.2582 87.3758 88.2582C87.4256 88.2582 88.0411 89.159 88.7437 90.2603C89.4846 91.422 90.2647 92.406 90.6017 92.6043C91.0966 92.8955 91.6994 92.9459 94.6685 92.9453C97.7813 92.9448 98.2214 92.9039 98.7796 92.5633C99.9124 91.8728 100.327 90.4144 99.7229 89.2463C99.5651 88.941 97.206 85.1332 94.4808 80.7847L89.5256 72.8783L90.8351 72.7685C92.4417 72.6337 93.2869 72.2948 94.3005 71.3793C95.4279 70.3607 95.9721 68.9791 95.9655 67.1515C95.9571 64.8226 94.959 63.1127 93.0568 62.169C92.3304 61.8084 91.7836 61.7907 81.4535 61.7907H70.6126L69.6992 62.3276C67.7902 63.4498 66.8704 65.3223 67.0434 67.7336C67.1935 69.8223 68.2863 71.4473 70.1242 72.3138C70.8944 72.6769 71.4269 72.7363 74.4233 72.7927L77.8434 72.8572L80.3546 76.8564C81.7357 79.0559 82.8337 80.8848 82.7944 80.9203C82.7552 80.9559 81.5556 81.7425 80.1287 82.6683L77.5342 84.3515H66.8141H56.0941L54.1728 81.4186C46.4465 69.6246 45.6202 68.4376 44.8287 67.9956C43.2961 67.14 41.6557 67.474 39.5594 69.0691C38.0107 70.2476 37.6516 70.9158 37.7362 72.4636C37.802 73.667 37.889 73.8835 38.9445 75.4698L40.0821 77.1789L36.4998 80.7652L32.9174 84.3515H30.6203H28.3232V65.8926V47.4337H30.5456C32.3316 47.4337 32.8181 47.4943 33.0238 47.742C33.5254 48.3463 35.2328 49.0472 36.4398 49.1441C38.9799 49.348 41.2077 48.0979 42.3722 45.8148L43.041 44.5038H45.8394H48.6377V44.9733C48.6377 45.831 49.5718 48.22 50.4099 49.5066C51.9915 51.9342 54.3711 53.6598 57.2298 54.4518C59.0803 54.9646 63.5456 55.0361 64.452 54.5673C65.2374 54.1612 65.8111 53.3638 65.9519 52.4831C66.0182 52.0694 66.177 51.7311 66.3051 51.7311C66.7245 51.7311 68.175 50.3393 68.617 49.5127C69.0354 48.7306 69.0499 48.5133 69.0499 43.0388C69.0499 37.583 69.0341 37.3446 68.6219 36.5743C68.1643 35.7191 67.0716 34.6532 66.4504 34.4561C66.2033 34.3776 66.0324 34.0937 65.9586 33.6394C65.797 32.6434 64.9827 31.6671 64.0906 31.3999C63.6138 31.2571 62.3545 31.2063 60.6285 31.2604C58.3246 31.3327 57.696 31.4237 56.4555 31.8652C53.7195 32.8387 51.2966 34.8829 50.0038 37.3083C49.2944 38.6393 48.6377 40.4698 48.6377 41.1161V41.5738H45.8196H43.0018L42.5189 40.5194C41.6503 38.6217 39.8022 37.228 37.7886 36.952L36.9178 36.8327V26.2136V15.5946H39.7153C43.1078 15.5946 43.965 15.3618 45.0979 14.1329C47.0299 12.0368 46.4873 8.85917 43.9732 7.54576C42.9527 7.0127 42.8535 7 39.7149 7C37.9476 7 36.3406 7.08614 36.1441 7.19123C35.3 7.64303 35.3588 9.46939 36.2284 9.80302C36.4103 9.87294 37.8321 9.92998 39.3883 9.92998C41.009 9.92998 42.3828 10.0185 42.6047 10.1372C43.3973 10.5615 43.452 11.8175 42.6996 12.3199C42.5814 12.3988 33.585 12.4646 22.7074 12.4664L2.92998 12.4693V11.5087C2.92998 10.9803 2.98331 10.4089 3.04855 10.239C3.1552 9.96123 4.5571 9.92998 16.8954 9.92998C30.0177 9.92998 30.6437 9.91377 31.0752 9.56452C31.7024 9.05665 31.7024 7.87333 31.0752 7.36547C30.6433 7.01582 30.0179 7.00039 16.6304 7.00762C5.37398 7.01387 2.52232 7.06641 2.05099 7.27679ZM12.5013 34.8348V54.075H10.5479H8.59461V34.8348V15.5946H10.5479H12.5013V34.8348ZM19.6807 34.786L19.6309 53.9774L17.6287 54.033L15.6266 54.0887V34.8417V15.5946H17.6785H19.7305L19.6807 34.786ZM33.9878 26.6076V37.6208L33.3172 38.1322C32.6871 38.6129 32.5158 38.6438 30.4849 38.6438H28.3232V27.1192V15.5946H31.1555H33.9878V26.6076ZM61.9912 34.786C61.3153 35.2376 60.8862 35.7269 60.5041 36.4813L59.967 37.5419V42.9046C59.967 46.3579 60.0463 48.5323 60.1898 49.0116C60.4776 49.9715 61.3749 51.0534 62.2801 51.5316L62.9946 51.9092L61.295 51.9178C58.1846 51.9336 56.2394 51.2468 54.2943 49.4459C49.4997 45.0071 51.171 36.9282 57.33 34.7702C58.8038 34.2539 59.0889 34.2103 61.2099 34.1777L62.9411 34.1512L61.9912 34.786ZM65.6316 37.4718C66.0021 37.8424 66.0223 38.1229 66.0223 42.9251C66.0223 45.7096 65.9676 48.1301 65.901 48.304C65.7181 48.7802 64.7327 49.2187 64.1652 49.0763C63.8939 49.0081 63.4976 48.7308 63.2845 48.4598C62.9212 47.9979 62.8969 47.6582 62.8969 43.0388C62.8969 38.3487 62.9165 38.0855 63.3019 37.5958C63.8183 36.9391 65.0343 36.8745 65.6316 37.4718ZM38.5775 40.3784C39.5221 40.9231 40.0431 41.8689 40.0431 43.0388C40.0431 44.3286 39.4837 45.2171 38.2835 45.8334C36.7541 46.6186 34.8678 45.9736 34.1644 44.4247C33.6926 43.3861 33.6999 42.6696 34.1927 41.6517C35.0072 39.9689 36.9098 39.4163 38.5775 40.3784ZM30.8959 43.0384L30.8316 44.5038H29.5774H28.3232V43.0388V41.5738L29.6416 41.5734L30.9601 41.5728L30.8959 43.0384ZM19.7285 59.5443V62.0837H14.1616H8.59461V59.5443V57.005H14.1616H19.7285V59.5443ZM91.8034 64.9652C92.6669 65.3982 92.9716 66.0126 92.9752 67.3283C92.9777 68.2581 92.9048 68.4466 92.314 69.0375L91.6498 69.7016H81.458H71.2661L70.6952 69.1307C70.1822 68.6177 70.1242 68.4318 70.1242 67.3014C70.1242 65.951 70.5223 65.1578 71.372 64.8144C71.599 64.7228 76.1356 64.6423 81.4535 64.6357C90.2837 64.6245 91.1814 64.6533 91.8034 64.9652ZM19.7285 67.1623V69.1156H14.1616H8.59461V67.1623V65.209H14.1616H19.7285V67.1623ZM43.6018 70.8248C43.9646 71.24 52.1609 83.7628 52.2955 84.1074C52.368 84.2931 51.9054 84.3515 50.3601 84.3515H48.3295L44.5463 78.5699C42.4654 75.3901 40.7258 72.5945 40.6805 72.3575C40.615 72.0153 40.8123 71.7805 41.6391 71.217C42.8219 70.4109 43.178 70.3396 43.6018 70.8248ZM19.7285 74.1942V76.1476H14.1616H8.59461V74.1942V72.2409H14.1616H19.7285V74.1942ZM91.172 81.1285C93.9995 85.6407 96.4007 89.4864 96.5079 89.6743C96.6892 89.9915 96.538 90.016 94.4011 90.0138L92.0991 90.0115L86.8251 81.5876C83.9244 76.9545 81.5209 73.0851 81.484 72.989C81.4461 72.8904 82.4219 72.8383 83.7238 72.8693L86.0311 72.9246L91.172 81.1285ZM19.7285 81.8122V84.3515H14.1616H8.59461V81.8122V79.2729H14.1616H19.7285V81.8122ZM42.7416 81.275C43.2655 82.054 43.9284 83.0649 44.215 83.5214L44.7359 84.3515H40.8789H37.0219L39.2618 82.1052C40.4937 80.8697 41.5665 79.8589 41.6454 79.8589C41.7245 79.8589 42.2177 80.4961 42.7416 81.275Z" fill="#FF640D"/>
</g>
</svg>
