<svg width="100" height="100" viewBox="0 0 100 100" fill="none" xmlns="http://www.w3.org/2000/svg">
<mask id="mask0_1_13564" style="mask-type:alpha" maskUnits="userSpaceOnUse" x="0" y="0" width="100" height="100">
<rect width="100" height="100" fill="white"/>
</mask>
<g mask="url(#mask0_1_13564)">
<path fill-rule="evenodd" clip-rule="evenodd" d="M22.9037 0.456127C21.6171 1.05654 20.5597 2.25229 20.1775 3.53914C19.7713 4.90772 19.7531 10.0919 20.1502 11.4112C20.686 13.1923 22.3696 14.7069 24.1022 14.9668L24.9566 15.0948V16.7256V18.3563L24.2234 18.4822C20.4946 19.1227 17.2505 20.7787 14.7507 23.3176C12.6666 25.4342 11.3301 27.7645 10.4415 30.8303L10 32.3532V60.7023V89.0514L10.4559 90.5177C11.1725 92.8232 12.1146 94.3356 13.9882 96.1891C15.7852 97.9667 17.0912 98.7785 19.3845 99.5435L20.7531 100H49.982H79.2109L80.5795 99.5435C82.8728 98.7785 84.1789 97.9667 85.9758 96.1891C87.8494 94.3356 88.7915 92.8232 89.5081 90.5177L89.964 89.0514V60.7023V32.3532L89.5298 30.8561C87.5872 24.1603 82.5661 19.6545 75.7406 18.4822L75.0074 18.3563V16.7256V15.0948L75.8618 14.9668C77.5944 14.7069 79.278 13.1923 79.8139 11.4112C80.211 10.0919 80.1928 4.90772 79.7865 3.53914C79.4043 2.25229 78.347 1.05654 77.0603 0.456127L76.0827 0H49.982H23.8813L22.9037 0.456127ZM75.7754 3.60581C76.0798 3.7632 76.3832 4.03417 76.4501 4.20838C76.5168 4.38238 76.5715 5.90991 76.5715 7.60284C76.5715 10.6479 76.5662 10.686 76.0739 11.1484C75.6333 11.5625 75.3543 11.6249 73.6301 11.6941L71.6837 11.7723V9.77927C71.6837 7.83745 71.6691 7.77176 71.1123 7.21494C70.4399 6.54258 69.6659 6.47552 68.9466 7.02706C68.4914 7.37605 68.4512 7.54751 68.3601 9.51533L68.2623 11.629L66.6493 11.6857L65.0364 11.7426V9.7646C65.0364 7.83902 65.0211 7.77137 64.4649 7.21494C63.7896 6.53965 62.9553 6.46418 62.272 7.0165C61.8515 7.3563 61.8016 7.5782 61.7127 9.50927L61.6149 11.629L60.002 11.6857L58.389 11.7426V9.7646C58.389 7.83902 58.3737 7.77137 57.8175 7.21494C56.88 6.27747 55.6544 6.51286 55.1464 7.72816C54.9812 8.12368 54.8698 9.06252 54.8698 10.0587V11.7268H53.3235H51.7772L51.7105 9.65668C51.6464 7.66794 51.6224 7.56784 51.0953 7.11504C50.3943 6.51247 49.5697 6.51247 48.8688 7.11504C48.3417 7.56784 48.3176 7.66794 48.2535 9.65668L48.1868 11.7268H46.6405H45.0942V10.0587C45.0942 9.06252 44.9828 8.12368 44.8176 7.72816C44.3097 6.51286 43.084 6.27747 42.1465 7.21494C41.5903 7.77137 41.575 7.83902 41.575 9.7646V11.7426L39.9621 11.6857L38.3491 11.629L38.2514 9.50927C38.1624 7.5782 38.1125 7.3563 37.692 7.0165C37.0087 6.46418 36.1744 6.53965 35.4991 7.21494C34.9429 7.77137 34.9277 7.83902 34.9277 9.7646V11.7426L33.3147 11.6857L31.7017 11.629L31.604 9.51533C31.5129 7.54751 31.4726 7.37605 31.0174 7.02706C30.2982 6.47552 29.5241 6.54258 28.8518 7.21494C28.2949 7.77176 28.2803 7.83745 28.2803 9.77927V11.7723L26.334 11.6941C24.6098 11.6249 24.3308 11.5625 23.8901 11.1484C23.3968 10.6851 23.3925 10.6534 23.3925 7.52659C23.3925 4.25158 23.449 3.99586 24.2723 3.54559C24.5495 3.39388 32.022 3.32994 49.9429 3.32564C71.7553 3.32056 75.2982 3.35908 75.7754 3.60581ZM71.6837 16.7123V18.3741H49.982H28.2803V16.7123V15.0504H49.982H71.6837V16.7123ZM75.9443 22.0028C76.8054 22.1772 78.2402 22.6885 79.2913 23.1956C80.7959 23.9216 81.4018 24.357 82.615 25.5838C85.7684 28.773 86.8607 32.075 86.6976 37.9252L86.6403 39.9781L75.6917 40.0248C68.0719 40.0575 64.6158 40.1382 64.3247 40.2907C63.8613 40.5335 63.4723 41.2495 63.4723 41.8597C63.4723 42.0779 63.7294 42.5137 64.0438 42.8281L64.6152 43.3995H75.6767H86.7381V61.6798V79.9601H82.3682C79.6743 79.9601 77.76 80.0432 77.3768 80.1767C76.195 80.5889 75.8712 82.1794 76.7983 83.0191C77.1608 83.3475 77.6476 83.387 81.9979 83.4404L86.7975 83.4991L86.6789 85.982C86.5074 89.5654 85.8559 91.4055 84.0174 93.4996C83.1184 94.5235 81.2939 95.6868 79.7517 96.2194L78.4289 96.6763H49.982H21.5352L20.2123 96.2194C18.6701 95.6868 16.8456 94.5235 15.9467 93.4996C14.1065 91.4038 13.4566 89.5662 13.2848 85.9721L13.1655 83.4793H19.5349H25.9042L26.5056 82.9731C27.2713 82.3289 27.3219 81.4047 26.6356 80.6065L26.1641 80.0579L19.695 79.999L13.2259 79.9404V61.6699V43.3995H21.8976H30.5693L31.0867 42.9202C31.7172 42.3358 31.7813 41.3158 31.2304 40.6352L30.8567 40.1736L22.0902 40.0759L13.3237 39.9781L13.2682 37.742C13.1243 31.9635 14.1978 28.7599 17.3401 25.5891C18.5317 24.3869 19.1701 23.9274 20.6638 23.197C23.8258 21.6511 22.2398 21.7316 49.8436 21.7139C71.3952 21.6998 74.6238 21.7356 75.9443 22.0028ZM24.1141 25.315C21.3301 26.0802 18.9704 28.0197 17.7203 30.5699C16.8439 32.3583 16.351 34.6465 16.6572 35.5064C16.9553 36.3436 17.7553 36.8263 18.5865 36.6702C19.5018 36.4986 19.8696 35.9148 20.0675 34.319C20.4679 31.0911 22.8365 28.7779 26.0992 28.4285C27.6554 28.2619 28.2803 27.762 28.2803 26.6833C28.2803 25.5553 27.5954 25.0172 26.1873 25.0389C25.5642 25.0487 24.6313 25.1728 24.1141 25.315ZM50.7641 30.4749C43.2564 32.5471 40.7476 33.3438 40.1329 33.8504C39.5789 34.3073 39.2092 35.0721 37.7649 38.7489C35.2407 45.1758 31.5842 54.1278 30.0108 57.7338C29.2514 59.4741 28.4269 61.4853 28.1784 62.2032C26.83 66.1001 27.0746 70.939 28.7914 74.3327C29.087 74.9169 29.259 75.5975 29.261 76.1901C29.2747 80.3922 32.1774 83.4793 36.115 83.4793C37.3278 83.4793 37.6877 83.5769 39.2846 84.338C43.2989 86.2517 47.5448 87.5221 51.8394 88.0947C55.1331 88.5341 60.9654 88.3843 63.179 87.8036C69.0408 86.2661 73.4959 81.6245 74.6987 75.8014C76.1482 68.7841 72.58 61.8075 65.9826 58.7593C63.4193 57.5749 61.6034 57.2011 58.389 57.1962C55.1691 57.1911 53.4029 57.5545 50.7985 58.7577C49.9965 59.1282 49.2649 59.4315 49.1724 59.4315C49.0801 59.4315 49.0045 59.1732 49.0045 58.8576C49.0045 58.1012 48.5411 55.9093 47.8443 53.3706C47.5344 52.2415 47.231 50.9631 47.1698 50.5296L47.0585 49.7417L48.799 49.8807C49.7564 49.9572 51.4734 50.2493 52.6148 50.5296C54.8436 51.0771 55.5785 51.0585 56.8435 50.4231C57.6765 50.0045 58.7221 48.8647 59.0977 47.9657C59.7011 46.5217 59.295 44.4625 58.1358 43.0899L57.6267 42.4869L58.6879 41.4388C59.2715 40.8624 59.8829 40.1087 60.0465 39.7638C60.3932 39.0336 60.4333 37.794 60.1357 37.0114C59.868 36.3074 54.6023 30.9879 53.8091 30.6204C52.7835 30.1447 52.0814 30.1112 50.7641 30.4749ZM54.5752 35.9688L56.9139 38.3137L55.6532 39.5857C54.9597 40.2854 54.3317 40.8579 54.2576 40.8579C54.1835 40.8579 53.6637 40.4841 53.1026 40.027C50.7222 38.0883 50.225 37.9311 49.3243 38.8316C48.6349 39.521 48.6373 40.4284 49.3304 41.2521C50.1623 42.2407 52.2024 43.6881 54.0066 44.5695C55.8268 45.4589 56.1981 45.8986 55.8659 46.7721C55.5803 47.5235 54.9519 47.6001 53.0283 47.1182C52.1041 46.8867 50.4907 46.6304 49.443 46.5486C48.3954 46.4667 47.3504 46.2818 47.1209 46.1377C46.5606 45.7856 46.0718 44.9226 46.0718 44.2852C46.0718 42.6361 44.322 41.8079 43.2025 42.9274C42.7405 43.3894 42.7055 43.5362 42.7944 44.6438C42.848 45.3099 43.068 46.2043 43.2832 46.6311C43.5853 47.2296 43.6987 47.9452 43.7786 49.7537C43.8561 51.5003 44.0166 52.5493 44.407 53.8594C45.4313 57.2957 45.7234 59.0011 45.7302 61.5821C45.7369 64.1419 45.4841 65.539 44.6889 67.3362C44.024 68.8396 44.6082 69.9891 46.0378 69.9891C46.846 69.9891 47.3489 69.5898 47.8846 68.5227C48.3544 67.5866 49.0045 65.314 49.0045 64.6072C49.0045 63.782 50.0747 62.8163 52.0404 61.8683C54.0479 60.8999 55.7639 60.5398 58.2912 60.5562C65.2722 60.6014 70.4256 64.6315 71.4399 70.8391C71.7209 72.5577 71.7209 72.8947 71.4399 74.6133C70.618 79.6428 66.9225 83.5082 61.9082 84.5832C59.8674 85.0205 54.301 85.0188 51.5187 84.5798C47.3485 83.922 42.8707 82.4584 39.6641 80.7052C38.2721 79.9441 38.2122 79.9304 36.8292 80.0561C35.5705 80.1707 35.3204 80.1335 34.5366 79.7155C33.2461 79.0275 32.7843 78.1026 32.7802 76.1967C32.7774 74.8635 32.6969 74.5235 32.1088 73.3618C31.053 71.2771 30.7418 69.9724 30.7443 67.6429C30.747 64.9281 31.0133 64.0088 33.4037 58.458C34.4928 55.9287 36.9453 49.9443 38.8533 45.1591L42.3225 36.4589L47.1788 35.0499C49.8497 34.275 52.0802 33.6371 52.1358 33.6324C52.1911 33.6279 53.2889 34.6792 54.5752 35.9688ZM34.9871 62.0707C33.8312 62.8803 33.2885 67.0458 34.0217 69.4803C34.6463 71.5547 36.0853 72.3684 37.1848 71.2687C37.7409 70.7128 37.7851 70.1062 37.3694 68.736C36.9966 67.5066 36.9973 65.7707 37.3715 64.7103C37.7956 63.5084 37.7428 62.8154 37.1848 62.2576C36.6286 61.7011 35.6352 61.6169 34.9871 62.0707ZM46.5711 75.5328C45.9117 76.1922 45.8904 77.2548 46.524 77.8883C47.4075 78.772 50.5535 79.7155 53.2079 79.8929C57.1833 80.1586 64.737 78.8963 65.7285 77.8007C66.5635 76.8781 65.8323 75.0723 64.6236 75.0723C64.3267 75.0723 63.2052 75.2851 62.1315 75.5451C59.2436 76.2444 56.7369 76.5045 53.93 76.3963C51.8722 76.3172 51.1979 76.2098 49.982 75.7676C47.7878 74.9697 47.1764 74.9275 46.5711 75.5328Z" fill="black"/>
</g>
</svg>
