<svg width="20" height="20" viewBox="0 0 20 20" fill="none" xmlns="http://www.w3.org/2000/svg">
<mask id="mask0_1_13410" style="mask-type:alpha" maskUnits="userSpaceOnUse" x="0" y="0" width="20" height="20">
<rect width="20" height="20" fill="white"/>
</mask>
<g mask="url(#mask0_1_13410)">
<path d="M9.20455 2.3335C9.64964 2.33595 10.7632 2.34671 11.9464 2.3941L12.3659 2.4124C13.5571 2.4688 14.7474 2.56515 15.3377 2.72975C16.1251 2.95095 16.7441 3.59641 16.9532 4.4146C17.2863 5.71384 17.328 8.24966 17.3331 8.86333L17.3339 8.9905V8.99941C17.3339 8.99941 17.3339 9.0025 17.3339 9.00841L17.3331 9.13558C17.328 9.74925 17.2863 12.2851 16.9532 13.5843C16.7411 14.4055 16.1222 15.051 15.3377 15.2692C14.7474 15.4337 13.5571 15.5301 12.3659 15.5865L11.9464 15.6047C10.7632 15.6522 9.64964 15.6629 9.20455 15.6654L9.00922 15.6661H9.00055C9.00055 15.6661 8.99763 15.6661 8.99189 15.6661L8.79672 15.6654C7.85472 15.6602 3.91607 15.6177 2.66339 15.2692C1.87597 15.0479 1.25707 14.4025 1.04786 13.5843C0.714802 12.2851 0.673169 9.74925 0.667969 9.13558V8.86333C0.673169 8.24966 0.714802 5.71384 1.04786 4.4146C1.25997 3.59338 1.87887 2.94793 2.66339 2.72975C3.91607 2.38119 7.85472 2.33868 8.79672 2.3335H9.20455ZM7.33389 6.08278V11.9161L12.3339 8.99941L7.33389 6.08278Z" fill="#181818"/>
</g>
</svg>
