<svg width="24" height="24" viewBox="0 0 24 24" fill="none" xmlns="http://www.w3.org/2000/svg">
<mask id="mask0_1_12875" style="mask-type:alpha" maskUnits="userSpaceOnUse" x="0" y="0" width="24" height="24">
<rect width="24" height="24" fill="white"/>
</mask>
<g mask="url(#mask0_1_12875)">
<path d="M11.0447 2.80017C11.5788 2.80311 12.9151 2.81603 14.3349 2.8729L14.8383 2.89485C16.2678 2.96253 17.6961 3.07815 18.4045 3.27567C19.3494 3.54112 20.0921 4.31567 20.3431 5.29749C20.7428 6.85658 20.7928 9.89957 20.799 10.636L20.7999 10.7886V10.7993C20.7999 10.7993 20.7999 10.803 20.7999 10.8101L20.799 10.9627C20.7928 11.6991 20.7428 14.7421 20.3431 16.3012C20.0886 17.2866 19.3459 18.0612 18.4045 18.323C17.6961 18.5205 16.2678 18.6361 14.8383 18.7038L14.3349 18.7257C12.9151 18.7826 11.5788 18.7955 11.0447 18.7985L10.8103 18.7993H10.7999C10.7999 18.7993 10.7964 18.7993 10.7895 18.7993L10.5553 18.7985C9.42488 18.7923 4.6985 18.7412 3.19529 18.323C2.25038 18.0575 1.5077 17.283 1.25665 16.3012C0.856981 14.7421 0.807021 11.6991 0.800781 10.9627V10.636C0.807021 9.89957 0.856981 6.85658 1.25665 5.29749C1.51118 4.31203 2.25386 3.53749 3.19529 3.27567C4.6985 2.8574 9.42488 2.80639 10.5553 2.80017H11.0447ZM8.79989 7.29931V14.2993L14.7999 10.7993L8.79989 7.29931Z" fill="white"/>
</g>
</svg>
