<svg width="100" height="100" viewBox="0 0 100 100" fill="none" xmlns="http://www.w3.org/2000/svg">
<mask id="mask0_1_11860" style="mask-type:alpha" maskUnits="userSpaceOnUse" x="0" y="0" width="100" height="100">
<rect width="100" height="100" fill="white"/>
</mask>
<g mask="url(#mask0_1_11860)">
<path fill-rule="evenodd" clip-rule="evenodd" d="M46.6364 2.64794C44.9156 4.09689 43.0629 5.72085 42.5193 6.25663L41.5306 7.23101L40.1728 7.03469C39.4258 6.92675 36.5852 6.8368 33.8603 6.83465L28.9059 6.83074L28.9849 12.8436C29.0585 18.4431 29.0944 18.9505 29.508 20.2252C30.8166 24.2577 33.7434 27.2463 37.881 28.775C38.8728 29.1415 39.5697 29.206 43.6055 29.304L48.2007 29.4156L48.2556 31.8227L48.3108 34.23L47.4735 33.7447C44.4074 31.9672 40.6331 32.3894 38.0586 34.7977C36.6045 36.1581 35.8183 37.6027 35.5277 39.4484L35.3181 40.78L34.3289 41.0114C31.7301 41.6195 29.0405 43.5372 27.6115 45.8007C26.3142 47.8555 25.9091 49.2377 25.9091 51.6095C25.9091 52.7387 25.9791 53.9927 26.0645 54.3959C26.2178 55.1184 26.2112 55.1292 25.6168 55.1292C24.7141 55.1292 23.5622 55.8056 23.0466 56.6386C22.6576 57.2666 22.5779 57.6941 22.5163 59.4799L22.4439 61.582H21.0345C19.2283 61.582 17.9373 61.9723 16.4436 62.9698C14.1364 64.5104 13.0034 66.7294 13.0034 69.7071C13.0034 71.3565 13.0531 71.5778 13.732 72.9513C15.1336 75.7872 17.5658 77.3899 20.7421 77.5711L22.4871 77.6705L22.4877 78.7678C22.4926 88.5478 28.7863 96.8092 38.2508 99.4589L40.1835 100H49.8628H59.542L61.4906 99.4548C68.796 97.4107 74.2959 92.036 76.3595 84.9248C76.8305 83.3016 77.2384 80.3668 77.2384 78.6016V77.6163L78.4605 77.6116C81.8211 77.5983 84.5057 75.9616 85.9458 73.0479C87.9321 69.0288 86.2929 64.3524 82.1895 62.3323C81.0782 61.7852 80.6408 61.6841 79.0878 61.6162L77.2801 61.5372L77.2085 59.4575C77.1477 57.6947 77.0669 57.2653 76.679 56.6386C76.1633 55.8056 75.0114 55.1292 74.1088 55.1292C73.5143 55.1292 73.5077 55.1184 73.661 54.3959C73.7464 53.9927 73.8123 52.7387 73.8073 51.6095C73.7967 49.2088 73.3974 47.8322 72.1289 45.8238C70.7001 43.5614 67.9778 41.6154 65.3967 41.0114L64.4074 40.78L64.1978 39.4484C63.9072 37.6027 63.121 36.1581 61.6669 34.7977C59.0925 32.3894 55.3181 31.9672 52.2521 33.7447L51.4148 34.23L51.4699 31.8227L51.5249 29.4156L56.1201 29.304C60.1558 29.206 60.8527 29.1415 61.8445 28.775C65.9121 27.2721 68.8527 24.3189 70.1376 20.4464C70.6559 18.8844 70.6665 18.7509 70.7424 12.8436L70.8196 6.83074L65.8652 6.83465C63.1403 6.8368 60.2993 6.92694 59.552 7.03488L58.1932 7.23121L57.01 6.08221C55.9026 5.00674 49.9523 -0.0292034 49.8237 0.000127603C49.7914 0.00755813 48.3571 1.19898 46.6364 2.64794ZM52.464 6.32879C55.1234 8.55658 56.0008 9.52216 56.7829 11.0804C58.2409 13.9854 58.2344 17.2644 56.7646 20.323C56.1267 21.6505 53.8721 23.9341 52.4537 24.6894L51.4271 25.236V22.0492V18.8625L53.6242 16.6592L55.8215 14.4558L54.702 13.3364L53.5825 12.2169L52.5049 13.2812L51.4271 14.3457V12.2503V10.1549H49.8628H48.2984V13.8147V17.4744L47.2658 16.4545L46.233 15.4345L45.116 16.5634L43.9989 17.6922L46.1487 19.8353L48.2984 21.9785V23.6071V25.236L47.2719 24.6894C45.8534 23.9341 43.5988 21.6505 42.961 20.323C41.1763 16.6089 41.5922 12.4296 44.0582 9.29924C44.6458 8.55325 49.6054 4.28872 49.8854 4.28872C49.9644 4.28872 51.1248 5.20678 52.464 6.32879ZM39.5965 10.5949C39.5175 10.8368 39.2637 11.7601 39.0324 12.6467L38.6118 14.2585L37.5889 13.2355L36.5658 12.2126L35.4475 13.3309L34.329 14.4492L36.8163 16.963C38.1843 18.3455 39.3036 19.613 39.3036 19.7794C39.3036 20.5847 40.9833 23.3768 42.3106 24.7776L43.7033 26.2477L41.7478 26.1392C38.1593 25.9401 35.5477 24.5172 33.7909 21.8036C32.4753 19.7716 32.2641 18.7118 32.2641 14.143V10.1549H36.0023H39.7402L39.5965 10.5949ZM67.4614 14.143C67.4614 18.5606 67.2477 19.7425 66.1307 21.5029C64.2471 24.4716 61.6752 25.934 57.9777 26.1392L56.0223 26.2477L57.4149 24.7776C58.7423 23.3768 60.4219 20.5847 60.4219 19.7794C60.4219 19.613 61.5412 18.3455 62.9092 16.963L65.3965 14.4492L64.278 13.3309L63.1597 12.2126L62.1366 13.2355L61.1138 14.2585L60.6932 12.6467C60.4618 11.7601 60.208 10.8368 60.129 10.5949L59.9853 10.1549H63.7232H67.4614V14.143ZM14.6143 11.8679L13.4948 12.9991L15.7428 15.2407L17.9907 17.4824L19.1131 16.3602L20.2353 15.2378L17.9846 12.9871L15.7338 10.7365L14.6143 11.8679ZM81.6807 13.0452L79.3856 15.3463L80.4202 16.3682C80.9893 16.9302 81.5415 17.3899 81.6474 17.3899C81.7532 17.3899 82.8291 16.3979 84.0381 15.1854L86.2364 12.9811L85.1062 11.8626L83.9757 10.7441L81.6807 13.0452ZM21.4582 18.7116L20.3397 19.842L23.7151 23.2131L27.0905 26.5844L28.209 25.4542L29.3275 24.3238L25.9521 20.9527L22.5767 17.5813L21.4582 18.7116ZM73.7169 21.0092L70.301 24.4294L71.4238 25.5523L72.5468 26.6753L75.9709 23.2512L79.3948 19.8273L78.2638 18.7082L77.1328 17.589L73.7169 21.0092ZM8.40452 19.449C7.94695 20.1511 7.60652 20.7552 7.64817 20.7911C7.68982 20.8273 11.3003 23.2389 15.6718 26.1503L23.6195 31.444L24.5067 30.1098L25.3938 28.7756L17.4363 23.4738C13.0597 20.5579 9.42426 18.1721 9.35758 18.1721C9.2909 18.1721 8.86188 18.7466 8.40452 19.449ZM82.4875 23.3422C78.2231 26.1855 74.6772 28.604 74.608 28.7162C74.4611 28.9538 75.9811 31.2733 76.2836 31.2733C76.5677 31.2733 92.0912 20.8482 92.0957 20.6545C92.1012 20.4241 90.5453 18.1721 90.3809 18.1721C90.304 18.1721 86.752 20.4986 82.4875 23.3422ZM3.85469 27.9817C3.5557 28.7526 3.38011 29.4471 3.46439 29.5253C3.84921 29.8826 9.04276 31.8892 9.18844 31.7371C9.39023 31.5261 10.3855 29.0791 10.3032 28.9966C10.207 28.9004 4.65386 26.5803 4.51991 26.5803C4.45284 26.5803 4.15347 27.2109 3.85469 27.9817ZM92.2095 27.7725C90.7105 28.4117 89.4581 28.961 89.4262 28.9929C89.3588 29.0603 90.4182 31.6125 90.5815 31.7758C90.6976 31.8922 95.9878 29.7899 96.2782 29.512C96.4942 29.3052 95.4368 26.575 95.1483 26.5952C95.0308 26.6034 93.7084 27.1333 92.2095 27.7725ZM13.0406 31.0288C12.8761 31.4322 12.6065 32.0803 12.4411 32.469L12.1403 33.1759L16.4567 34.9707C18.8307 35.958 20.8569 36.7378 20.9592 36.7036C21.1305 36.6465 22.343 33.9903 22.2396 33.899C22.1416 33.8127 13.5711 30.2956 13.4586 30.2956C13.3929 30.2956 13.2048 30.6256 13.0406 31.0288ZM81.8336 32.0699C79.5751 33.0247 77.6686 33.8302 77.597 33.8595C77.4091 33.9367 78.6256 36.7484 78.8467 36.7484C79.0155 36.7484 87.602 33.2189 87.602 33.1497C87.602 32.8079 86.3799 30.3847 86.1969 30.3636C86.0555 30.3472 84.0921 31.1151 81.8336 32.0699ZM1.30445 35.9238C1.08427 36.3125 0.754003 38.7509 0.903983 38.8802C1.13941 39.083 19.337 42.651 19.5294 42.5321C19.7073 42.422 20.2249 39.7005 20.0929 39.5687C20.0446 39.5204 16.098 38.7018 11.3226 37.7498C0.568631 35.6059 1.3989 35.7572 1.30445 35.9238ZM45.5429 36.3481C46.4545 36.8133 47.2521 37.6172 47.7805 38.6035C48.1874 39.3636 48.2024 39.6361 48.258 47.2587L48.3151 55.1292H41.8296H35.3439L35.4685 54.4937C35.6967 53.3286 37.078 52.0005 38.0615 52.0005C38.5089 52.0005 38.5214 51.9544 38.5214 50.3134V48.6263L37.6904 48.7583C34.9276 49.1969 32.5549 51.5862 32.3056 54.1804L32.2145 55.1292H30.9583C29.7168 55.1292 29.6989 55.1216 29.4269 54.4704C28.6711 52.6615 28.9435 49.8036 30.0518 47.9124C31.1259 46.0794 33.43 44.431 35.4135 44.0765C36.0868 43.9562 36.1411 43.9891 36.6218 44.8092C37.3396 46.034 38.733 47.2436 40.2461 47.9554C41.4098 48.5027 41.7478 48.5702 43.3438 48.5741C44.3292 48.5766 45.1999 48.5142 45.2791 48.4356C45.3581 48.3572 45.256 47.6533 45.0519 46.8713L44.681 45.4499L43.4809 45.413C42.0668 45.3692 41.1984 45.0438 40.2314 44.1948C38.2735 42.4758 38.1401 39.2529 39.9491 37.3673C41.4412 35.8116 43.6886 35.4021 45.5429 36.3481ZM58.446 36.3507C60.0856 37.196 61.0436 38.7951 61.0346 40.6721C61.0215 43.3893 59.0784 45.3266 56.2798 45.4122L55.0446 45.4499L54.6736 46.8713C54.4695 47.6533 54.3674 48.3572 54.4464 48.4356C54.5256 48.5142 55.3964 48.5766 56.3817 48.5741C57.9777 48.5702 58.3158 48.5027 59.4794 47.9554C60.9925 47.2436 62.3859 46.034 63.1038 44.8092C63.5844 43.9891 63.6388 43.9562 64.312 44.0765C66.4571 44.4599 68.9105 46.3301 69.8847 48.3242C70.8239 50.2471 70.9909 52.8024 70.2875 54.4937C70.0283 55.1173 69.9999 55.1292 68.7672 55.1292H67.5111L67.4199 54.1804C67.1706 51.5862 64.7979 49.1969 62.0351 48.7583L61.2041 48.6263V50.3134C61.2041 51.9544 61.2166 52.0005 61.664 52.0005C62.6476 52.0005 64.0289 53.3286 64.2571 54.4937L64.3816 55.1292H57.896H51.4105L51.4676 47.2587C51.5231 39.6361 51.5382 39.3636 51.9451 38.6035C53.2702 36.1295 56.1091 35.1457 58.446 36.3507ZM88.873 37.6672C83.8183 38.688 79.6516 39.553 79.6138 39.5896C79.4525 39.7456 80.0669 42.4662 80.282 42.5487C80.5741 42.6608 98.5832 39.1031 98.8229 38.886C99.0411 38.6885 98.5239 35.9166 98.2576 35.8558C98.1508 35.8315 93.9278 36.6465 88.873 37.6672ZM0 47.112V48.6764H3.22641H6.45283V47.112V45.5477H3.22641H0V47.112ZM9.77701 47.112V48.6764H14.5677H19.3585V47.112V45.5477H14.5677H9.77701V47.112ZM80.3671 47.112V48.6764H85.1578H89.9485V47.112V45.5477H85.1578H80.3671V47.112ZM93.2727 47.112V48.6764H96.4991H99.7255V47.112V45.5477H96.4991H93.2727V47.112ZM10.1681 53.3371C5.0596 54.3566 0.850405 55.2136 0.81423 55.2418C0.77825 55.27 0.856271 55.9602 0.987674 56.7754C1.19788 58.0783 1.27688 58.2578 1.64 58.2578C2.05474 58.258 19.9793 54.7268 20.1156 54.618C20.2099 54.5428 19.7363 51.9673 19.5777 51.6931C19.4963 51.5527 16.3902 52.0954 10.1681 53.3371ZM80.1162 51.5526C79.889 51.9505 79.5532 54.3918 79.7067 54.5306C79.9498 54.7504 98.1014 58.3179 98.3124 58.1874C98.5007 58.0711 99.0376 55.3539 98.8998 55.2158C98.8536 55.1698 94.775 54.3355 89.8359 53.3619C84.8969 52.3883 80.7092 51.5481 80.5301 51.4949C80.351 51.4417 80.1647 51.4675 80.1162 51.5526ZM73.8671 70.3324C73.8041 82.1898 73.7951 82.4329 73.365 83.8396C72.4269 86.9072 71.1538 89.1198 69.0306 91.3726C66.7213 93.8229 63.7131 95.5667 60.3001 96.4335C58.6273 96.8584 58.2483 96.8743 49.8628 96.8743C41.4772 96.8743 41.0983 96.8584 39.4254 96.4335C35.9206 95.5432 32.9669 93.8027 30.5262 91.1893C28.9353 89.4858 27.7912 87.6782 26.983 85.5912C25.8426 82.647 25.8113 82.2215 25.8113 69.7051V58.2578H49.8712H73.931L73.8671 70.3324ZM22.4871 66.3727C22.4871 67.2869 22.4422 68.0348 22.3874 68.0348C22.3325 68.0348 21.8495 67.7269 21.3139 67.3504C20.7783 66.974 20.3057 66.6661 20.2634 66.6661C20.0746 66.6661 18.5536 69.2087 18.6495 69.3639C18.7085 69.4594 19.5963 70.0911 20.6221 70.7675L22.4871 71.9973V73.2677V74.5381L21.073 74.3989C19.3937 74.2335 18.6923 73.9669 17.7443 73.1347C15.7674 71.3991 15.6356 68.2112 17.4619 66.3072C18.5323 65.1911 19.6127 64.7537 21.3628 64.7275L22.4871 64.7107V66.3727ZM32.3056 65.6594C32.4933 67.6144 33.8449 69.4801 35.8261 70.5186C36.7176 70.9859 37.0875 71.0606 38.5214 71.063C39.9149 71.0653 40.3622 70.9818 41.2893 70.5473C43.2735 69.6171 44.6682 67.754 44.9103 65.7108L45.0288 64.7107H43.459H41.8892L41.7586 65.4068C41.4416 67.0957 39.3982 68.3133 37.723 67.8113C36.753 67.5208 35.6558 66.3446 35.4798 65.4068L35.3492 64.7107H33.7817H32.2145L32.3056 65.6594ZM54.7927 65.6594C54.9836 67.6463 56.4529 69.6175 58.4362 70.5473C59.3633 70.9818 59.8107 71.0653 61.2041 71.063C62.638 71.0606 63.008 70.9859 63.8994 70.5186C65.8806 69.4801 67.2322 67.6144 67.4199 65.6594L67.5111 64.7107H65.9438H64.3764L64.2457 65.4068C64.0697 66.3446 62.9726 67.5208 62.0025 67.8113C60.3273 68.3133 58.2839 67.0957 57.9669 65.4068L57.8363 64.7107H56.2689H54.7016L54.7927 65.6594ZM80.8559 65.2492C82.5626 66.1326 83.5551 67.7407 83.544 69.6042C83.5364 70.8864 83.1834 71.815 82.3383 72.7777C81.4977 73.735 80.3494 74.2419 78.6561 74.4032L77.2384 74.5381V73.2677V71.9973L79.1035 70.7675C80.1293 70.0911 81.017 69.4594 81.0761 69.3639C81.2452 69.0902 79.5739 66.651 79.3188 66.799C79.1962 66.87 78.7282 67.1772 78.2787 67.4815C77.8291 67.7859 77.4111 68.0348 77.3499 68.0348C77.2885 68.0348 77.2384 67.2754 77.2384 66.3469V64.6592L78.6561 64.7517C79.5524 64.8104 80.3614 64.9932 80.8559 65.2492ZM57.805 80.1245C57.5369 82.1464 55.9679 84.2052 54.0035 85.1131C53.1449 85.5099 52.7468 85.5394 47.4674 85.5955L41.8456 85.6556V87.2087V88.7621H47.4807C53.6422 88.7621 54.3019 88.6729 56.2178 87.5824C58.893 86.0595 61.0086 82.7289 61.0086 80.04V79.1806H59.4695H57.9304L57.805 80.1245Z" fill="#0a2342"/>
</g>
</svg>
