<svg width="100" height="100" viewBox="0 0 100 100" fill="none" xmlns="http://www.w3.org/2000/svg">
<mask id="mask0_1_11867" style="mask-type:alpha" maskUnits="userSpaceOnUse" x="0" y="0" width="100" height="100">
<rect width="100" height="100" fill="white"/>
</mask>
<g mask="url(#mask0_1_11867)">
<path fill-rule="evenodd" clip-rule="evenodd" d="M49.7905 0.196946C46.5189 0.455253 43.6782 1.0457 40.1752 2.19574C27.2297 6.44522 17.2229 16.5714 13.0288 29.666C11.826 33.421 11.3222 36.6415 11.0848 42.0909C10.7812 49.0618 10.7068 49.3458 6.69573 58.8286C4.02885 65.1338 3.68602 66.3905 4.20454 67.9617C4.54333 68.9885 5.67081 70.3472 6.56942 70.8121C6.91605 70.9913 8.5827 71.5267 10.2736 72.0022C11.9642 72.4775 13.4176 72.9398 13.5033 73.0293C13.5893 73.1188 14.2165 76.7712 14.8974 81.1455C15.5784 85.5199 16.2785 89.6352 16.4535 90.2907C17.1113 92.757 19.1427 94.9075 21.6569 95.7999C22.7131 96.1751 23.8114 96.2209 31.6283 96.2164L40.4126 96.2114L42.3119 95.5687C47.9617 93.6573 51.9272 88.4183 51.9272 82.8654C51.9272 81.585 51.8406 81.2747 51.3444 80.7787C49.9545 79.3887 47.6538 80.5413 47.6538 82.6275C47.6538 85.9688 45.2575 89.5495 41.9981 91.0782L40.65 91.7105H31.7287H22.8071L21.9565 91.0616C21.4306 90.6606 20.9715 90.0258 20.7542 89.3997C20.5607 88.8425 19.8433 84.7542 19.16 80.3146C17.4796 69.4004 17.56 69.5376 11.9229 67.965C10.2254 67.4914 8.68906 66.9603 8.50862 66.7848C8.23085 66.5142 8.56964 65.5469 10.7268 60.4508C14.6463 51.1924 15.3652 48.6086 15.3656 43.781C15.3661 36.9456 16.5479 31.3977 19.1678 25.9315C23.526 16.8378 31.7517 9.52472 41.1308 6.40533C45.7214 4.87828 47.7404 4.57843 53.3517 4.58935C57.7033 4.5979 58.8115 4.67672 60.8654 5.12306C82.7669 9.88393 95.9249 31.5983 89.7725 52.8286C88.6189 56.8098 87.4558 59.2274 83.9753 64.881C82.7688 66.8406 81.6933 69.6597 81.2268 72.0853C80.8111 74.2472 80.7303 98.2064 81.1363 98.9647C81.2707 99.2161 81.7047 99.5891 82.1004 99.7937C82.9851 100.251 84.2913 99.9146 84.7517 99.1107C84.9717 98.7263 85.0812 95.3415 85.1828 85.7751C85.2999 74.7567 85.3749 72.7674 85.7158 71.6224C86.3226 69.5846 87.0014 68.1787 88.5683 65.7136C90.2958 62.9962 92.2475 59.1204 93.111 56.693C95.258 50.6575 96.0711 43.7627 95.3638 37.5897C94.1903 27.3443 89.2013 17.6806 81.604 10.9362C74.5177 4.64538 65.9382 0.97068 56.5138 0.189823C53.4426 -0.0646848 53.0991 -0.0642103 49.7905 0.196946ZM47.8912 12.6681C43.5315 13.8079 39.4603 17.3774 37.7664 21.5455L37.2346 22.8536L35.2809 23.1568C32.3576 23.6105 30.1558 24.7579 27.9258 26.9906C25.8674 29.0511 24.8204 30.9597 24.2323 33.7244C22.7115 40.8739 27.8427 48.2494 35.1301 49.3887C36.3367 49.5775 36.9701 49.7831 36.9701 49.9858C36.9701 50.6917 38.4388 53.1273 39.4886 54.1622C41.656 56.2992 43.7314 56.9293 48.6003 56.9293C51.8123 56.9293 52.7715 57.127 54.0067 58.0442C55.5746 59.2082 55.8263 60.099 55.9611 64.9631L56.082 69.3168L56.7481 69.8895C57.6532 70.6672 58.8759 70.6573 59.6676 69.8655L60.2638 69.2693L60.1909 64.4643L60.118 59.6595L59.3851 58.1163C58.4279 56.1002 56.8208 54.4718 54.9023 53.5741C53.0462 52.7054 51.2738 52.4293 47.513 52.4231C44.9712 52.4189 44.522 52.355 43.5956 51.8659C40.6011 50.285 40.1166 45.9918 42.6849 43.7934C43.6445 42.9721 44.975 42.447 46.097 42.447C46.4918 42.447 47.0089 42.1787 47.4346 41.753C48.3677 40.82 48.3677 39.8005 47.4346 38.8675C46.5714 38.0042 45.2782 37.9432 43.0885 38.6626C40.4022 39.5453 38.1935 41.6379 37.2666 44.1789L36.8514 45.3176L35.9017 45.1687C34.378 44.9301 32.0915 43.7537 30.9678 42.63C30.3959 42.0581 29.6162 40.9551 29.2349 40.1787C28.6027 38.891 28.5419 38.5482 28.5419 36.2742C28.5419 34.0247 28.6067 33.6491 29.2064 32.4283C29.965 30.8835 31.6606 29.0969 33.0528 28.3757C34.1014 27.8325 36.3896 27.2259 36.5993 27.4355C36.6726 27.5089 36.7327 28.026 36.7327 28.5846C36.7327 29.8842 37.4606 30.7754 38.6804 30.9697C39.4402 31.0905 39.6579 31.0112 40.283 30.3863C40.9663 29.7028 41.0061 29.5604 41.0061 27.7954C41.0061 24.3733 42.0498 21.7195 44.1911 19.6965C46.6535 17.3701 49.2366 16.4154 52.4711 16.6362C55.9162 16.8717 59.1762 18.97 60.9335 22.0842C62.0848 24.124 62.2324 24.2048 64.91 24.256C66.9745 24.2957 67.4221 24.3857 68.8314 25.0464C70.7784 25.959 72.2774 27.4146 73.195 29.2833C73.8277 30.5722 73.8878 30.9117 73.8861 33.1878C73.8842 35.4865 73.8244 35.8127 73.1176 37.3753C72.4486 38.8542 72.384 39.165 72.611 39.816C72.8743 40.5714 73.8615 41.267 74.6478 41.2516C75.3019 41.2385 76.1262 40.7044 76.5955 39.989L77.0188 39.3435L77.6041 40.2424C78.59 41.7571 78.8747 42.7176 78.8552 44.465C78.8237 47.28 77.36 49.5036 74.7349 50.7254C71.3596 52.2961 67.0921 50.7332 65.4981 47.3425C64.6863 45.6153 64.7459 45.3164 66.1906 43.8715C68.0621 41.9995 68.6243 40.7034 68.7376 38C68.8285 35.8269 68.8231 35.8025 68.1125 35.0916C67.2212 34.2004 66.2253 34.1477 65.3005 34.943C64.7103 35.4509 64.6251 35.7137 64.5002 37.4155C64.3839 38.9985 64.2507 39.4634 63.7106 40.1714C62.038 42.3644 59.4395 42.4622 57.1389 40.419C55.676 39.1196 54.8353 39.0275 53.8083 40.0546C52.9797 40.8831 52.9177 41.7169 53.6029 42.8254C54.6333 44.4925 57.025 45.8776 59.3445 46.1504C60.614 46.2995 60.6762 46.3394 60.8172 47.0901C61.1076 48.6383 62.5679 51.1181 63.9857 52.4704C68.6336 56.9039 75.6497 56.7854 80.0238 52.1995C84.4067 47.6046 84.2994 40.668 79.7762 36.1807L78.4785 34.8932L78.4051 32.7942C78.2771 29.1207 76.9516 26.1637 74.2494 23.5234C72.1207 21.4436 68.5327 19.9059 65.7844 19.8962C64.8504 19.8928 64.7478 19.8171 63.6477 18.3157C63.0121 17.4484 61.9046 16.2564 61.1864 15.6664C59.6679 14.419 56.6292 12.9342 54.8239 12.5577C53.0967 12.1975 49.47 12.2552 47.8912 12.6681ZM50.587 24.8757C47.6443 25.4937 44.4938 28.3555 44.9138 30.0288C45.1614 31.0155 46.098 31.7633 47.0859 31.7633C47.7998 31.7633 48.1238 31.5917 48.818 30.846C50.077 29.4934 51.0305 29.0813 52.6338 29.1974C54.9894 29.3678 56.4381 30.9799 56.4381 33.4314C56.4381 35.3692 57.115 36.2536 58.6078 36.2666C59.874 36.2778 60.5347 35.6351 60.7018 34.2296C61.0086 31.6498 60.1118 29.0269 58.3058 27.2209C56.4447 25.3598 53.1086 24.3463 50.587 24.8757Z" fill="black"/>
</g>
</svg>
