<svg width="1257" height="94" viewBox="0 0 1257 94" fill="none" xmlns="http://www.w3.org/2000/svg">
<mask id="path-1-outside-1_1_13133" maskUnits="userSpaceOnUse" x="-2" y="-2" width="1261" height="98" fill="black">
<rect fill="white" x="-2" y="-2" width="1261" height="98"/>
<path d="M0.085 93V1.48H20.565V76.36H87.509V93H0.085ZM100.335 93V1.48H200.687V18.12H120.815V38.344H193.263V54.984H120.815V76.36H200.687V93H100.335ZM211.51 47.816V1.48H324.15V47.816H303.414V18.12H275.51V93H255.03V18.12H232.246V47.816H211.51ZM344.083 39.368V20.04H334.995V1.73599H355.731V39.368H344.083ZM369.391 93.64V77L442.991 77.128C446.746 77.128 449.604 76.2747 451.567 74.568C453.615 72.776 454.639 69.9173 454.639 65.992C454.639 62.0667 453.615 59.2507 451.567 57.544C449.604 55.752 446.746 54.856 442.991 54.856H397.167C387.695 54.856 380.314 52.5947 375.023 48.072C369.818 43.464 367.215 36.7227 367.215 27.848C367.215 18.9733 369.818 12.2747 375.023 7.752C380.314 3.144 387.695 0.839996 397.167 0.839996H469.103V17.48L399.343 17.352C395.674 17.352 392.815 18.2053 390.767 19.912C388.719 21.5333 387.695 24.1787 387.695 27.848C387.695 31.5173 388.719 34.2053 390.767 35.912C392.815 37.5333 395.674 38.344 399.343 38.344H445.167C454.639 38.344 461.978 40.6907 467.183 45.384C472.474 49.992 475.119 56.8613 475.119 65.992C475.119 75.0373 472.474 81.9067 467.183 86.6C461.978 91.2933 454.639 93.64 445.167 93.64H369.391ZM532.71 93V1.48H547.814L588.774 1.352C605.329 1.352 618.171 5.23466 627.302 13C636.433 20.7653 640.998 32.1573 640.998 47.176C640.998 62.1947 636.433 73.5867 627.302 81.352C618.171 89.1173 605.329 93 588.774 93H532.71ZM587.366 17.992H553.19V76.36H587.366C598.118 76.36 606.267 74.0133 611.814 69.32C617.361 64.6267 620.134 57.2453 620.134 47.176C620.134 37.0213 617.361 29.64 611.814 25.032C606.267 20.3387 598.118 17.992 587.366 17.992ZM653.835 93V1.48H674.315V93H653.835ZM689.266 93.64V77L762.866 77.128C766.621 77.128 769.479 76.2747 771.442 74.568C773.49 72.776 774.514 69.9173 774.514 65.992C774.514 62.0667 773.49 59.2507 771.442 57.544C769.479 55.752 766.621 54.856 762.866 54.856H717.042C707.57 54.856 700.189 52.5947 694.898 48.072C689.693 43.464 687.09 36.7227 687.09 27.848C687.09 18.9733 689.693 12.2747 694.898 7.752C700.189 3.144 707.57 0.839996 717.042 0.839996H788.978V17.48L719.218 17.352C715.549 17.352 712.69 18.2053 710.642 19.912C708.594 21.5333 707.57 24.1787 707.57 27.848C707.57 31.5173 708.594 34.2053 710.642 35.912C712.69 37.5333 715.549 38.344 719.218 38.344H765.042C774.514 38.344 781.853 40.6907 787.058 45.384C792.349 49.992 794.994 56.8613 794.994 65.992C794.994 75.0373 792.349 81.9067 787.058 86.6C781.853 91.2933 774.514 93.64 765.042 93.64H689.266ZM854.939 93.64C838.043 93.64 825.115 89.7573 816.155 81.992C807.195 74.1413 802.715 62.536 802.715 47.176C802.715 31.9013 807.195 20.3387 816.155 12.488C825.115 4.63733 838.043 0.754664 854.939 0.839996L901.019 1.09599V17.48H856.347C845.254 17.48 837.019 19.8267 831.643 24.52C826.267 29.2133 823.579 36.7653 823.579 47.176C823.579 57.5867 826.267 65.1813 831.643 69.96C837.019 74.6533 845.254 77 856.347 77H902.299V93.64H854.939ZM952.077 93.64C942.776 93.64 935.437 92.4453 930.061 90.056C924.685 87.5813 920.845 83.8693 918.541 78.92C916.237 73.9707 915.085 67.7413 915.085 60.232V1.48H935.565V60.232C935.565 66.7173 937.058 71.1547 940.045 73.544C943.117 75.848 948.28 77 955.533 77H980.237C987.49 77 992.61 75.848 995.597 73.544C998.669 71.1547 1000.21 66.7173 1000.21 60.232V1.48H1020.69V60.232C1020.69 67.7413 1019.53 73.9707 1017.23 78.92C1014.93 83.8693 1011.09 87.5813 1005.71 90.056C1000.33 92.4453 992.994 93.64 983.693 93.64H952.077ZM1035.64 93.64V77L1109.24 77.128C1113 77.128 1115.85 76.2747 1117.82 74.568C1119.87 72.776 1120.89 69.9173 1120.89 65.992C1120.89 62.0667 1119.87 59.2507 1117.82 57.544C1115.85 55.752 1113 54.856 1109.24 54.856H1063.42C1053.95 54.856 1046.56 52.5947 1041.27 48.072C1036.07 43.464 1033.47 36.7227 1033.47 27.848C1033.47 18.9733 1036.07 12.2747 1041.27 7.752C1046.56 3.144 1053.95 0.839996 1063.42 0.839996H1135.35V17.48L1065.59 17.352C1061.92 17.352 1059.07 18.2053 1057.02 19.912C1054.97 21.5333 1053.95 24.1787 1053.95 27.848C1053.95 31.5173 1054.97 34.2053 1057.02 35.912C1059.07 37.5333 1061.92 38.344 1065.59 38.344H1111.42C1120.89 38.344 1128.23 40.6907 1133.43 45.384C1138.72 49.992 1141.37 56.8613 1141.37 65.992C1141.37 75.0373 1138.72 81.9067 1133.43 86.6C1128.23 91.2933 1120.89 93.64 1111.42 93.64H1035.64ZM1151.27 93.64V77L1224.87 77.128C1228.62 77.128 1231.48 76.2747 1233.44 74.568C1235.49 72.776 1236.51 69.9173 1236.51 65.992C1236.51 62.0667 1235.49 59.2507 1233.44 57.544C1231.48 55.752 1228.62 54.856 1224.87 54.856H1179.04C1169.57 54.856 1162.19 52.5947 1156.9 48.072C1151.69 43.464 1149.09 36.7227 1149.09 27.848C1149.09 18.9733 1151.69 12.2747 1156.9 7.752C1162.19 3.144 1169.57 0.839996 1179.04 0.839996H1250.98V17.48L1181.22 17.352C1177.55 17.352 1174.69 18.2053 1172.64 19.912C1170.59 21.5333 1169.57 24.1787 1169.57 27.848C1169.57 31.5173 1170.59 34.2053 1172.64 35.912C1174.69 37.5333 1177.55 38.344 1181.22 38.344H1227.04C1236.51 38.344 1243.85 40.6907 1249.06 45.384C1254.35 49.992 1256.99 56.8613 1256.99 65.992C1256.99 75.0373 1254.35 81.9067 1249.06 86.6C1243.85 91.2933 1236.51 93.64 1227.04 93.64H1151.27Z"/>
</mask>
<path d="M0.0849991 93H-1.915V95H0.0849991V93ZM0.0849991 1.48V-0.520004H-1.915V1.48H0.0849991ZM20.565 1.48H22.565V-0.520004H20.565V1.48ZM20.565 76.36H18.565V78.36H20.565V76.36ZM87.509 76.36H89.509V74.36H87.509V76.36ZM87.509 93V95H89.509V93H87.509ZM2.085 93V1.48H-1.915V93H2.085ZM0.0849991 3.48H20.565V-0.520004H0.0849991V3.48ZM18.565 1.48V76.36H22.565V1.48H18.565ZM20.565 78.36H87.509V74.36H20.565V78.36ZM85.509 76.36V93H89.509V76.36H85.509ZM87.509 91H0.0849991V95H87.509V91ZM100.335 93H98.335V95H100.335V93ZM100.335 1.48V-0.520004H98.335V1.48H100.335ZM200.687 1.48H202.687V-0.520004H200.687V1.48ZM200.687 18.12V20.12H202.687V18.12H200.687ZM120.815 18.12V16.12H118.815V18.12H120.815ZM120.815 38.344H118.815V40.344H120.815V38.344ZM193.263 38.344H195.263V36.344H193.263V38.344ZM193.263 54.984V56.984H195.263V54.984H193.263ZM120.815 54.984V52.984H118.815V54.984H120.815ZM120.815 76.36H118.815V78.36H120.815V76.36ZM200.687 76.36H202.687V74.36H200.687V76.36ZM200.687 93V95H202.687V93H200.687ZM102.335 93V1.48H98.335V93H102.335ZM100.335 3.48H200.687V-0.520004H100.335V3.48ZM198.687 1.48V18.12H202.687V1.48H198.687ZM200.687 16.12H120.815V20.12H200.687V16.12ZM118.815 18.12V38.344H122.815V18.12H118.815ZM120.815 40.344H193.263V36.344H120.815V40.344ZM191.263 38.344V54.984H195.263V38.344H191.263ZM193.263 52.984H120.815V56.984H193.263V52.984ZM118.815 54.984V76.36H122.815V54.984H118.815ZM120.815 78.36H200.687V74.36H120.815V78.36ZM198.687 76.36V93H202.687V76.36H198.687ZM200.687 91H100.335V95H200.687V91ZM211.51 47.816H209.51V49.816H211.51V47.816ZM211.51 1.48V-0.520004H209.51V1.48H211.51ZM324.15 1.48H326.15V-0.520004H324.15V1.48ZM324.15 47.816V49.816H326.15V47.816H324.15ZM303.414 47.816H301.414V49.816H303.414V47.816ZM303.414 18.12H305.414V16.12H303.414V18.12ZM275.51 18.12V16.12H273.51V18.12H275.51ZM275.51 93V95H277.51V93H275.51ZM255.03 93H253.03V95H255.03V93ZM255.03 18.12H257.03V16.12H255.03V18.12ZM232.246 18.12V16.12H230.246V18.12H232.246ZM232.246 47.816V49.816H234.246V47.816H232.246ZM213.51 47.816V1.48H209.51V47.816H213.51ZM211.51 3.48H324.15V-0.520004H211.51V3.48ZM322.15 1.48V47.816H326.15V1.48H322.15ZM324.15 45.816H303.414V49.816H324.15V45.816ZM305.414 47.816V18.12H301.414V47.816H305.414ZM303.414 16.12H275.51V20.12H303.414V16.12ZM273.51 18.12V93H277.51V18.12H273.51ZM275.51 91H255.03V95H275.51V91ZM257.03 93V18.12H253.03V93H257.03ZM255.03 16.12H232.246V20.12H255.03V16.12ZM230.246 18.12V47.816H234.246V18.12H230.246ZM232.246 45.816H211.51V49.816H232.246V45.816ZM344.083 39.368H342.083V41.368H344.083V39.368ZM344.083 20.04H346.083V18.04H344.083V20.04ZM334.995 20.04H332.995V22.04H334.995V20.04ZM334.995 1.73599V-0.264008H332.995V1.73599H334.995ZM355.731 1.73599H357.731V-0.264008H355.731V1.73599ZM355.731 39.368V41.368H357.731V39.368H355.731ZM346.083 39.368V20.04H342.083V39.368H346.083ZM344.083 18.04H334.995V22.04H344.083V18.04ZM336.995 20.04V1.73599H332.995V20.04H336.995ZM334.995 3.73599H355.731V-0.264008H334.995V3.73599ZM353.731 1.73599V39.368H357.731V1.73599H353.731ZM355.731 37.368H344.083V41.368H355.731V37.368ZM369.391 93.64H367.391V95.64H369.391V93.64ZM369.391 77L369.394 75L367.391 74.9965V77H369.391ZM442.991 77.128L442.988 79.128H442.991V77.128ZM451.567 74.568L452.879 76.0772L452.884 76.0732L451.567 74.568ZM451.567 57.544L450.218 59.021L450.252 59.0515L450.287 59.0804L451.567 57.544ZM375.023 48.072L373.697 49.5695L373.71 49.581L373.723 49.5922L375.023 48.072ZM375.023 7.752L376.335 9.26175L376.337 9.26016L375.023 7.752ZM469.103 0.839996H471.103V-1.16H469.103V0.839996ZM469.103 17.48L469.099 19.48L471.103 19.4837V17.48H469.103ZM399.343 17.352L399.347 15.352H399.343V17.352ZM390.767 19.912L392.008 21.4801L392.028 21.4645L392.047 21.4484L390.767 19.912ZM390.767 35.912L389.487 37.4484L389.506 37.4645L389.526 37.4801L390.767 35.912ZM467.183 45.384L465.844 46.8694L465.856 46.8809L465.869 46.8922L467.183 45.384ZM467.183 86.6L465.856 85.1039L465.85 85.1092L465.844 85.1146L467.183 86.6ZM371.391 93.64V77H367.391V93.64H371.391ZM369.388 79L442.988 79.128L442.994 75.128L369.394 75L369.388 79ZM442.991 79.128C447.018 79.128 450.42 78.2154 452.879 76.0772L450.255 73.0588C448.788 74.3339 446.474 75.128 442.991 75.128V79.128ZM452.884 76.0732C455.53 73.7577 456.639 70.2325 456.639 65.992H452.639C452.639 69.6022 451.7 71.7943 450.25 73.0628L452.884 76.0732ZM456.639 65.992C456.639 61.7606 455.534 58.2462 452.847 56.0076L450.287 59.0804C451.696 60.2551 452.639 62.3727 452.639 65.992H456.639ZM452.916 56.067C450.456 53.8218 447.039 52.856 442.991 52.856V56.856C446.452 56.856 448.752 57.6822 450.218 59.021L452.916 56.067ZM442.991 52.856H397.167V56.856H442.991V52.856ZM397.167 52.856C387.999 52.856 381.139 50.6687 376.323 46.5518L373.723 49.5922C379.489 54.5206 387.391 56.856 397.167 56.856V52.856ZM376.349 46.5745C371.685 42.4455 369.215 36.3194 369.215 27.848H365.215C365.215 37.1259 367.951 44.4825 373.697 49.5695L376.349 46.5745ZM369.215 27.848C369.215 19.3746 371.685 13.3017 376.335 9.26174L373.711 6.24226C367.95 11.2477 365.215 18.572 365.215 27.848H369.215ZM376.337 9.26016C381.152 5.06569 388.008 2.84 397.167 2.84V-1.16C387.383 -1.16 379.475 1.2223 373.709 6.24384L376.337 9.26016ZM397.167 2.84H469.103V-1.16H397.167V2.84ZM467.103 0.839996V17.48H471.103V0.839996H467.103ZM469.107 15.48L399.347 15.352L399.339 19.352L469.099 19.48L469.107 15.48ZM399.343 15.352C395.381 15.352 392.009 16.2736 389.487 18.3756L392.047 21.4484C393.621 20.137 395.966 19.352 399.343 19.352V15.352ZM389.526 18.3439C386.826 20.4813 385.695 23.8281 385.695 27.848H389.695C389.695 24.5292 390.612 22.5854 392.008 21.4801L389.526 18.3439ZM385.695 27.848C385.695 31.8758 386.829 35.2333 389.487 37.4484L392.047 34.3756C390.609 33.1773 389.695 31.1589 389.695 27.848H385.695ZM389.526 37.4801C392.045 39.475 395.402 40.344 399.343 40.344V36.344C395.945 36.344 393.585 35.5917 392.008 34.3439L389.526 37.4801ZM399.343 40.344H445.167V36.344H399.343V40.344ZM445.167 40.344C454.32 40.344 461.118 42.6088 465.844 46.8694L468.522 43.8986C462.837 38.7725 454.958 36.344 445.167 36.344V40.344ZM465.869 46.8922C470.601 51.0133 473.119 57.2539 473.119 65.992H477.119C477.119 56.4688 474.346 48.9707 468.497 43.8758L465.869 46.8922ZM473.119 65.992C473.119 74.6359 470.606 80.8902 465.856 85.1039L468.51 88.0961C474.342 82.9231 477.119 75.4388 477.119 65.992H473.119ZM465.844 85.1146C461.118 89.3752 454.32 91.64 445.167 91.64V95.64C454.958 95.64 462.837 93.2115 468.522 88.0854L465.844 85.1146ZM445.167 91.64H369.391V95.64H445.167V91.64ZM532.71 93H530.71V95H532.71V93ZM532.71 1.48V-0.520004H530.71V1.48H532.71ZM547.814 1.48V3.48001L547.82 3.47999L547.814 1.48ZM588.774 1.352V-0.648012L588.768 -0.647993L588.774 1.352ZM627.302 13L626.006 14.5235V14.5235L627.302 13ZM627.302 81.352L626.006 79.8285L627.302 81.352ZM553.19 17.992V15.992H551.19V17.992H553.19ZM553.19 76.36H551.19V78.36H553.19V76.36ZM611.814 69.32L613.106 70.8468L611.814 69.32ZM611.814 25.032L610.522 26.5588L610.529 26.5646L610.536 26.5704L611.814 25.032ZM534.71 93V1.48H530.71V93H534.71ZM532.71 3.48H547.814V-0.520004H532.71V3.48ZM547.82 3.47999L588.78 3.35199L588.768 -0.647993L547.808 -0.519995L547.82 3.47999ZM588.774 3.352C605.034 3.352 617.354 7.16528 626.006 14.5235L628.598 11.4765C618.988 3.30405 605.623 -0.648003 588.774 -0.648003V3.352ZM626.006 14.5235C634.581 21.8157 638.998 32.583 638.998 47.176H642.998C642.998 31.7316 638.285 19.7149 628.598 11.4765L626.006 14.5235ZM638.998 47.176C638.998 61.769 634.581 72.5363 626.006 79.8285L628.598 82.8755C638.285 74.6371 642.998 62.6204 642.998 47.176H638.998ZM626.006 79.8285C617.354 87.1867 605.034 91 588.774 91V95C605.623 95 618.988 91.048 628.598 82.8755L626.006 79.8285ZM588.774 91H532.71V95H588.774V91ZM587.366 15.992H553.19V19.992H587.366V15.992ZM551.19 17.992V76.36H555.19V17.992H551.19ZM553.19 78.36H587.366V74.36H553.19V78.36ZM587.366 78.36C598.371 78.36 607.06 75.9628 613.106 70.8468L610.522 67.7932C605.475 72.0638 597.865 74.36 587.366 74.36V78.36ZM613.106 70.8468C619.256 65.6429 622.134 57.596 622.134 47.176H618.134C618.134 56.8946 615.465 63.6105 610.522 67.7932L613.106 70.8468ZM622.134 47.176C622.134 36.6801 619.261 28.6182 613.092 23.4936L610.536 26.5704C615.461 30.6618 618.134 37.3626 618.134 47.176H622.134ZM613.106 23.5052C607.06 18.3892 598.371 15.992 587.366 15.992V19.992C597.865 19.992 605.475 22.2882 610.522 26.5588L613.106 23.5052ZM653.835 93H651.835V95H653.835V93ZM653.835 1.48V-0.520004H651.835V1.48H653.835ZM674.315 1.48H676.315V-0.520004H674.315V1.48ZM674.315 93V95H676.315V93H674.315ZM655.835 93V1.48H651.835V93H655.835ZM653.835 3.48H674.315V-0.520004H653.835V3.48ZM672.315 1.48V93H676.315V1.48H672.315ZM674.315 91H653.835V95H674.315V91ZM689.266 93.64H687.266V95.64H689.266V93.64ZM689.266 77L689.269 75L687.266 74.9965V77H689.266ZM762.866 77.128L762.863 79.128H762.866V77.128ZM771.442 74.568L772.754 76.0772L772.759 76.0732L771.442 74.568ZM771.442 57.544L770.093 59.021L770.127 59.0515L770.162 59.0804L771.442 57.544ZM694.898 48.072L693.572 49.5695L693.585 49.581L693.598 49.5922L694.898 48.072ZM694.898 7.752L696.21 9.26175L696.212 9.26016L694.898 7.752ZM788.978 0.839996H790.978V-1.16H788.978V0.839996ZM788.978 17.48L788.974 19.48L790.978 19.4837V17.48H788.978ZM719.218 17.352L719.222 15.352H719.218V17.352ZM710.642 19.912L711.883 21.4801L711.903 21.4645L711.922 21.4484L710.642 19.912ZM710.642 35.912L709.362 37.4484L709.381 37.4645L709.401 37.4801L710.642 35.912ZM787.058 45.384L785.719 46.8694L785.732 46.8809L785.744 46.8922L787.058 45.384ZM787.058 86.6L785.731 85.1039L785.725 85.1092L785.719 85.1146L787.058 86.6ZM691.266 93.64V77H687.266V93.64H691.266ZM689.263 79L762.863 79.128L762.87 75.128L689.269 75L689.263 79ZM762.866 79.128C766.893 79.128 770.295 78.2154 772.754 76.0772L770.13 73.0588C768.663 74.3339 766.349 75.128 762.866 75.128V79.128ZM772.759 76.0732C775.405 73.7577 776.514 70.2325 776.514 65.992H772.514C772.514 69.6022 771.575 71.7943 770.125 73.0628L772.759 76.0732ZM776.514 65.992C776.514 61.7606 775.409 58.2462 772.722 56.0076L770.162 59.0804C771.571 60.2551 772.514 62.3727 772.514 65.992H776.514ZM772.791 56.067C770.331 53.8218 766.914 52.856 762.866 52.856V56.856C766.327 56.856 768.627 57.6822 770.093 59.021L772.791 56.067ZM762.866 52.856H717.042V56.856H762.866V52.856ZM717.042 52.856C707.874 52.856 701.014 50.6687 696.198 46.5518L693.598 49.5922C699.364 54.5206 707.266 56.856 717.042 56.856V52.856ZM696.224 46.5745C691.56 42.4455 689.09 36.3194 689.09 27.848H685.09C685.09 37.1259 687.826 44.4825 693.572 49.5695L696.224 46.5745ZM689.09 27.848C689.09 19.3746 691.56 13.3017 696.21 9.26174L693.586 6.24226C687.825 11.2477 685.09 18.572 685.09 27.848H689.09ZM696.212 9.26016C701.027 5.06569 707.883 2.84 717.042 2.84V-1.16C707.258 -1.16 699.35 1.2223 693.584 6.24384L696.212 9.26016ZM717.042 2.84H788.978V-1.16H717.042V2.84ZM786.978 0.839996V17.48H790.978V0.839996H786.978ZM788.982 15.48L719.222 15.352L719.214 19.352L788.974 19.48L788.982 15.48ZM719.218 15.352C715.256 15.352 711.884 16.2736 709.362 18.3756L711.922 21.4484C713.496 20.137 715.841 19.352 719.218 19.352V15.352ZM709.401 18.3439C706.701 20.4813 705.57 23.8281 705.57 27.848H709.57C709.57 24.5292 710.487 22.5854 711.883 21.4801L709.401 18.3439ZM705.57 27.848C705.57 31.8758 706.704 35.2333 709.362 37.4484L711.922 34.3756C710.484 33.1773 709.57 31.1589 709.57 27.848H705.57ZM709.401 37.4801C711.92 39.475 715.277 40.344 719.218 40.344V36.344C715.82 36.344 713.46 35.5917 711.883 34.3439L709.401 37.4801ZM719.218 40.344H765.042V36.344H719.218V40.344ZM765.042 40.344C774.195 40.344 780.993 42.6088 785.719 46.8694L788.397 43.8986C782.712 38.7725 774.833 36.344 765.042 36.344V40.344ZM785.744 46.8922C790.476 51.0133 792.994 57.2539 792.994 65.992H796.994C796.994 56.4688 794.221 48.9707 788.372 43.8758L785.744 46.8922ZM792.994 65.992C792.994 74.6359 790.481 80.8902 785.731 85.1039L788.385 88.0961C794.217 82.9231 796.994 75.4388 796.994 65.992H792.994ZM785.719 85.1146C780.993 89.3752 774.195 91.64 765.042 91.64V95.64C774.833 95.64 782.712 93.2115 788.397 88.0854L785.719 85.1146ZM765.042 91.64H689.266V95.64H765.042V91.64ZM816.155 81.992L814.837 83.4963L814.845 83.5034L816.155 81.992ZM854.939 0.839996L854.95 -1.15997L854.949 -1.15998L854.939 0.839996ZM901.019 1.09599H903.019V-0.892927L901.03 -0.903976L901.019 1.09599ZM901.019 17.48V19.48H903.019V17.48H901.019ZM831.643 24.52L832.958 26.0266L831.643 24.52ZM831.643 69.96L830.314 71.4548L830.321 71.4608L830.328 71.4666L831.643 69.96ZM902.299 77H904.299V75H902.299V77ZM902.299 93.64V95.64H904.299V93.64H902.299ZM854.939 91.64C838.322 91.64 825.933 87.8198 817.465 80.4806L814.845 83.5034C824.297 91.6948 837.764 95.64 854.939 95.64V91.64ZM817.473 80.4877C809.064 73.1202 804.715 62.1378 804.715 47.176H800.715C800.715 62.9342 805.326 75.1624 814.837 83.4963L817.473 80.4877ZM804.715 47.176C804.715 32.3036 809.062 21.3618 817.473 13.9923L814.837 10.9837C805.328 19.3155 800.715 31.4991 800.715 47.176H804.715ZM817.473 13.9923C825.938 6.57578 838.319 2.75608 854.929 2.83997L854.949 -1.15998C837.767 -1.24675 824.292 2.69889 814.837 10.9837L817.473 13.9923ZM854.928 2.83997L901.008 3.09596L901.03 -0.903976L854.95 -1.15997L854.928 2.83997ZM899.019 1.09599V17.48H903.019V1.09599H899.019ZM901.019 15.48H856.347V19.48H901.019V15.48ZM856.347 15.48C845.026 15.48 836.223 17.8664 830.328 23.0134L832.958 26.0266C837.815 21.7869 845.481 19.48 856.347 19.48V15.48ZM830.328 23.0134C824.348 28.2341 821.579 36.4584 821.579 47.176H825.579C825.579 37.0723 828.186 30.1926 832.958 26.0266L830.328 23.0134ZM821.579 47.176C821.579 57.897 824.349 66.1522 830.314 71.4548L832.972 68.4652C828.185 64.2104 825.579 57.2764 825.579 47.176H821.579ZM830.328 71.4666C836.223 76.6136 845.026 79 856.347 79V75C845.481 75 837.815 72.6931 832.958 68.4534L830.328 71.4666ZM856.347 79H902.299V75H856.347V79ZM900.299 77V93.64H904.299V77H900.299ZM902.299 91.64H854.939V95.64H902.299V91.64ZM930.061 90.056L929.225 91.8728L929.237 91.8783L929.249 91.8836L930.061 90.056ZM915.085 1.48V-0.520004H913.085V1.48H915.085ZM935.565 1.48H937.565V-0.520004H935.565V1.48ZM940.045 73.544L938.796 75.1057L938.82 75.1253L938.845 75.144L940.045 73.544ZM995.597 73.544L996.819 75.1276L996.825 75.1227L995.597 73.544ZM1000.21 1.48V-0.520004H998.205V1.48H1000.21ZM1020.69 1.48H1022.69V-0.520004H1020.69V1.48ZM1005.71 90.056L1006.52 91.8836L1006.53 91.8783L1006.55 91.8728L1005.71 90.056ZM952.077 91.64C942.911 91.64 935.888 90.4572 930.873 88.2284L929.249 91.8836C934.986 94.4335 942.641 95.64 952.077 95.64V91.64ZM930.897 88.2392C925.913 85.9448 922.441 82.5582 920.354 78.0759L916.728 79.7641C919.249 85.1805 923.457 89.2178 929.225 91.8728L930.897 88.2392ZM920.354 78.0759C918.21 73.4707 917.085 67.5528 917.085 60.232H913.085C913.085 67.9299 914.264 74.4706 916.728 79.7641L920.354 78.0759ZM917.085 60.232V1.48H913.085V60.232H917.085ZM915.085 3.48H935.565V-0.520004H915.085V3.48ZM933.565 1.48V60.232H937.565V1.48H933.565ZM933.565 60.232C933.565 66.9139 935.087 72.1386 938.796 75.1057L941.294 71.9823C939.03 70.1707 937.565 66.5207 937.565 60.232H933.565ZM938.845 75.144C942.457 77.8533 948.178 79 955.533 79V75C948.382 75 943.777 73.8427 941.245 71.944L938.845 75.144ZM955.533 79H980.237V75H955.533V79ZM980.237 79C987.583 79 993.281 77.8567 996.819 75.1276L994.375 71.9604C991.94 73.8393 987.397 75 980.237 75V79ZM996.825 75.1227C1000.63 72.1609 1002.21 66.9295 1002.21 60.232H998.205C998.205 66.5052 996.705 70.1485 994.369 71.9653L996.825 75.1227ZM1002.21 60.232V1.48H998.205V60.232H1002.21ZM1000.21 3.48H1020.69V-0.520004H1000.21V3.48ZM1018.69 1.48V60.232H1022.69V1.48H1018.69ZM1018.69 60.232C1018.69 67.5528 1017.56 73.4707 1015.42 78.0759L1019.04 79.7641C1021.51 74.4706 1022.69 67.9299 1022.69 60.232H1018.69ZM1015.42 78.0759C1013.33 82.5582 1009.86 85.9448 1004.87 88.2392L1006.55 91.8728C1012.31 89.2178 1016.52 85.1805 1019.04 79.7641L1015.42 78.0759ZM1004.9 88.2284C999.882 90.4572 992.859 91.64 983.693 91.64V95.64C993.129 95.64 1000.78 94.4335 1006.52 91.8836L1004.9 88.2284ZM983.693 91.64H952.077V95.64H983.693V91.64ZM1035.64 93.64H1033.64V95.64H1035.64V93.64ZM1035.64 77L1035.64 75L1033.64 74.9965V77H1035.64ZM1109.24 77.128L1109.24 79.128H1109.24V77.128ZM1117.82 74.568L1119.13 76.0772L1119.13 76.0732L1117.82 74.568ZM1117.82 57.544L1116.47 59.021L1116.5 59.0515L1116.54 59.0804L1117.82 57.544ZM1041.27 48.072L1039.95 49.5695L1039.96 49.581L1039.97 49.5922L1041.27 48.072ZM1041.27 7.752L1042.58 9.26175L1042.59 9.26016L1041.27 7.752ZM1135.35 0.839996H1137.35V-1.16H1135.35V0.839996ZM1135.35 17.48L1135.35 19.48L1137.35 19.4837V17.48H1135.35ZM1065.59 17.352L1065.6 15.352H1065.59V17.352ZM1057.02 19.912L1058.26 21.4801L1058.28 21.4645L1058.3 21.4484L1057.02 19.912ZM1057.02 35.912L1055.74 37.4484L1055.76 37.4645L1055.78 37.4801L1057.02 35.912ZM1133.43 45.384L1132.09 46.8694L1132.11 46.8809L1132.12 46.8922L1133.43 45.384ZM1133.43 86.6L1132.11 85.1039L1132.1 85.1092L1132.09 85.1146L1133.43 86.6ZM1037.64 93.64V77H1033.64V93.64H1037.64ZM1035.64 79L1109.24 79.128L1109.24 75.128L1035.64 75L1035.64 79ZM1109.24 79.128C1113.27 79.128 1116.67 78.2154 1119.13 76.0772L1116.5 73.0588C1115.04 74.3339 1112.72 75.128 1109.24 75.128V79.128ZM1119.13 76.0732C1121.78 73.7577 1122.89 70.2325 1122.89 65.992H1118.89C1118.89 69.6022 1117.95 71.7943 1116.5 73.0628L1119.13 76.0732ZM1122.89 65.992C1122.89 61.7606 1121.78 58.2462 1119.1 56.0076L1116.54 59.0804C1117.95 60.2551 1118.89 62.3727 1118.89 65.992H1122.89ZM1119.17 56.067C1116.71 53.8218 1113.29 52.856 1109.24 52.856V56.856C1112.7 56.856 1115 57.6822 1116.47 59.021L1119.17 56.067ZM1109.24 52.856H1063.42V56.856H1109.24V52.856ZM1063.42 52.856C1054.25 52.856 1047.39 50.6687 1042.57 46.5518L1039.97 49.5922C1045.74 54.5206 1053.64 56.856 1063.42 56.856V52.856ZM1042.6 46.5745C1037.93 42.4455 1035.46 36.3194 1035.46 27.848H1031.46C1031.46 37.1259 1034.2 44.4825 1039.95 49.5695L1042.6 46.5745ZM1035.46 27.848C1035.46 19.3746 1037.94 13.3017 1042.58 9.26174L1039.96 6.24226C1034.2 11.2477 1031.46 18.572 1031.46 27.848H1035.46ZM1042.59 9.26016C1047.4 5.06569 1054.26 2.84 1063.42 2.84V-1.16C1053.63 -1.16 1045.72 1.2223 1039.96 6.24384L1042.59 9.26016ZM1063.42 2.84H1135.35V-1.16H1063.42V2.84ZM1133.35 0.839996V17.48H1137.35V0.839996H1133.35ZM1135.36 15.48L1065.6 15.352L1065.59 19.352L1135.35 19.48L1135.36 15.48ZM1065.59 15.352C1061.63 15.352 1058.26 16.2736 1055.74 18.3756L1058.3 21.4484C1059.87 20.137 1062.22 19.352 1065.59 19.352V15.352ZM1055.78 18.3439C1053.08 20.4813 1051.94 23.8281 1051.94 27.848H1055.94C1055.94 24.5292 1056.86 22.5854 1058.26 21.4801L1055.78 18.3439ZM1051.94 27.848C1051.94 31.8758 1053.08 35.2333 1055.74 37.4484L1058.3 34.3756C1056.86 33.1773 1055.94 31.1589 1055.94 27.848H1051.94ZM1055.78 37.4801C1058.3 39.475 1061.65 40.344 1065.59 40.344V36.344C1062.2 36.344 1059.83 35.5917 1058.26 34.3439L1055.78 37.4801ZM1065.59 40.344H1111.42V36.344H1065.59V40.344ZM1111.42 40.344C1120.57 40.344 1127.37 42.6088 1132.09 46.8694L1134.77 43.8986C1129.09 38.7725 1121.21 36.344 1111.42 36.344V40.344ZM1132.12 46.8922C1136.85 51.0133 1139.37 57.2539 1139.37 65.992H1143.37C1143.37 56.4688 1140.6 48.9707 1134.75 43.8758L1132.12 46.8922ZM1139.37 65.992C1139.37 74.6359 1136.86 80.8902 1132.11 85.1039L1134.76 88.0961C1140.59 82.9231 1143.37 75.4388 1143.37 65.992H1139.37ZM1132.09 85.1146C1127.37 89.3752 1120.57 91.64 1111.42 91.64V95.64C1121.21 95.64 1129.09 93.2115 1134.77 88.0854L1132.09 85.1146ZM1111.42 91.64H1035.64V95.64H1111.42V91.64ZM1151.27 93.64H1149.27V95.64H1151.27V93.64ZM1151.27 77L1151.27 75L1149.27 74.9965V77H1151.27ZM1224.87 77.128L1224.86 79.128H1224.87V77.128ZM1233.44 74.568L1234.75 76.0772L1234.76 76.0732L1233.44 74.568ZM1233.44 57.544L1232.09 59.021L1232.13 59.0515L1232.16 59.0804L1233.44 57.544ZM1156.9 48.072L1155.57 49.5695L1155.59 49.581L1155.6 49.5922L1156.9 48.072ZM1156.9 7.752L1158.21 9.26175L1158.21 9.26016L1156.9 7.752ZM1250.98 0.839996H1252.98V-1.16H1250.98V0.839996ZM1250.98 17.48L1250.97 19.48L1252.98 19.4837V17.48H1250.98ZM1181.22 17.352L1181.22 15.352H1181.22V17.352ZM1172.64 19.912L1173.88 21.4801L1173.9 21.4645L1173.92 21.4484L1172.64 19.912ZM1172.64 35.912L1171.36 37.4484L1171.38 37.4645L1171.4 37.4801L1172.64 35.912ZM1249.06 45.384L1247.72 46.8694L1247.73 46.8809L1247.74 46.8922L1249.06 45.384ZM1249.06 86.6L1247.73 85.1039L1247.72 85.1092L1247.72 85.1146L1249.06 86.6ZM1153.27 93.64V77H1149.27V93.64H1153.27ZM1151.26 79L1224.86 79.128L1224.87 75.128L1151.27 75L1151.26 79ZM1224.87 79.128C1228.89 79.128 1232.3 78.2154 1234.75 76.0772L1232.13 73.0588C1230.66 74.3339 1228.35 75.128 1224.87 75.128V79.128ZM1234.76 76.0732C1237.41 73.7577 1238.51 70.2325 1238.51 65.992H1234.51C1234.51 69.6022 1233.57 71.7943 1232.12 73.0628L1234.76 76.0732ZM1238.51 65.992C1238.51 61.7606 1237.41 58.2462 1234.72 56.0076L1232.16 59.0804C1233.57 60.2551 1234.51 62.3727 1234.51 65.992H1238.51ZM1234.79 56.067C1232.33 53.8218 1228.91 52.856 1224.87 52.856V56.856C1228.33 56.856 1230.63 57.6822 1232.09 59.021L1234.79 56.067ZM1224.87 52.856H1179.04V56.856H1224.87V52.856ZM1179.04 52.856C1169.87 52.856 1163.01 50.6687 1158.2 46.5518L1155.6 49.5922C1161.36 54.5206 1169.27 56.856 1179.04 56.856V52.856ZM1158.22 46.5745C1153.56 42.4455 1151.09 36.3194 1151.09 27.848H1147.09C1147.09 37.1259 1149.83 44.4825 1155.57 49.5695L1158.22 46.5745ZM1151.09 27.848C1151.09 19.3746 1153.56 13.3017 1158.21 9.26174L1155.59 6.24226C1149.83 11.2477 1147.09 18.572 1147.09 27.848H1151.09ZM1158.21 9.26016C1163.03 5.06569 1169.88 2.84 1179.04 2.84V-1.16C1169.26 -1.16 1161.35 1.2223 1155.58 6.24384L1158.21 9.26016ZM1179.04 2.84H1250.98V-1.16H1179.04V2.84ZM1248.98 0.839996V17.48H1252.98V0.839996H1248.98ZM1250.98 15.48L1181.22 15.352L1181.21 19.352L1250.97 19.48L1250.98 15.48ZM1181.22 15.352C1177.26 15.352 1173.88 16.2736 1171.36 18.3756L1173.92 21.4484C1175.5 20.137 1177.84 19.352 1181.22 19.352V15.352ZM1171.4 18.3439C1168.7 20.4813 1167.57 23.8281 1167.57 27.848H1171.57C1171.57 24.5292 1172.49 22.5854 1173.88 21.4801L1171.4 18.3439ZM1167.57 27.848C1167.57 31.8758 1168.7 35.2333 1171.36 37.4484L1173.92 34.3756C1172.48 33.1773 1171.57 31.1589 1171.57 27.848H1167.57ZM1171.4 37.4801C1173.92 39.475 1177.28 40.344 1181.22 40.344V36.344C1177.82 36.344 1175.46 35.5917 1173.88 34.3439L1171.4 37.4801ZM1181.22 40.344H1227.04V36.344H1181.22V40.344ZM1227.04 40.344C1236.2 40.344 1242.99 42.6088 1247.72 46.8694L1250.4 43.8986C1244.71 38.7725 1236.83 36.344 1227.04 36.344V40.344ZM1247.74 46.8922C1252.48 51.0133 1254.99 57.2539 1254.99 65.992H1258.99C1258.99 56.4688 1256.22 48.9707 1250.37 43.8758L1247.74 46.8922ZM1254.99 65.992C1254.99 74.6359 1252.48 80.8902 1247.73 85.1039L1250.39 88.0961C1256.22 82.9231 1258.99 75.4388 1258.99 65.992H1254.99ZM1247.72 85.1146C1242.99 89.3752 1236.2 91.64 1227.04 91.64V95.64C1236.83 95.64 1244.71 93.2115 1250.4 88.0854L1247.72 85.1146ZM1227.04 91.64H1151.27V95.64H1227.04V91.64Z" fill="white" mask="url(#path-1-outside-1_1_13133)"/>
</svg>
