<svg width="100" height="100" viewBox="0 0 100 100" fill="none" xmlns="http://www.w3.org/2000/svg">
<mask id="mask0_1_12275" style="mask-type:alpha" maskUnits="userSpaceOnUse" x="0" y="0" width="100" height="100">
<rect width="100" height="100" fill="white"/>
</mask>
<g mask="url(#mask0_1_12275)">
<path fill-rule="evenodd" clip-rule="evenodd" d="M32.1533 0.146763C30.1113 0.636415 28.1122 2.24915 27.2515 4.10095C26.9907 4.6622 26.2309 7.58641 25.563 10.599C24.8952 13.6117 24.3093 16.2184 24.2609 16.3919C24.2046 16.5944 23.7077 16.8221 22.8741 17.0279C20.0035 17.7363 17.6998 19.8068 16.5327 22.7278L16.0638 23.9016L16.0106 49.3145C15.976 65.902 16.0265 75.1076 16.1562 75.8218C16.6081 78.3112 18.3996 80.8285 20.661 82.1517C22.6376 83.3082 21.8788 83.274 45.5466 83.274C57.467 83.274 67.2199 83.3256 67.2199 83.3886C67.2199 83.973 64.7422 94.295 64.4767 94.8159C64.0193 95.7142 63.4072 96.2671 62.3293 96.7557C61.4695 97.1454 61.1196 97.1548 47.3639 97.158C38.0246 97.1601 33.0271 97.0912 32.5314 96.9537C31.6853 96.7188 30.3648 95.6117 29.9317 94.7743C29.7725 94.4661 29.3423 92.8751 28.9759 91.2383C28.4139 88.7269 28.2304 88.1938 27.8002 87.8223C27.167 87.2755 26.7293 87.2667 26.0671 87.7877C25.7043 88.0731 25.5517 88.3763 25.5517 88.8124C25.5517 89.84 26.7466 94.8423 27.2526 95.9343C27.9129 97.3585 29.2253 98.6357 30.7896 99.3767L32.1051 100H47.2661H62.4271L63.5457 99.4757C64.9972 98.7953 66.4997 97.3774 67.1264 96.0961C67.4332 95.4693 68.13 92.8278 68.9385 89.2277L70.2521 83.3775L71.4259 83.0606C74.6717 82.1844 76.9386 80.1033 77.9643 77.0586C78.3583 75.8889 78.3706 75.4852 78.3706 63.648V51.4435L79.8437 51.332C81.6031 51.199 82.827 50.6638 83.6472 49.6686C84.721 48.366 84.8265 47.7075 84.8251 42.3045C84.8245 39.5295 84.7363 37.0834 84.6216 36.6711C84.3257 35.6051 83.2888 34.3576 82.2583 33.8271C81.6473 33.5129 80.8752 33.3268 79.8636 33.2504L78.3706 33.1373V28.66C78.3706 24.6591 78.3278 24.0556 77.9682 22.9884C76.9316 19.9112 74.6979 17.8579 71.4259 16.9747L70.2521 16.6578L68.9385 10.8076C68.13 7.20748 67.4332 4.56595 67.1264 3.93916C66.4997 2.65781 64.9972 1.23992 63.5457 0.559534L62.4271 0.0352568L47.6574 0.00297853C39.4513 -0.0148234 32.5613 0.0489506 32.1533 0.146763ZM62.3293 3.27951C63.4072 3.76819 64.0193 4.32102 64.4767 5.21934C64.7422 5.74029 67.2199 16.0623 67.2199 16.6466C67.2199 16.7096 58.2407 16.7613 47.2661 16.7613C29.3969 16.7613 27.3123 16.7298 27.3123 16.4588C27.3123 15.8242 29.6627 5.78157 29.9311 5.26903C30.3621 4.44623 31.4811 3.46008 32.3252 3.1592C32.9432 2.93893 35.7052 2.88826 47.2661 2.88474C61.1286 2.88044 61.4689 2.88944 62.3293 3.27951ZM43.4152 6.98134C42.5101 7.34599 42.2963 8.60973 43.0238 9.29344C43.4561 9.69936 43.6461 9.71873 47.2082 9.71873C51.3046 9.71873 51.6053 9.64028 51.8749 8.50096C51.976 8.07371 51.8837 7.8505 51.4093 7.37611L50.8175 6.78434L47.3301 6.79667C45.412 6.80352 43.6504 6.88666 43.4152 6.98134ZM71.2798 19.9928C72.6292 20.3936 74.0361 21.5478 74.7515 22.8409L75.3384 23.9016V50.0176V76.1337L74.7515 77.1943C74.4221 77.7898 73.7495 78.5835 73.2186 79.0035C71.422 80.4241 72.9068 80.3517 46.7651 80.2938L23.302 80.2418L22.3115 79.7191C21.1276 79.0943 19.9896 77.8867 19.4163 76.6466L18.9982 75.7424V50.0176V24.2928L19.4163 23.3887C20.1806 21.7356 21.699 20.3977 23.3998 19.8786C23.6688 19.7964 34.3267 19.7217 47.0838 19.7125C67.2968 19.6978 70.4077 19.7338 71.2798 19.9928ZM24.4757 22.9976C23.5872 23.4051 22.7327 24.2038 22.2568 25.0712C21.9598 25.6125 21.9326 27.71 21.9326 50.0176C21.9326 72.3252 21.9598 74.4227 22.2568 74.964C22.7327 75.8314 23.5872 76.6302 24.4757 77.0377C25.2199 77.379 26.3369 77.3968 47.2235 77.4009C71.0532 77.4056 69.7515 77.4645 71.1113 76.3181C72.4328 75.204 72.4926 74.8605 72.4975 68.3879C72.5016 62.8315 72.486 62.584 72.108 62.2419C71.5685 61.7536 70.6217 61.7878 70.0945 62.3147C69.6756 62.7333 69.6641 62.8759 69.6126 68.2648C69.562 73.5948 69.5461 73.7981 69.151 74.1285C68.7666 74.4499 67.4277 74.4708 47.1609 74.4708H25.58L25.1747 73.9554C24.7733 73.4452 24.7692 73.3034 24.7692 59.7725V46.1051H47.1595H69.5499L69.6076 51.4647C69.6608 56.4142 69.6938 56.8555 70.0379 57.2356C70.5243 57.7726 71.5836 57.7828 72.1106 57.2558C72.4954 56.871 72.5018 56.6067 72.4975 41.3612C72.4934 26.7431 72.4727 25.8127 72.1341 25.0673C71.7369 24.1929 70.7841 23.2985 69.8183 22.8937C69.3026 22.6778 65.2169 22.6308 47.2235 22.6343C26.3369 22.6384 25.2199 22.6562 24.4757 22.9976ZM69.1326 25.869L69.5675 26.1734V34.6722V43.1707H47.1683H24.7692V39.5517V35.9326H27.0731C29.7592 35.9326 29.8525 35.8905 30.9541 34.1809C31.3719 33.5322 31.7681 33.0009 31.8342 33C31.9003 32.999 32.8423 34.4803 33.9272 36.2915C35.0121 38.1028 36.0411 39.7021 36.2137 39.8455C36.6509 40.2082 37.604 40.1706 38.043 39.7733C38.245 39.5904 38.9284 38.2124 39.5614 36.7112C40.1947 35.2097 40.7696 33.9802 40.839 33.9789C40.9085 33.9775 41.2428 34.4086 41.5818 34.937C41.9209 35.4654 42.3334 35.9496 42.4985 36.013C42.6636 36.0764 45.5722 36.1282 48.962 36.1282H55.1252L57.0155 37.9082C59.1874 39.9533 59.9057 40.3565 60.833 40.0503C61.5898 39.8005 66.1313 35.2964 66.4277 34.5016C66.6923 33.7922 66.691 32.3943 66.4249 31.6904C65.9742 30.4975 64.2922 29.2954 63.06 29.2856C62.7624 29.2833 61.993 29.4276 61.3502 29.6062C60.2471 29.913 60.1156 29.9114 59.0185 29.5792C57.0104 28.9712 55.3386 29.5313 54.4047 31.1251C54.1367 31.5824 53.9174 32.2351 53.9174 32.5752V33.1938H48.9393H43.961L42.7282 31.3878C41.3477 29.3658 40.7717 28.9836 39.8681 29.4908C39.471 29.7136 39.059 30.4339 38.1697 32.4594C37.5242 33.9303 36.9459 35.1798 36.8851 35.2363C36.8242 35.2927 35.9961 34.0419 35.0448 32.4569C33.0119 29.0689 32.7077 28.6944 31.9891 28.6944C31.0748 28.6944 30.8926 28.864 29.5557 30.9611L28.2572 32.9982H26.5132H24.7692V29.7968C24.7692 26.8542 24.802 26.5537 25.1747 26.0799L25.58 25.5644H47.139C66.3349 25.5644 68.7456 25.5979 69.1326 25.869ZM58.9898 32.615L60.2473 33.0091L61.6755 32.585C62.8395 32.2396 63.1588 32.2067 63.4011 32.408C63.9998 32.9047 63.7194 33.4587 61.9909 35.1953L60.2833 36.9109L58.5674 35.2031C56.8717 33.5152 56.5744 32.9626 57.0865 32.4504C57.3954 32.1415 57.5116 32.1517 58.9898 32.615ZM80.6948 36.345C81.8066 36.7325 81.8919 37.1564 81.8919 42.2904C81.8919 47.5549 81.8173 47.8924 80.5702 48.2656C80.1674 48.3863 79.5297 48.4557 79.1531 48.42L78.4684 48.3548L78.4166 42.4882C78.388 39.2615 78.4072 36.5105 78.4592 36.3749C78.5768 36.0689 79.8539 36.0519 80.6948 36.345ZM49.5422 50.4232C48.8963 50.9312 48.8354 51.9782 49.418 52.5608C49.7856 52.9283 50.07 52.952 54.1218 52.952H58.4346L58.9147 52.4718C59.1788 52.2077 59.3949 51.7636 59.3949 51.4848C59.3949 51.2061 59.1788 50.762 58.9147 50.4979C58.4348 50.0178 58.4322 50.0176 54.2461 50.0176C50.305 50.0176 50.0272 50.0415 49.5422 50.4232ZM34.0103 50.5392C33.8746 50.5939 33.6797 50.7952 33.5772 50.9866C33.416 51.2878 32.0073 59.1886 32.0073 59.7915C32.0073 60.2025 32.9645 60.9727 33.4753 60.9727C33.7547 60.9727 34.2406 60.8395 34.5553 60.6767C35.3836 60.2483 37.282 60.0929 38.157 60.3817C39.0931 60.6906 40.2076 61.6691 40.5462 62.4794C41.3923 64.5045 40.1927 67.0382 38.1146 67.6153C37.2045 67.8681 36.9805 67.8675 36.0527 67.6099C34.9182 67.2949 33.8243 66.1978 33.4765 65.0266C33.3151 64.4826 33.0367 63.8762 32.8583 63.679C32.4086 63.1821 31.333 63.212 30.8091 63.7359C30.4611 64.0839 30.4116 64.304 30.5047 65.09C30.707 66.7984 31.9011 68.5923 33.5723 69.6988C34.5794 70.3652 36.5517 70.8179 37.7808 70.6644C40.0295 70.3832 42.2773 68.7374 43.2214 66.6802C43.865 65.278 43.8255 62.6226 43.1396 61.1683C42.497 59.806 41.2831 58.5939 39.8681 57.9015C38.92 57.4377 38.5209 57.3608 37.0402 57.3575C35.4165 57.3538 35.3216 57.3309 35.4093 56.9623C35.4603 56.7472 35.6106 55.851 35.7428 54.9709L35.9834 53.3705L38.9033 53.3081L41.8234 53.2455L42.3094 52.6799C42.8389 52.0637 42.8121 51.3948 42.2321 50.7512C41.9572 50.4462 41.5051 50.4106 38.0903 50.4243C35.982 50.4328 34.1459 50.4846 34.0103 50.5392ZM51.3756 56.0024C49.739 56.7121 48.9512 58.0717 49.0602 59.9992C49.1582 61.7315 49.7703 62.6897 51.2383 63.4078L52.2959 63.9252L57.5719 63.8673L62.8479 63.8092L63.6537 63.2756C66.3707 61.4764 66.1057 57.4901 63.1705 56.0071C62.2734 55.5538 52.4191 55.5499 51.3756 56.0024ZM62.4825 59.2572C62.7466 59.8087 62.5623 60.4846 62.0554 60.823C61.9371 60.902 59.7784 60.968 57.2585 60.9697C52.217 60.9731 51.9611 60.9157 51.9611 59.7825C51.9611 58.6432 52.1071 58.6132 57.4046 58.6707L62.2264 58.723L62.4825 59.2572ZM49.6753 67.8135C48.7863 68.1871 48.5688 69.3895 49.2367 70.2385C50.1078 71.3459 51.9611 70.6288 51.9611 69.1843C51.9611 68.1109 50.7277 67.3712 49.6753 67.8135ZM56.5583 67.8419C55.5963 68.3879 55.4014 69.3713 56.0836 70.2385C56.9418 71.3297 58.808 70.6505 58.808 69.2469C58.808 68.1089 57.513 67.3 56.5583 67.8419Z" fill="#FF640D"/>
</g>
</svg>
