<svg width="20" height="20" viewBox="0 0 20 20" fill="none" xmlns="http://www.w3.org/2000/svg">
<mask id="mask0_1_13413" style="mask-type:alpha" maskUnits="userSpaceOnUse" x="0" y="0" width="20" height="20">
<rect width="20" height="20" fill="white"/>
</mask>
<g mask="url(#mask0_1_13413)">
<path d="M5.33337 3.66742C5.33307 4.34601 4.92137 4.95666 4.29242 5.21142C3.66347 5.46619 2.94287 5.31419 2.47039 4.82711C1.99792 4.34001 1.86793 3.61511 2.14173 2.99421C2.41553 2.37331 3.03842 1.9804 3.71671 2.00075C4.6176 2.0278 5.33378 2.76612 5.33337 3.66742ZM5.38337 6.56742H2.05004V17.0007H5.38337V6.56742ZM10.6501 6.56742H7.33337V17.0007H10.6167V11.5257C10.6167 8.47573 14.5917 8.1924 14.5917 11.5257V17.0007H17.8834V10.3924C17.8834 5.25075 12.0001 5.44242 10.6167 7.9674L10.6501 6.56742Z" fill="#181818"/>
</g>
</svg>
