<svg width="136" height="24" viewBox="0 0 136 24" fill="none" xmlns="http://www.w3.org/2000/svg">
<mask id="mask0_1_12712" style="mask-type:alpha" maskUnits="userSpaceOnUse" x="112" y="0" width="24" height="24">
<path d="M112 0H136V24H112V0Z" fill="white"/>
</mask>
<g mask="url(#mask0_1_12712)">
<path d="M120.244 7.34004L113.864 8.26505L113.751 8.28804C113.58 8.33346 113.424 8.42345 113.299 8.54885C113.174 8.67424 113.085 8.83053 113.04 9.00177C112.996 9.17301 112.997 9.35305 113.045 9.52352C113.092 9.69398 113.184 9.84876 113.311 9.97204L117.933 14.471L116.843 20.826L116.83 20.936C116.82 21.113 116.856 21.2895 116.937 21.4475C117.017 21.6056 117.138 21.7395 117.287 21.8356C117.436 21.9316 117.607 21.9863 117.784 21.9942C117.961 22.002 118.137 21.9626 118.294 21.88L124 18.88L129.693 21.88L129.793 21.926C129.958 21.9911 130.138 22.011 130.313 21.9838C130.488 21.9566 130.653 21.8833 130.791 21.7713C130.928 21.6593 131.034 21.5128 131.096 21.3467C131.158 21.1806 131.175 21.0009 131.145 20.826L130.054 14.471L134.678 9.97104L134.756 9.88604C134.868 9.74881 134.941 9.5845 134.968 9.40984C134.995 9.23518 134.976 9.05642 134.911 8.89178C134.847 8.72713 134.74 8.58248 134.602 8.47256C134.463 8.36264 134.298 8.29138 134.123 8.26604L127.743 7.34004L124.891 1.56004C124.809 1.39258 124.681 1.25156 124.522 1.15295C124.364 1.05434 124.181 1.00208 123.994 1.00208C123.808 1.00208 123.625 1.05434 123.466 1.15295C123.308 1.25156 123.18 1.39258 123.097 1.56004L120.244 7.34004Z" fill="#0a2342"/>
</g>
<mask id="mask1_1_12712" style="mask-type:alpha" maskUnits="userSpaceOnUse" x="84" y="0" width="24" height="24">
<path d="M84 0H108V24H84V0Z" fill="white"/>
</mask>
<g mask="url(#mask1_1_12712)">
<path d="M92.2442 7.34004L85.8642 8.26505L85.7512 8.28804C85.5802 8.33346 85.4242 8.42345 85.2993 8.54885C85.1744 8.67424 85.085 8.83053 85.0403 9.00177C84.9956 9.17301 84.9971 9.35305 85.0447 9.52352C85.0923 9.69398 85.1842 9.84876 85.3112 9.97204L89.9332 14.471L88.8432 20.826L88.8302 20.936C88.8198 21.113 88.8565 21.2895 88.9367 21.4475C89.0169 21.6056 89.1376 21.7395 89.2866 21.8356C89.4355 21.9316 89.6073 21.9863 89.7844 21.9942C89.9614 22.002 90.1374 21.9626 90.2942 21.88L96.0002 18.88L101.693 21.88L101.793 21.926C101.958 21.9911 102.138 22.011 102.313 21.9838C102.488 21.9566 102.653 21.8833 102.791 21.7713C102.928 21.6593 103.034 21.5128 103.096 21.3467C103.158 21.1806 103.175 21.0009 103.145 20.826L102.054 14.471L106.678 9.97104L106.756 9.88604C106.868 9.74881 106.941 9.5845 106.968 9.40984C106.995 9.23518 106.976 9.05642 106.911 8.89178C106.847 8.72713 106.74 8.58248 106.602 8.47256C106.463 8.36264 106.298 8.29138 106.123 8.26604L99.7432 7.34004L96.8912 1.56004C96.8087 1.39258 96.6809 1.25156 96.5224 1.15295C96.3639 1.05434 96.1809 1.00208 95.9942 1.00208C95.8075 1.00208 95.6246 1.05434 95.466 1.15295C95.3075 1.25156 95.1798 1.39258 95.0972 1.56004L92.2442 7.34004Z" fill="#0a2342"/>
</g>
<mask id="mask2_1_12712" style="mask-type:alpha" maskUnits="userSpaceOnUse" x="56" y="0" width="24" height="24">
<path d="M56 0H80V24H56V0Z" fill="white"/>
</mask>
<g mask="url(#mask2_1_12712)">
<path d="M64.2442 7.34004L57.8642 8.26505L57.7512 8.28804C57.5802 8.33346 57.4242 8.42345 57.2993 8.54885C57.1744 8.67424 57.085 8.83053 57.0403 9.00177C56.9956 9.17301 56.9971 9.35305 57.0447 9.52352C57.0923 9.69398 57.1842 9.84876 57.3112 9.97204L61.9332 14.471L60.8432 20.826L60.8302 20.936C60.8198 21.113 60.8565 21.2895 60.9367 21.4475C61.0169 21.6056 61.1376 21.7395 61.2866 21.8356C61.4355 21.9316 61.6073 21.9863 61.7844 21.9942C61.9614 22.002 62.1374 21.9626 62.2942 21.88L68.0002 18.88L73.6932 21.88L73.7932 21.926C73.9583 21.9911 74.1377 22.011 74.313 21.9838C74.4883 21.9566 74.6532 21.8833 74.7908 21.7713C74.9284 21.6593 75.0338 21.5128 75.0961 21.3467C75.1583 21.1806 75.1753 21.0009 75.1452 20.826L74.0542 14.471L78.6782 9.97104L78.7562 9.88604C78.8677 9.74881 78.9407 9.5845 78.968 9.40984C78.9952 9.23518 78.9757 9.05642 78.9113 8.89178C78.847 8.72713 78.7402 8.58248 78.6017 8.47256C78.4633 8.36264 78.2982 8.29138 78.1232 8.26604L71.7432 7.34004L68.8912 1.56004C68.8087 1.39258 68.6809 1.25156 68.5224 1.15295C68.3639 1.05434 68.1809 1.00208 67.9942 1.00208C67.8075 1.00208 67.6246 1.05434 67.466 1.15295C67.3075 1.25156 67.1798 1.39258 67.0972 1.56004L64.2442 7.34004Z" fill="#0a2342"/>
</g>
<mask id="mask3_1_12712" style="mask-type:alpha" maskUnits="userSpaceOnUse" x="28" y="0" width="24" height="24">
<path d="M28 0H52V24H28V0Z" fill="white"/>
</mask>
<g mask="url(#mask3_1_12712)">
<path d="M36.2442 7.34004L29.8642 8.26505L29.7512 8.28804C29.5802 8.33346 29.4242 8.42345 29.2993 8.54885C29.1744 8.67424 29.085 8.83053 29.0403 9.00177C28.9956 9.17301 28.9971 9.35305 29.0447 9.52352C29.0923 9.69398 29.1842 9.84876 29.3112 9.97204L33.9332 14.471L32.8432 20.826L32.8302 20.936C32.8198 21.113 32.8565 21.2895 32.9367 21.4475C33.0169 21.6056 33.1376 21.7395 33.2866 21.8356C33.4355 21.9316 33.6073 21.9863 33.7844 21.9942C33.9614 22.002 34.1374 21.9626 34.2942 21.88L40.0002 18.88L45.6932 21.88L45.7932 21.926C45.9583 21.9911 46.1377 22.011 46.313 21.9838C46.4883 21.9566 46.6532 21.8833 46.7908 21.7713C46.9284 21.6593 47.0338 21.5128 47.0961 21.3467C47.1583 21.1806 47.1753 21.0009 47.1452 20.826L46.0542 14.471L50.6782 9.97104L50.7562 9.88604C50.8677 9.74881 50.9407 9.5845 50.968 9.40984C50.9952 9.23518 50.9757 9.05642 50.9113 8.89178C50.847 8.72713 50.7402 8.58248 50.6017 8.47256C50.4633 8.36264 50.2982 8.29138 50.1232 8.26604L43.7432 7.34004L40.8912 1.56004C40.8087 1.39258 40.6809 1.25156 40.5224 1.15295C40.3639 1.05434 40.1809 1.00208 39.9942 1.00208C39.8075 1.00208 39.6246 1.05434 39.466 1.15295C39.3075 1.25156 39.1798 1.39258 39.0972 1.56004L36.2442 7.34004Z" fill="#0a2342"/>
</g>
<mask id="mask4_1_12712" style="mask-type:alpha" maskUnits="userSpaceOnUse" x="0" y="0" width="24" height="24">
<path d="M0 0H24V24H0V0Z" fill="white"/>
</mask>
<g mask="url(#mask4_1_12712)">
<path d="M8.24423 7.34004L1.86423 8.26505L1.75123 8.28804C1.58017 8.33346 1.42423 8.42345 1.29932 8.54885C1.17442 8.67424 1.08503 8.83053 1.04029 9.00177C0.995552 9.17301 0.997058 9.35305 1.04466 9.52352C1.09226 9.69398 1.18425 9.84876 1.31123 9.97204L5.93323 14.471L4.84323 20.826L4.83023 20.936C4.81976 21.113 4.8565 21.2895 4.93668 21.4475C5.01686 21.6056 5.13761 21.7395 5.28657 21.8356C5.43552 21.9316 5.60732 21.9863 5.78438 21.9942C5.96144 22.002 6.13739 21.9626 6.29423 21.88L12.0002 18.88L17.6932 21.88L17.7932 21.926C17.9583 21.9911 18.1377 22.011 18.313 21.9838C18.4883 21.9566 18.6532 21.8833 18.7908 21.7713C18.9284 21.6593 19.0338 21.5128 19.0961 21.3467C19.1583 21.1806 19.1753 21.0009 19.1452 20.826L18.0542 14.471L22.6782 9.97104L22.7562 9.88604C22.8677 9.74881 22.9407 9.5845 22.968 9.40984C22.9952 9.23518 22.9757 9.05642 22.9113 8.89178C22.847 8.72713 22.7402 8.58248 22.6017 8.47256C22.4633 8.36264 22.2982 8.29138 22.1232 8.26604L15.7432 7.34004L12.8912 1.56004C12.8087 1.39258 12.6809 1.25156 12.5224 1.15295C12.3639 1.05434 12.1809 1.00208 11.9942 1.00208C11.8075 1.00208 11.6246 1.05434 11.466 1.15295C11.3075 1.25156 11.1798 1.39258 11.0972 1.56004L8.24423 7.34004Z" fill="#0a2342"/>
</g>
</svg>
