<svg width="100" height="100" viewBox="0 0 100 100" fill="none" xmlns="http://www.w3.org/2000/svg">
<mask id="mask0_1_13587" style="mask-type:alpha" maskUnits="userSpaceOnUse" x="0" y="0" width="100" height="100">
<rect width="100" height="100" fill="white"/>
</mask>
<g mask="url(#mask0_1_13587)">
<path fill-rule="evenodd" clip-rule="evenodd" d="M34.375 0.324361C31.4754 1.17214 29.0371 3.47073 27.9613 6.37013C27.6153 7.30259 27.5234 8.08847 27.4615 10.6419L27.3857 13.7709L26.6968 14.2223C24.3268 15.776 23.4681 19.6663 24.9101 22.3159C25.2292 22.9022 25.8885 23.7322 26.3748 24.1605C27.3226 24.9947 29.0766 25.7588 30.044 25.7588C30.5294 25.7588 30.6583 25.8598 30.7514 26.3133C31.4752 29.8375 32.6788 32.3486 34.656 34.4609C35.4179 35.2746 36.555 36.2578 37.1829 36.6459C38.2391 37.299 38.3159 37.3967 38.2113 37.9564C38.0284 38.9328 36.7234 40.6435 35.7044 41.2425L34.7782 41.7871L27.3185 41.9002C20.3458 42.006 19.7829 42.0417 18.6946 42.4455C16.4968 43.2613 15.048 44.1746 13.506 45.7165C11.0157 48.2068 9.90806 50.7262 9.73367 54.2975C9.60222 56.9852 9.99194 59.2225 10.9607 61.3403L11.6075 62.7548L11.149 63.8943C10.5135 65.4744 10.1171 67.0806 9.85121 69.1534L9.6246 70.9201H5.95101C2.46371 70.9201 2.24294 70.9433 1.59718 71.3786C1.22298 71.6306 0.710484 72.1431 0.458468 72.5173L0 73.1975V83.8233V94.4492L0.458468 95.1294C0.710484 95.5036 1.22298 96.0161 1.59718 96.2681C2.26532 96.7185 2.37903 96.7266 8.06028 96.7266H13.8431L14.1292 97.2645C14.8768 98.6703 17.3694 99.9524 19.3548 99.9524C21.3403 99.9524 23.8329 98.6703 24.5804 97.2645L24.8665 96.7266H30.4841C34.7726 96.7266 36.2575 96.6615 36.7599 96.4516C37.6177 96.0931 38.4585 95.0792 38.6224 94.2052L38.7528 93.51L50.6117 93.455C62.2308 93.4012 62.4821 93.3915 63.0274 92.9842C63.3335 92.7556 63.771 92.3181 63.9996 92.0121C64.4073 91.4661 64.4173 91.1957 64.5161 77.9389L64.6169 64.4225L66.0538 64.0576C67.477 63.6963 69.5383 62.7701 70.6222 62.0048L71.1839 61.608L73.1423 62.224C76.0121 63.1264 77.3375 63.3236 79.7869 63.2121C81.4792 63.1348 82.2599 62.9963 83.3405 62.5812C85.3192 61.8211 87.0026 60.7395 88.4323 59.3098C89.5524 58.1897 89.7905 58.0469 90.8554 57.8582C96.4891 56.8592 100 52.3173 100 46.0276C100 43.0274 97.5339 20.9945 96.9534 18.81C96.3879 16.681 94.502 14.4879 92.3897 13.5024C91.3556 13.0201 90.9458 12.9538 88.6089 12.8911C86.3226 12.8298 85.8425 12.8754 84.8494 13.2482C83.4131 13.7873 82.1133 14.9234 81.344 16.3123C80.7871 17.3177 80.7462 17.5375 80.7478 19.5088C80.7494 21.3788 80.8123 21.7602 81.2881 22.7786C82.0321 24.3709 83.5046 25.8931 84.9798 26.5945C85.6452 26.9111 86.303 27.1699 86.4415 27.1699C86.5835 27.1701 86.6907 27.4121 86.6871 27.7246C86.6774 28.5653 84.9667 40.2544 84.8341 40.3873C84.7704 40.451 84.2321 40.2286 83.6379 39.8933C80.4313 38.0836 75.8206 38.3643 72.1524 40.5925L71.0145 41.2838L69.3073 40.3756C66.1526 38.6973 62.9528 38.258 59.7601 39.0651C58.8829 39.2869 57.0254 40.0215 55.6321 40.6977C53.2575 41.8504 53.0512 41.9143 52.3401 41.7179C51.9228 41.6028 51.2837 41.2814 50.9198 41.0038C50.12 40.3939 49.0429 38.7661 48.8714 37.9082C48.7611 37.357 48.8204 37.2455 49.377 36.9576C50.4433 36.4062 52.8389 34.0006 53.8351 32.4804C54.9569 30.7693 55.7522 28.8679 56.0889 27.0933L56.3333 25.8052L57.3228 25.6879C59.3597 25.4467 61.3411 23.9907 62.3089 22.0238C62.7161 21.1961 62.802 20.7215 62.7996 19.3072C62.7972 17.8288 62.7202 17.4473 62.2383 16.5282C61.7058 15.5125 60.2308 13.8637 59.8546 13.8637C59.7573 13.8637 59.6764 12.6163 59.675 11.0915C59.6726 8.19735 59.4518 6.90722 58.6919 5.34674C57.7343 3.38021 55.7254 1.53485 53.4774 0.557224L52.3186 0.0531919L43.9516 0.0118613C36.4917 -0.0248323 35.4536 0.00903876 34.375 0.324361ZM52.5202 3.7421C53.8486 4.35218 55.3123 5.81549 55.8706 7.0911C56.2246 7.90057 56.3389 8.61892 56.4105 10.4867L56.5014 12.8556H55.6391C54.8796 12.8556 54.6484 12.734 53.6994 11.8367C53.1069 11.2762 52.1002 10.5732 51.4623 10.2742C50.4718 9.81005 50.0373 9.73061 48.4879 9.73061C46.9298 9.73061 46.5061 9.80904 45.4897 10.285C44.001 10.9824 43.1044 10.984 41.6077 10.2915C40.6012 9.82577 40.1502 9.74251 38.6046 9.73706C36.9575 9.73122 36.6617 9.7917 35.47 10.3784C34.7462 10.7346 33.7365 11.4379 33.2262 11.9409C32.4206 12.7352 32.1865 12.8556 31.447 12.8556H30.5954L30.6814 10.4867C30.7542 8.48061 30.8464 7.94795 31.2835 7.00884C32.1274 5.19513 33.7442 3.85057 35.6319 3.3919C36.0496 3.29049 39.7933 3.22355 43.9516 3.24331C51.3728 3.27839 51.5306 3.28747 52.5202 3.7421ZM40.5911 13.4917C42.6329 14.3905 44.2488 14.3877 46.4718 13.4812C47.7276 12.9691 48.2567 12.8508 48.8619 12.9461C50.4018 13.1891 51.8806 14.2836 52.6891 15.779C53.1 16.5391 53.125 16.8524 53.125 21.2225C53.125 25.1492 53.0683 26.0431 52.7554 27.0572C51.4351 31.3354 48.3619 34.5074 44.8258 35.2415C43.2048 35.578 41.7825 35.3365 39.9333 34.4111C37.0931 32.9895 34.8758 30.0076 34.1742 26.6661C33.8288 25.0209 33.7512 17.6048 34.0679 16.5008C34.6185 14.5808 36.6897 12.9506 38.6758 12.8738C38.9345 12.8639 39.7964 13.1419 40.5911 13.4917ZM30.6859 19.307C30.6423 21.6548 30.5599 22.5318 30.3835 22.5286C29.7815 22.5175 28.4444 21.7119 28.0042 21.0949C27.6341 20.576 27.5202 20.155 27.5202 19.3072C27.5202 17.9407 28.1048 17.0151 29.3147 16.4655C30.8002 15.7909 30.7532 15.6935 30.6859 19.307ZM57.7812 16.4653C60.1448 17.5387 60.151 20.9734 57.7917 22.1155C57.3173 22.3451 56.8218 22.533 56.6903 22.533C56.5175 22.533 56.4516 21.7312 56.4516 19.6262C56.4516 18.0274 56.3966 16.5758 56.3292 16.4004C56.1623 15.9653 56.7369 15.9909 57.7812 16.4653ZM91.2587 16.6409C92.3508 17.2092 93.4436 18.5052 93.727 19.5677C94.1135 21.0175 96.3498 40.0117 96.6752 44.6096C96.9923 49.0915 95.4248 52.5431 92.4546 53.9028C91.3071 54.4282 89.6921 54.7911 88.5016 54.7911C87.8103 54.7911 87.6853 54.882 87.0813 55.8234C85.9726 57.5512 83.8208 59.0213 81.349 59.7399C79.1375 60.3828 75.2575 59.7669 71.8845 58.2375L70.5972 57.6538L70.1333 58.1475C69.3746 58.955 67.5339 60.0855 66.1734 60.5792C65.4736 60.8332 64.8143 61.0411 64.7087 61.0411C64.5891 61.0411 64.5161 57.4469 64.5161 51.5653C64.5161 45.53 64.5877 42.0895 64.7131 42.0895C65.1335 42.0895 67.5319 43.0871 68.3442 43.6C68.8145 43.8967 69.5958 44.5052 70.0804 44.952L70.9619 45.7645L72.0758 44.7463C74.1413 42.8586 77.4954 41.6419 79.7159 41.9748C80.7839 42.135 82.7419 43.0663 83.6544 43.8479L84.345 44.4397L84.0972 46.2109C83.9609 47.1848 83.8905 48.0231 83.9409 48.0733C84.0954 48.2278 86.904 48.5996 87.0224 48.4812C87.124 48.3794 90.5242 25.0042 90.5242 24.4068C90.5242 24.2209 90.1579 24.1459 89.2504 24.1459C85.9188 24.1459 84.0252 22.4774 83.9881 19.5088C83.9683 17.9298 84.4756 17.0582 85.7663 16.454C86.9373 15.9056 90.0494 16.0115 91.2587 16.6409ZM37.5917 19.8022C36.5915 20.8022 37.3002 22.533 38.7097 22.533C39.1024 22.533 39.5157 22.3502 39.8276 22.0381C40.1397 21.7262 40.3226 21.3129 40.3226 20.9201C40.3226 20.5274 40.1397 20.1141 39.8276 19.8022C39.5157 19.4901 39.1024 19.3072 38.7097 19.3072C38.3169 19.3072 37.9036 19.4901 37.5917 19.8022ZM47.2692 19.8022C46.269 20.8022 46.9776 22.533 48.3871 22.533C48.7798 22.533 49.1931 22.3502 49.505 22.0381C49.8171 21.7262 50 21.3129 50 20.9201C50 20.5274 49.8171 20.1141 49.505 19.8022C49.1931 19.4901 48.7798 19.3072 48.3871 19.3072C47.9944 19.3072 47.5811 19.4901 47.2692 19.8022ZM37.1609 26.7742C37.4131 28.9036 39.1353 31.0028 41.301 31.8203C45.0373 33.231 49.3839 30.6536 49.9248 26.7068L50.0548 25.7588H48.4222H46.7897L46.5754 26.5546C46.1218 28.2397 44.3186 29.2792 42.6942 28.7925C41.6437 28.4778 40.5849 27.3963 40.4091 26.4586L40.2776 25.7588H38.6591H37.0405L37.1609 26.7742ZM45.8857 39.4443C46.071 39.93 46.6308 40.9236 47.1298 41.6524L48.0367 42.9772L46.7835 48.4304C46.0944 51.4298 45.4829 54.0879 45.4248 54.3375C45.325 54.7659 45.2198 54.7911 43.5304 54.7911C41.8413 54.7911 41.7355 54.7657 41.6345 54.3375C40.5512 49.7451 39.1129 43.3748 39.1129 43.1689C39.1129 43.0209 39.5091 42.3211 39.9935 41.6137C40.4778 40.9062 41.0258 39.93 41.2115 39.4443L41.549 38.5613H43.5488H45.5484L45.8857 39.4443ZM61.2903 66.1822V90.275H50H38.7097V83.0032V75.7314L39.3331 76.1752C40.2284 76.8129 42.1887 77.3717 43.5298 77.3717C46.7151 77.3717 49.449 75.5808 50.8778 72.5578C51.4466 71.3548 51.5093 71.0328 51.5107 69.3072C51.5119 67.5768 51.451 67.2631 50.8794 66.0566C50.1377 64.4911 49.0635 63.2344 47.8692 62.5344L47.0151 62.0338L47.3091 60.7814C47.4708 60.0925 47.6933 59.1119 47.8036 58.602C47.994 57.7219 48.0659 57.6467 49.2292 57.1094C50.8145 56.3776 52.7859 54.528 53.5913 53.0169C54.5312 51.2532 54.8387 49.7994 54.8387 47.1173V44.7703L56.502 43.8994C58.1 43.0627 60.5119 42.1026 61.0383 42.0937C61.2385 42.0903 61.2903 47.0401 61.2903 66.1822ZM37.0875 49.2685L38.0464 53.4046L37.2817 52.6578C36.0196 51.4254 35.6171 50.2365 35.522 47.4576C35.4579 45.5897 35.5002 45.0264 35.7139 44.8935C36.0532 44.6828 35.9425 44.3298 37.0875 49.2685ZM51.5599 47.3117C51.4968 48.7788 51.3304 50.0076 51.1131 50.6098C50.7651 51.575 48.872 53.8685 49.0762 53.0774C49.1337 52.8556 49.5454 51.0865 49.9913 49.1459C50.4371 47.2054 50.8494 45.4167 50.9071 45.1711C50.98 44.8617 51.1115 44.7629 51.3363 44.849C51.6165 44.9566 51.6468 45.2899 51.5599 47.3117ZM22.8633 45.4665C22.9228 45.6607 23.2117 47.4524 23.505 49.4484C24.422 55.6867 24.2534 59.824 22.9468 63.1486C22.5742 64.0965 22.5665 64.3411 22.795 67.9873C23.2492 75.2387 22.5577 81.933 21.0518 84.8609C20.8081 85.335 20.8308 85.5262 21.2575 86.576C22.3974 89.3814 22.8208 93.8183 22.072 95.1137C21.6268 95.884 20.2075 96.7266 19.3548 96.7266C18.444 96.7266 17.0754 95.884 16.5716 95.0129C16.145 94.2756 16.1149 94.0423 16.2198 92.2911C16.3514 90.0889 16.7236 88.3532 17.4573 86.5191L17.9724 85.2316L17.0433 83.834C13.8708 79.0617 12.5984 74.7068 13.0718 70.2415C13.2778 68.2986 13.7917 65.7377 14.023 65.501C14.0639 65.459 14.5522 65.7165 15.1081 66.0732C16.2278 66.7917 18.7792 67.7558 18.9734 67.5338C19.0766 67.4161 19.7581 64.8723 19.7581 64.6052C19.7581 64.5598 19.2319 64.3306 18.5889 64.0963C15.2315 62.8721 13.5784 60.6403 13.0611 56.6326C12.4786 52.1191 14.5776 47.9649 18.3488 46.1679C20.3817 45.1992 22.6722 44.8433 22.8633 45.4665ZM32.2581 47.5119C32.2581 49.3441 32.3536 50.2193 32.6631 51.2215C33.4573 53.7923 35.6393 56.2405 38.0216 57.2332L39.0472 57.6607L39.5204 59.7927L39.9935 61.9246L39.4107 62.3397C37.9738 63.3629 36.8569 64.5975 36.2462 65.8381C35.6925 66.9627 35.5889 67.4177 35.5181 69.0346L35.4357 70.9201H30.855H26.2742L26.0871 67.8455C25.9113 64.9594 25.9264 64.6905 26.3329 63.4604C27.1708 60.9256 27.3141 59.8479 27.3113 56.1016C27.3089 52.7988 26.9254 48.9439 26.2764 45.6992L26.1593 45.1137H29.2087H32.2581V47.5119ZM44.4161 58.6721C43.8502 61.5177 43.3704 61.9856 42.9601 60.0917C42.8212 59.4496 42.6599 58.7201 42.602 58.4705C42.5032 58.0457 42.5619 58.0169 43.5216 58.0169H44.5464L44.4161 58.6721ZM45.7091 65.0443C46.8506 65.6266 47.7196 66.7109 48.1036 68.0322C48.5288 69.4945 48.2498 70.9429 47.3036 72.1848C45.5308 74.5123 42.0522 74.7135 40.0935 72.602C39.1603 71.5957 38.824 70.7232 38.824 69.3072C38.824 65.7004 42.5153 63.4149 45.7091 65.0443ZM41.9355 69.3072V70.9201H43.5484H45.1613V69.3072V67.6943H43.5484H41.9355V69.3072ZM9.93024 75.3401C10.2617 77.6457 12.0698 82.1917 13.6528 84.6994L14.1587 85.5008L13.605 87.7367C13.3004 88.9665 13.0052 90.7665 12.9492 91.7367L12.8474 93.5008H8.03649H3.22581V83.8183V74.1359L6.49939 74.1913L9.77298 74.2467L9.93024 75.3401ZM35.4839 75.7588V77.3717H32.2581H29.0323V83.8233V90.275H32.2581H35.4839V91.8879V93.5008H30.6452H25.8065V92.7088C25.8065 91.3812 25.3998 88.8969 24.9002 87.1725L24.4262 85.5371L24.9222 83.8252C25.5355 81.708 25.9458 79.1492 26.1266 76.3133L26.2647 74.1459H30.8742H35.4839V75.7588ZM35.4839 83.8233V87.0492H33.871H32.2581V83.8233V80.5975H33.871H35.4839V83.8233Z" fill="black"/>
</g>
</svg>
