<svg width="20" height="20" viewBox="0 0 20 20" fill="none" xmlns="http://www.w3.org/2000/svg">
<mask id="mask0_1_13103" style="mask-type:alpha" maskUnits="userSpaceOnUse" x="0" y="0" width="20" height="20">
<rect width="20" height="20" fill="white"/>
</mask>
<g mask="url(#mask0_1_13103)">
<path d="M10.5366 3C10.9817 3.00245 12.0952 3.01322 13.2784 3.06061L13.6979 3.0789C14.8892 3.1353 16.0794 3.23165 16.6698 3.39625C17.4572 3.61746 18.0761 4.26292 18.2852 5.0811C18.6183 6.38034 18.66 8.91617 18.6652 9.52983L18.6659 9.657V9.66592C18.6659 9.66592 18.6659 9.669 18.6659 9.67492L18.6652 9.80208C18.66 10.4158 18.6183 12.9516 18.2852 14.2508C18.0732 15.072 17.4543 15.7175 16.6698 15.9357C16.0794 16.1003 14.8892 16.1966 13.6979 16.253L13.2784 16.2713C12.0952 16.3187 10.9817 16.3294 10.5366 16.3319L10.3412 16.3326H10.3326C10.3326 16.3326 10.3297 16.3326 10.3239 16.3326L10.1287 16.3319C9.18675 16.3268 5.2481 16.2842 3.99542 15.9357C3.208 15.7144 2.5891 15.069 2.37989 14.2508C2.04683 12.9516 2.0052 10.4158 2 9.80208V9.52983C2.0052 8.91617 2.04683 6.38034 2.37989 5.0811C2.592 4.25988 3.2109 3.61443 3.99542 3.39625C5.2481 3.04769 9.18675 3.00518 10.1287 3H10.5366ZM8.66593 6.74928V12.5826L13.6659 9.66592L8.66593 6.74928Z" fill="white"/>
</g>
</svg>
